{
.appVersion = "1346";
DisplayStrings = (
"/JIMf1",
"/tdi",
"/KAFi1/JIMf1/sda/tdi/sdi/KAFi1.001/GAFi2/GAFi1",
"/BEm3/BEi2/REf2",
"/toeda/MIMi7/MIMi6/MIMi5/MIMi4/MIMi3",
"/BEi4/LAMi1/MIMi1/HAYAm5/JIMf1/toeda"
);
customParameters = (
{
name = glyphOrder;
value = (

glyphs = (
{
glyphname = HAMZAu1;
lastChange = "2020-08-19 17:51:06 +0000";
layers = (
{
anchors = (
{
name = bottom;
position = "{192, -133}";
},
{
name = top;
position = "{166, 281}";
}
);
layerId = "6E34CE51-C086-4FF0-804E-D019E96D60E0";
paths = (
{
closed = 1;
nodes = (
"99 92 LINE",
"86 62 OFFCURVE",
"68 11 OFFCURVE",
"68 -22 CURVE",
"68 -31 OFFCURVE",
"71 -36 OFFCURVE",
"78 -36 CURVE",
"81 -36 OFFCURVE",
"83 -35 OFFCURVE",
"84 -33 CURVE",
"86 -32 OFFCURVE",
"87 -30 OFFCURVE",
"88 -28 CURVE",
"88 -27 OFFCURVE",
"90 -23 OFFCURVE",
"94 -15 CURVE",
"117 40 OFFCURVE",
"161 82 OFFCURVE",
"214 106 CURVE",
"275 130 OFFCURVE",
"308 149 OFFCURVE",
"341 207 CURVE",
"352 225 LINE",
"366 246 OFFCURVE",
"371 256 OFFCURVE",
"371 261 CURVE",
"371 264 OFFCURVE",
"368 267 OFFCURVE",
"365 267 CURVE",
"362 267 OFFCURVE",
"360 266 OFFCURVE",
"354 262 CURVE",
"310 228 OFFCURVE",
"236 199 OFFCURVE",
"193 199 CURVE",
"151 199 OFFCURVE",
"112 224 OFFCURVE",
"112 252 CURVE",
"112 276 OFFCURVE",
"138 292 OFFCURVE",
"175 292 CURVE",
"187 292 OFFCURVE",
"194 291 OFFCURVE",
"207 289 CURVE",
"219 287 OFFCURVE",
"222 286 OFFCURVE",
"227 286 CURVE",
"245 286 OFFCURVE",
"256 295 OFFCURVE",
"256 310 CURVE",
"256 339 OFFCURVE",
"228 362 OFFCURVE",
"194 362 CURVE",
"125 362 OFFCURVE",
"35 237 OFFCURVE",
"35 173 CURVE",
"35 147 OFFCURVE",
"47 125 OFFCURVE",
"66 114 CURVE",
"75 108 OFFCURVE",
"84 104 OFFCURVE",
"102 98 CURVE"
);
}
);
width = 394;
}
);
note = HAMZAu1;
unicode = 0621;
},
{
glyphname = ALIFu1;
lastChange = "2020-08-30 21:28:16 +0000";
layers = (
{
anchors = (
{
name = bottom;
position = "{100, -393}";
},
{
name = top;
position = "{111, 614}";
}
);
background = {
paths = (
{
closed = 1;
nodes = (
"55 25 LINE",
"55 22 LINE SMOOTH",
"55 18 OFFCURVE",
"55 17 OFFCURVE",
"58 16 CURVE",
"59 15 LINE",
"62 17 LINE",
"65 18 OFFCURVE",
"68 21 OFFCURVE",
"69 25 CURVE",
"79 39 LINE SMOOTH",
"105 78 OFFCURVE",
"121 138 OFFCURVE",
"123 185 CURVE SMOOTH",
"125 205 OFFCURVE",
"126 225 OFFCURVE",
"126 243 CURVE SMOOTH",
"128 334 LINE",
"127 382 LINE",
"127 533 LINE SMOOTH",
"127 576 OFFCURVE",
"129 630 OFFCURVE",
"131 653 CURVE SMOOTH",
"133 667 LINE",
"134 670 OFFCURVE",
"134 671 OFFCURVE",
"134 672 CURVE SMOOTH",
"134 676 LINE SMOOTH",
"134 679 OFFCURVE",
"133 681 OFFCURVE",
"130 681 CURVE SMOOTH",
"127 681 OFFCURVE",
"125 679 OFFCURVE",
"117 669 CURVE SMOOTH",
"92 633 OFFCURVE",
"69 602 OFFCURVE",
"63 557 CURVE SMOOTH",
"59 527 OFFCURVE",
"58 507 OFFCURVE",
"58 449 CURVE SMOOTH",
"60 324 LINE SMOOTH",
"61 303 OFFCURVE",
"61 278 OFFCURVE",
"62 249 CURVE SMOOTH",
"62 112 LINE",
"61 88 LINE",
"59 71 LINE SMOOTH",
"59 66 OFFCURVE",
"59 60 OFFCURVE",
"58 52 CURVE SMOOTH",
"58 43 OFFCURVE",
"57 36 OFFCURVE",
"56 32 CURVE SMOOTH"
);
}
);
};
layerId = "6E34CE51-C086-4FF0-804E-D019E96D60E0";
paths = (
{
closed = 1;
nodes = (
"55 22 LINE SMOOTH",
"55 18 OFFCURVE",
"56 16 OFFCURVE",
"60 16 CURVE SMOOTH",
"63 16 OFFCURVE",
"66 17 OFFCURVE",
"79 39 CURVE SMOOTH",
"127 122 OFFCURVE",
"127 211 OFFCURVE",
"127 243 CURVE SMOOTH",
"127 533 LINE SMOOTH",
"127 576 OFFCURVE",
"128 630 OFFCURVE",
"131 653 CURVE SMOOTH",
"132 661 OFFCURVE",
"134 671 OFFCURVE",
"134 676 CURVE SMOOTH",
"134 679 OFFCURVE",
"133 681 OFFCURVE",
"130 681 CURVE SMOOTH",
"126 681 OFFCURVE",
"120 673 OFFCURVE",
"113 663 CURVE SMOOTH",
"89 630 OFFCURVE",
"69 600 OFFCURVE",
"63 557 CURVE SMOOTH",
"60 537 OFFCURVE",
"58 500 OFFCURVE",
"58 444 CURVE SMOOTH",
"58 375 OFFCURVE",
"61 308 OFFCURVE",
"61 218 CURVE SMOOTH",
"61 128 OFFCURVE",
"58 52 OFFCURVE",
"56 32 CURVE SMOOTH"
);
}
);
width = 183;
}
);
note = ALIFu1;
unicode = 0627;
},
{
glyphname = BEu1;
lastChange = "2020-08-19 18:09:44 +0000";
layers = (
{
anchors = (
{
name = bottom;
position = "{451, -388}";
},
{
name = top;
position = "{425, 281}";
}
);
background = {
paths = (
{
closed = 1;
nodes = (
"333 -10 CURVE SMOOTH",
"429 -10 OFFCURVE",
"691 2 OFFCURVE",
"768 66 CURVE SMOOTH",
"798 90 OFFCURVE",
"824 137 OFFCURVE",
"842 171 CURVE SMOOTH",
"858 201 OFFCURVE",
"869 230 OFFCURVE",
"869 240 CURVE SMOOTH",
"869 245 OFFCURVE",
"866 249 OFFCURVE",
"861 249 CURVE SMOOTH",
"856 249 OFFCURVE",
"853 247 OFFCURVE",
"848 238 CURVE",
"843 232 LINE",
"843 231 OFFCURVE",
"841 229 OFFCURVE",
"839 225 CURVE SMOOTH",
"812 180 OFFCURVE",
"782 160 OFFCURVE",
"724 149 CURVE SMOOTH",
"611 129 OFFCURVE",
"495 122 OFFCURVE",
"380 122 CURVE SMOOTH",
"304 122 OFFCURVE",
"184 123 OFFCURVE",
"117 166 CURVE SMOOTH",
"84 188 OFFCURVE",
"74 211 OFFCURVE",
"74 264 CURVE SMOOTH",
"74 280 LINE SMOOTH",
"74 292 OFFCURVE",
"70 298 OFFCURVE",
"61 298 CURVE SMOOTH",
"51 298 OFFCURVE",
"47 292 OFFCURVE",
"45 272 CURVE SMOOTH",
"39 230 OFFCURVE",
"36 195 OFFCURVE",
"36 161 CURVE SMOOTH",
"36 62 OFFCURVE",
"80 20 OFFCURVE",
"173 2 CURVE SMOOTH",
"224 -7 OFFCURVE",
"243 -8 OFFCURVE"
);
}
);
};
layerId = "6E34CE51-C086-4FF0-804E-D019E96D60E0";
paths = (
{
closed = 1;
nodes = (
"333 -10 CURVE SMOOTH",
"536 -7 OFFCURVE",
"690 21 OFFCURVE",
"764 70 CURVE SMOOTH",
"796 91 OFFCURVE",
"817 120 OFFCURVE",
"841 168 CURVE SMOOTH",
"858 202 OFFCURVE",
"869 232 OFFCURVE",
"869 241 CURVE SMOOTH",
"869 246 OFFCURVE",
"866 249 OFFCURVE",
"861 249 CURVE SMOOTH",
"855 249 OFFCURVE",
"848 240 OFFCURVE",
"839 225 CURVE SMOOTH",
"811 179 OFFCURVE",
"786 162 OFFCURVE",
"725 149 CURVE SMOOTH",
"650 133 OFFCURVE",
"513 122 OFFCURVE",
"380 122 CURVE SMOOTH",
"195 122 OFFCURVE",
"110 146 OFFCURVE",
"85 195 CURVE SMOOTH",
"77 211 OFFCURVE",
"74 231 OFFCURVE",
"74 278 CURVE SMOOTH",
"74 289 OFFCURVE",
"72 298 OFFCURVE",
"61 298 CURVE SMOOTH",
"50 298 OFFCURVE",
"48 291 OFFCURVE",
"45 273 CURVE SMOOTH",
"42 254 OFFCURVE",
"37 216 OFFCURVE",
"37 174 CURVE SMOOTH",
"37 27 OFFCURVE",
"97 -14 OFFCURVE"
);
}
);
width = 895;
}
);
note = BEu1;
unicode = 0628;
},
{
glyphname = JIMu1;
lastChange = "2020-08-19 18:15:00 +0000";
layers = (
{
anchors = (
{
name = bottom;
position = "{296, -425}";
},
{
name = top;
position = "{255, 529}";
}
);
background = {
paths = (
{
closed = 1;
nodes = (
"261 413 OFFCURVE",
"253 405 OFFCURVE",
"241 394 CURVE",
"140 280 OFFCURVE",
"56 139 OFFCURVE",
"56 -18 CURVE SMOOTH",
"56 -170 OFFCURVE",
"138 -269 OFFCURVE",
"262 -269 CURVE SMOOTH",
"382 -269 OFFCURVE",
"485 -186 OFFCURVE",
"547 -89 CURVE SMOOTH",
"553 -81 OFFCURVE",
"560 -68 OFFCURVE",
"569 -52 CURVE SMOOTH",
"589 -14 LINE",
"603 19 LINE SMOOTH",
"609 34 OFFCURVE",
"613 43 OFFCURVE",
"615 47 CURVE SMOOTH",
"633 98 LINE",
"639 111 OFFCURVE",
"645 132 OFFCURVE",
"645 146 CURVE SMOOTH",
"645 152 OFFCURVE",
"641 157 OFFCURVE",
"636 157 CURVE SMOOTH",
"630 157 OFFCURVE",
"627 153 OFFCURVE",
"621 141 CURVE SMOOTH",
"613 122 LINE SMOOTH",
"543 -37 OFFCURVE",
"429 -128 OFFCURVE",
"299 -128 CURVE SMOOTH",
"190 -128 OFFCURVE",
"117 -54 OFFCURVE",
"117 57 CURVE SMOOTH",
"117 211 OFFCURVE",
"230 324 OFFCURVE",
"350 404 CURVE SMOOTH",
"370 417 OFFCURVE",
"376 423 OFFCURVE",
"387 437 CURVE",
"401 451 OFFCURVE",
"425 487 OFFCURVE",
"425 505 CURVE SMOOTH",
"425 513 OFFCURVE",
"420 520 OFFCURVE",
"413 523 CURVE SMOOTH",
"383 538 OFFCURVE",
"275 543 OFFCURVE",
"238 543 CURVE SMOOTH",
"132 543 OFFCURVE",
"112 518 OFFCURVE",
"67 434 CURVE",
"60 418 OFFCURVE",
"55 409 OFFCURVE",
"53 404 CURVE SMOOTH",
"44 385 OFFCURVE",
"41 377 OFFCURVE",
"41 371 CURVE SMOOTH",
"41 365 OFFCURVE",
"44 361 OFFCURVE",
"49 361 CURVE SMOOTH",
"54 361 OFFCURVE",
"58 365 OFFCURVE",
"63 374 CURVE",
"65 376 OFFCURVE",
"67 380 OFFCURVE",
"71 386 CURVE SMOOTH",
"77 394 OFFCURVE",
"81 401 OFFCURVE",
"85 406 CURVE SMOOTH",
"111 440 OFFCURVE",
"140 450 OFFCURVE",
"182 450 CURVE SMOOTH",
"200 450 OFFCURVE",
"219 449 OFFCURVE",
"236 447 CURVE SMOOTH",
"263 444 LINE SMOOTH",
"281 442 OFFCURVE",
"282 441 OFFCURVE",
"293 439 CURVE"
);
}
);
};
layerId = "6E34CE51-C086-4FF0-804E-D019E96D60E0";
paths = (
{
closed = 1;
nodes = (
"160 331 OFFCURVE",
"56 147 OFFCURVE",
"56 -18 CURVE SMOOTH",
"56 -170 OFFCURVE",
"138 -269 OFFCURVE",
"262 -269 CURVE SMOOTH",
"370 -269 OFFCURVE",
"462 -211 OFFCURVE",
"544 -87 CURVE SMOOTH",
"599 -4 OFFCURVE",
"645 102 OFFCURVE",
"645 146 CURVE SMOOTH",
"645 152 OFFCURVE",
"641 157 OFFCURVE",
"636 157 CURVE SMOOTH",
"627 157 OFFCURVE",
"624 154 OFFCURVE",
"613 128 CURVE SMOOTH",
"544 -32 OFFCURVE",
"432 -128 OFFCURVE",
"299 -128 CURVE SMOOTH",
"190 -128 OFFCURVE",
"117 -54 OFFCURVE",
"117 57 CURVE SMOOTH",
"117 251 OFFCURVE",
"294 363 OFFCURVE",
"350 404 CURVE SMOOTH",
"403 443 OFFCURVE",
"425 486 OFFCURVE",
"425 505 CURVE SMOOTH",
"425 513 OFFCURVE",
"421 519 OFFCURVE",
"413 523 CURVE SMOOTH",
"383 538 OFFCURVE",
"276 543 OFFCURVE",
"235 543 CURVE SMOOTH",
"139 543 OFFCURVE",
"105 516 OFFCURVE",
"66 434 CURVE SMOOTH",
"54 409 OFFCURVE",
"41 375 OFFCURVE",
"41 369 CURVE SMOOTH",
"41 366 OFFCURVE",
"44 361 OFFCURVE",
"48 361 CURVE SMOOTH",
"59 361 OFFCURVE",
"76 393 OFFCURVE",
"84 404 CURVE SMOOTH",
"105 434 OFFCURVE",
"133 450 OFFCURVE",
"183 450 CURVE SMOOTH",
"211 450 OFFCURVE",
"261 445 OFFCURVE",
"293 439 CURVE"
);
}
);
width = 671;
}
);
note = JIMu1;
unicode = 062D;
},
{
glyphname = DALu1;
lastChange = "2020-08-27 11:54:42 +0000";
layers = (
{
anchors = (
{
name = bottom;
position = "{114, -400}";
},
{
name = top;
position = "{153, 381}";
}
);
background = {
paths = (
{
closed = 1;
nodes = (
"77 367 OFFCURVE",
"54 313 OFFCURVE",
"54 293 CURVE SMOOTH",
"54 287 OFFCURVE",
"60 281 OFFCURVE",
"65 278 CURVE SMOOTH",
"126 237 OFFCURVE",
"174 219 OFFCURVE",
"174 164 CURVE SMOOTH",
"174 150 OFFCURVE",
"168 139 OFFCURVE",
"151 127 CURVE SMOOTH",
"140 119 OFFCURVE",
"126 109 OFFCURVE",
"109 98 CURVE SMOOTH",
"61 66 LINE",
"-24 11 LINE SMOOTH",
"-37 2 OFFCURVE",
"-40 0 OFFCURVE",
"-40 -4 CURVE SMOOTH",
"-40 -7 OFFCURVE",
"-37 -9 OFFCURVE",
"-33 -9 CURVE SMOOTH",
"-31 -9 OFFCURVE",
"-29 -9 OFFCURVE",
"-21 -8 CURVE SMOOTH",
"31 1 LINE SMOOTH",
"44 4 OFFCURVE",
"54 5 OFFCURVE",
"91 10 CURVE SMOOTH",
"129 15 OFFCURVE",
"135 17 OFFCURVE",
"145 23 CURVE",
"180 53 OFFCURVE",
"238 201 OFFCURVE",
"238 258 CURVE SMOOTH",
"238 324 OFFCURVE",
"195 377 OFFCURVE",
"108 420 CURVE"
);
}
);
};
layerId = "6E34CE51-C086-4FF0-804E-D019E96D60E0";
paths = (
{
closed = 1;
nodes = (
"77 367 OFFCURVE",
"54 313 OFFCURVE",
"54 293 CURVE SMOOTH",
"54 283 OFFCURVE",
"67 277 OFFCURVE",
"94 259 CURVE SMOOTH",
"158 217 OFFCURVE",
"174 199 OFFCURVE",
"174 166 CURVE SMOOTH",
"174 144 OFFCURVE",
"166 135 OFFCURVE",
"109 98 CURVE SMOOTH",
"-24 11 LINE SMOOTH",
"-39 1 OFFCURVE",
"-40 0 OFFCURVE",
"-40 -4 CURVE SMOOTH",
"-40 -7 OFFCURVE",
"-38 -9 OFFCURVE",
"-33 -9 CURVE SMOOTH",
"21 -5 OFFCURVE",
"115 12 OFFCURVE",
"145 23 CURVE",
"169 37 OFFCURVE",
"238 193 OFFCURVE",
"238 265 CURVE SMOOTH",
"238 324 OFFCURVE",
"189 381 OFFCURVE",
"108 420 CURVE"
);
}
);
width = 266;
}
);
note = DALu1;
unicode = 062F;
},
{
glyphname = REu1;
lastChange = "2020-08-19 18:41:55 +0000";
layers = (
{
anchors = (
{
name = bottom;
position = "{140, -392}";
},
{
name = top;
position = "{243, 385}";
}
);
background = {
paths = (
{
closed = 1;
nodes = (
"0 33 LINE SMOOTH",
"-10 26 OFFCURVE",
"-22 17 OFFCURVE",
"-37 8 CURVE SMOOTH",
"-45 3 OFFCURVE",
"-48 -1 OFFCURVE",
"-48 -5 CURVE SMOOTH",
"-48 -8 OFFCURVE",
"-45 -11 OFFCURVE",
"-42 -11 CURVE SMOOTH",
"-40 -11 OFFCURVE",
"-37 -11 OFFCURVE",
"-34 -10 CURVE SMOOTH",
"-12 -6 LINE",
"10 -2 LINE SMOOTH",
"32 2 OFFCURVE",
"51 5 OFFCURVE",
"62 6 CURVE SMOOTH",
"102 11 LINE SMOOTH",
"172 20 OFFCURVE",
"198 35 OFFCURVE",
"214 79 CURVE SMOOTH",
"244 167 OFFCURVE",
"258 257 OFFCURVE",
"261 350 CURVE SMOOTH",
"262 387 LINE SMOOTH",
"263 419 OFFCURVE",
"264 427 OFFCURVE",
"268 440 CURVE",
"268 443 OFFCURVE",
"269 445 OFFCURVE",
"269 446 CURVE SMOOTH",
"269 449 OFFCURVE",
"267 451 OFFCURVE",
"265 451 CURVE SMOOTH",
"261 451 OFFCURVE",
"257 447 OFFCURVE",
"243 425 CURVE SMOOTH",
"218 388 OFFCURVE",
"210 363 OFFCURVE",
"210 320 CURVE SMOOTH",
"209 270 LINE SMOOTH",
"209 221 OFFCURVE",
"203 196 OFFCURVE",
"190 178 CURVE SMOOTH",
"179 162 OFFCURVE",
"158 145 OFFCURVE",
"113 113 CURVE SMOOTH"
);
}
);
};
layerId = "6E34CE51-C086-4FF0-804E-D019E96D60E0";
paths = (
{
closed = 1;
nodes = (
"0 33 CURVE SMOOTH",
"-30 12 OFFCURVE",
"-30 13 OFFCURVE",
"-37 8 CURVE SMOOTH",
"-45 3 OFFCURVE",
"-48 -1 OFFCURVE",
"-48 -5 CURVE SMOOTH",
"-48 -8 OFFCURVE",
"-45 -11 OFFCURVE",
"-41 -11 CURVE SMOOTH",
"-27 -11 OFFCURVE",
"-33 -6 OFFCURVE",
"42 4 CURVE SMOOTH",
"132 16 OFFCURVE",
"163 20 OFFCURVE",
"183 34 CURVE SMOOTH",
"197 44 OFFCURVE",
"207 58 OFFCURVE",
"214 79 CURVE SMOOTH",
"229 121 OFFCURVE",
"238 155 OFFCURVE",
"245 193 CURVE SMOOTH",
"254 243 OFFCURVE",
"259 303 OFFCURVE",
"262 399 CURVE SMOOTH",
"263 432 OFFCURVE",
"269 442 OFFCURVE",
"269 447 CURVE SMOOTH",
"269 450 OFFCURVE",
"267 451 OFFCURVE",
"265 451 CURVE SMOOTH",
"262 451 OFFCURVE",
"254 442 OFFCURVE",
"243 426 CURVE SMOOTH",
"219 391 OFFCURVE",
"210 359 OFFCURVE",
"210 320 CURVE SMOOTH",
"210 223 OFFCURVE",
"207 203 OFFCURVE",
"190 178 CURVE SMOOTH",
"177 158 OFFCURVE",
"162 146 OFFCURVE"
);
}
);
width = 313;
}
);
note = REu1;
unicode = 0631;
},
{
glyphname = SINu1;
lastChange = "2020-08-19 18:46:19 +0000";
layers = (
{
anchors = (
{
name = bottom;
position = "{659, -55}";
},
{
name = top;
position = "{603, 388}";
}
);
background = {
paths = (
{
closed = 1;
nodes = (
"581 196 OFFCURVE",
"617 215 OFFCURVE",
"654 257 CURVE",
"667 252 OFFCURVE",
"680 249 OFFCURVE",
"695 249 CURVE SMOOTH",
"747 249 OFFCURVE",
"793 327 OFFCURVE",
"793 414 CURVE SMOOTH",
"793 423 OFFCURVE",
"790 427 OFFCURVE",
"785 427 CURVE SMOOTH",
"779 427 OFFCURVE",
"776 422 OFFCURVE",
"772 406 CURVE SMOOTH",
"760 357 OFFCURVE",
"739 331 OFFCURVE",
"710 331 CURVE SMOOTH",
"689 331 OFFCURVE",
"673 347 OFFCURVE",
"669 373 CURVE SMOOTH",
"668 381 OFFCURVE",
"665 384 OFFCURVE",
"660 384 CURVE SMOOTH",
"655 384 OFFCURVE",
"653 380 OFFCURVE",
"649 366 CURVE SMOOTH",
"634 309 OFFCURVE",
"617 292 OFFCURVE",
"576 292 CURVE SMOOTH",
"550 292 OFFCURVE",
"527 302 OFFCURVE",
"511 321 CURVE SMOOTH",
"503 330 OFFCURVE",
"500 332 OFFCURVE",
"497 332 CURVE SMOOTH",
"490 332 OFFCURVE",
"487 323 OFFCURVE",
"484 298 CURVE SMOOTH",
"481 263 LINE SMOOTH",
"480 258 OFFCURVE",
"480 254 OFFCURVE",
"480 251 CURVE SMOOTH",
"480 248 OFFCURVE",
"481 243 OFFCURVE",
"482 236 CURVE SMOOTH",
"486 201 OFFCURVE",
"488 177 OFFCURVE",
"488 153 CURVE SMOOTH",
"488 53 OFFCURVE",
"455 -21 OFFCURVE",
"387 -75 CURVE SMOOTH",
"339 -114 OFFCURVE",
"282 -136 OFFCURVE",
"229 -136 CURVE SMOOTH",
"133 -136 OFFCURVE",
"76 -73 OFFCURVE",
"76 34 CURVE SMOOTH",
"76 74 OFFCURVE",
"85 121 OFFCURVE",
"103 170 CURVE SMOOTH",
"113 199 LINE SMOOTH",
"116 206 OFFCURVE",
"117 212 OFFCURVE",
"117 215 CURVE SMOOTH",
"117 221 OFFCURVE",
"113 226 OFFCURVE",
"109 226 CURVE SMOOTH",
"98 226 OFFCURVE",
"88 209 OFFCURVE",
"70 164 CURVE SMOOTH",
"41 88 OFFCURVE",
"28 20 OFFCURVE",
"28 -45 CURVE SMOOTH",
"28 -187 OFFCURVE",
"95 -275 OFFCURVE",
"203 -275 CURVE SMOOTH",
"380 -275 OFFCURVE",
"514 -86 OFFCURVE",
"535 193 CURVE"
);
}
);
};
layerId = "6E34CE51-C086-4FF0-804E-D019E96D60E0";
paths = (
{
closed = 1;
nodes = (
"581 196 OFFCURVE",
"617 215 OFFCURVE",
"654 257 CURVE",
"667 252 OFFCURVE",
"681 249 OFFCURVE",
"692 249 CURVE SMOOTH",
"751 249 OFFCURVE",
"793 334 OFFCURVE",
"793 407 CURVE SMOOTH",
"793 423 OFFCURVE",
"791 427 OFFCURVE",
"785 427 CURVE SMOOTH",
"778 427 OFFCURVE",
"776 421 OFFCURVE",
"772 406 CURVE SMOOTH",
"758 356 OFFCURVE",
"740 331 OFFCURVE",
"711 331 CURVE SMOOTH",
"698 331 OFFCURVE",
"687 336 OFFCURVE",
"680 344 CURVE SMOOTH",
"675 350 OFFCURVE",
"671 360 OFFCURVE",
"669 373 CURVE SMOOTH",
"668 380 OFFCURVE",
"666 384 OFFCURVE",
"660 384 CURVE SMOOTH",
"654 384 OFFCURVE",
"653 379 OFFCURVE",
"649 366 CURVE SMOOTH",
"633 315 OFFCURVE",
"625 292 OFFCURVE",
"578 292 CURVE SMOOTH",
"538 292 OFFCURVE",
"520 311 OFFCURVE",
"509 323 CURVE SMOOTH",
"504 328 OFFCURVE",
"500 332 OFFCURVE",
"497 332 CURVE SMOOTH",
"484 332 OFFCURVE",
"481 277 OFFCURVE",
"481 255 CURVE SMOOTH",
"481 225 OFFCURVE",
"488 191 OFFCURVE",
"488 147 CURVE SMOOTH",
"488 -7 OFFCURVE",
"373 -136 OFFCURVE",
"226 -136 CURVE SMOOTH",
"133 -136 OFFCURVE",
"76 -70 OFFCURVE",
"76 30 CURVE SMOOTH",
"76 114 OFFCURVE",
"117 198 OFFCURVE",
"117 215 CURVE SMOOTH",
"117 221 OFFCURVE",
"113 226 OFFCURVE",
"109 226 CURVE SMOOTH",
"100 226 OFFCURVE",
"84 202 OFFCURVE",
"69 164 CURVE SMOOTH",
"44 101 OFFCURVE",
"28 16 OFFCURVE",
"28 -51 CURVE SMOOTH",
"28 -187 OFFCURVE",
"95 -275 OFFCURVE",
"209 -275 CURVE SMOOTH",
"380 -275 OFFCURVE",
"516 -78 OFFCURVE",
"535 193 CURVE"
);
}
);
width = 821;
}
);
note = SINu1;
unicode = 0633;
},
{
glyphname = SADu1;
lastChange = "2020-08-19 18:48:56 +0000";
layers = (
{
anchors = (
{
name = bottom;
position = "{707, -55}";
},
{
name = top;
position = "{625, 477}";
}
);
background = {
paths = (
{
closed = 1;
nodes = (
"574 322 LINE",
"557 326 OFFCURVE",
"535 338 OFFCURVE",
"513 357 CURVE",
"508 360 OFFCURVE",
"505 362 OFFCURVE",
"503 362 CURVE SMOOTH",
"502 362 OFFCURVE",
"500 358 OFFCURVE",
"498 352 CURVE",
"493 324 LINE",
"489 315 OFFCURVE",
"482 264 OFFCURVE",
"482 254 CURVE SMOOTH",
"482 250 OFFCURVE",
"482 243 OFFCURVE",
"484 232 CURVE SMOOTH",
"487 210 OFFCURVE",
"488 181 OFFCURVE",
"488 158 CURVE SMOOTH",
"488 77 OFFCURVE",
"473 5 OFFCURVE",
"414 -54 CURVE SMOOTH",
"363 -107 OFFCURVE",
"294 -137 OFFCURVE",
"226 -137 CURVE SMOOTH",
"133 -137 OFFCURVE",
"75 -75 OFFCURVE",
"75 25 CURVE SMOOTH",
"75 76 OFFCURVE",
"91 146 OFFCURVE",
"116 203 CURVE SMOOTH",
"121 216 OFFCURVE",
"122 219 OFFCURVE",
"122 223 CURVE SMOOTH",
"122 228 OFFCURVE",
"118 232 OFFCURVE",
"113 232 CURVE SMOOTH",
"99 232 OFFCURVE",
"84 204 OFFCURVE",
"61 141 CURVE SMOOTH",
"37 76 OFFCURVE",
"27 17 OFFCURVE",
"27 -50 CURVE SMOOTH",
"27 -189 OFFCURVE",
"94 -276 OFFCURVE",
"202 -276 CURVE SMOOTH",
"360 -276 OFFCURVE",
"493 -113 OFFCURVE",
"526 121 CURVE SMOOTH",
"532 159 LINE SMOOTH",
"534 172 OFFCURVE",
"535 180 OFFCURVE",
"535 185 CURVE SMOOTH",
"535 196 LINE",
"561 187 OFFCURVE",
"575 185 OFFCURVE",
"595 185 CURVE SMOOTH",
"720 185 OFFCURVE",
"832 264 OFFCURVE",
"884 376 CURVE SMOOTH",
"904 418 OFFCURVE",
"916 459 OFFCURVE",
"916 488 CURVE SMOOTH",
"916 537 OFFCURVE",
"880 574 OFFCURVE",
"832 574 CURVE SMOOTH",
"764 574 OFFCURVE",
"672 491 OFFCURVE",
"595 358 CURVE SMOOTH"
);
},
{
closed = 1;
nodes = (
"656 416 OFFCURVE",
"731 478 OFFCURVE",
"795 478 CURVE SMOOTH",
"831 478 OFFCURVE",
"865 449 OFFCURVE",
"865 418 CURVE SMOOTH",
"865 395 OFFCURVE",
"832 366 OFFCURVE",
"781 344 CURVE SMOOTH",
"733 324 OFFCURVE",
"686 313 OFFCURVE",
"642 313 CURVE SMOOTH",
"626 313 OFFCURVE",
"611 314 OFFCURVE",
"601 317 CURVE"
);
}
);
};
layerId = "6E34CE51-C086-4FF0-804E-D019E96D60E0";
paths = (
{
closed = 1;
nodes = (
"574 322 LINE",
"568 324 OFFCURVE",
"552 329 OFFCURVE",
"536 339 CURVE SMOOTH",
"521 349 OFFCURVE",
"509 362 OFFCURVE",
"503 362 CURVE SMOOTH",
"496 362 OFFCURVE",
"482 269 OFFCURVE",
"482 254 CURVE",
"482 242 OFFCURVE",
"488 202 OFFCURVE",
"488 158 CURVE SMOOTH",
"488 77 OFFCURVE",
"472 6 OFFCURVE",
"414 -54 CURVE SMOOTH",
"362 -107 OFFCURVE",
"294 -137 OFFCURVE",
"226 -137 CURVE SMOOTH",
"133 -137 OFFCURVE",
"75 -75 OFFCURVE",
"75 25 CURVE SMOOTH",
"75 76 OFFCURVE",
"91 146 OFFCURVE",
"116 203 CURVE SMOOTH",
"121 216 OFFCURVE",
"122 219 OFFCURVE",
"122 223 CURVE SMOOTH",
"122 228 OFFCURVE",
"118 232 OFFCURVE",
"113 232 CURVE SMOOTH",
"99 232 OFFCURVE",
"84 204 OFFCURVE",
"61 141 CURVE SMOOTH",
"37 76 OFFCURVE",
"27 17 OFFCURVE",
"27 -50 CURVE SMOOTH",
"27 -189 OFFCURVE",
"94 -276 OFFCURVE",
"202 -276 CURVE SMOOTH",
"360 -276 OFFCURVE",
"489 -112 OFFCURVE",
"526 121 CURVE SMOOTH",
"533 168 OFFCURVE",
"534 177 OFFCURVE",
"535 196 CURVE",
"561 187 OFFCURVE",
"575 185 OFFCURVE",
"595 185 CURVE SMOOTH",
"720 185 OFFCURVE",
"832 264 OFFCURVE",
"884 376 CURVE SMOOTH",
"904 418 OFFCURVE",
"916 459 OFFCURVE",
"916 488 CURVE SMOOTH",
"916 537 OFFCURVE",
"880 574 OFFCURVE",
"832 574 CURVE SMOOTH",
"760 574 OFFCURVE",
"672 491 OFFCURVE",
"595 358 CURVE SMOOTH"
);
},
{
closed = 1;
nodes = (
"656 416 OFFCURVE",
"731 478 OFFCURVE",
"795 478 CURVE SMOOTH",
"838 478 OFFCURVE",
"866 442 OFFCURVE",
"866 418 CURVE SMOOTH",
"866 396 OFFCURVE",
"838 369 OFFCURVE",
"781 344 CURVE SMOOTH",
"734 323 OFFCURVE",
"686 313 OFFCURVE",
"642 313 CURVE SMOOTH",
"626 313 OFFCURVE",
"611 314 OFFCURVE",
"601 317 CURVE"
);
}
);
width = 943;
}
);
note = SADu1;
unicode = 0635;
},
{
glyphname = TOEu1;
lastChange = "2020-08-19 19:05:45 +0000";
layers = (
{
anchors = (
{
name = bottom;
position = "{318, -203}";
},
{
name = top;
position = "{270, 562}";
}
);
background = {
paths = (
{
closed = 1;
nodes = (
"15 74 OFFCURVE",
"16 73 OFFCURVE",
"20 71 CURVE",
"21 70 OFFCURVE",
"23 69 OFFCURVE",
"27 67 CURVE",
"86 24 OFFCURVE",
"169 -3 OFFCURVE",
"243 -3 CURVE SMOOTH",
"324 -3 OFFCURVE",
"398 24 OFFCURVE",
"455 81 CURVE",
"494 127 OFFCURVE",
"553 231 OFFCURVE",
"553 294 CURVE SMOOTH",
"553 347 OFFCURVE",
"515 385 OFFCURVE",
"463 385 CURVE SMOOTH",
"384 385 OFFCURVE",
"318 320 OFFCURVE",
"277 259 CURVE SMOOTH",
"273 253 LINE",
"276 270 OFFCURVE",
"277 282 OFFCURVE",
"278 291 CURVE SMOOTH",
"280 319 LINE SMOOTH",
"281 334 OFFCURVE",
"281 343 OFFCURVE",
"281 347 CURVE SMOOTH",
"282 594 LINE SMOOTH",
"282 598 OFFCURVE",
"282 611 OFFCURVE",
"284 648 CURVE SMOOTH",
"285 666 OFFCURVE",
"285 675 OFFCURVE",
"288 688 CURVE SMOOTH",
"290 696 OFFCURVE",
"290 700 OFFCURVE",
"284 700 CURVE SMOOTH",
"276 700 OFFCURVE",
"241 646 OFFCURVE",
"227 615 CURVE SMOOTH",
"220 600 OFFCURVE",
"218 584 OFFCURVE",
"218 555 CURVE",
"219 266 LINE",
"219 234 OFFCURVE",
"217 204 OFFCURVE",
"215 195 CURVE SMOOTH",
"213 184 OFFCURVE",
"207 170 OFFCURVE",
"197 151 CURVE SMOOTH",
"182 124 LINE",
"163 89 LINE",
"161 88 OFFCURVE",
"159 88 OFFCURVE",
"158 88 CURVE SMOOTH",
"151 88 LINE",
"144 86 OFFCURVE",
"100 84 OFFCURVE",
"91 83 CURVE SMOOTH",
"55 80 LINE",
"22 78 LINE SMOOTH",
"16 78 OFFCURVE",
"15 78 OFFCURVE",
"15 76 CURVE SMOOTH"
);
},
{
closed = 1;
nodes = (
"196 92 LINE",
"207 111 OFFCURVE",
"220 129 OFFCURVE",
"233 147 CURVE SMOOTH",
"236 152 OFFCURVE",
"242 159 OFFCURVE",
"249 168 CURVE SMOOTH",
"255 175 OFFCURVE",
"260 181 OFFCURVE",
"263 185 CURVE SMOOTH",
"282 205 LINE SMOOTH",
"317 242 OFFCURVE",
"363 275 OFFCURVE",
"417 275 CURVE SMOOTH",
"458 275 OFFCURVE",
"491 247 OFFCURVE",
"491 211 CURVE SMOOTH",
"491 162 OFFCURVE",
"373 123 OFFCURVE",
"212 94 CURVE SMOOTH",
"201 92 LINE"
);
}
);
};
layerId = "6E34CE51-C086-4FF0-804E-D019E96D60E0";
paths = (
{
closed = 1;
nodes = (
"14 73 OFFCURVE",
"44 53 OFFCURVE",
"84 35 CURVE SMOOTH",
"137 11 OFFCURVE",
"195 -4 OFFCURVE",
"250 -4 CURVE SMOOTH",
"325 -4 OFFCURVE",
"396 24 OFFCURVE",
"453 83 CURVE SMOOTH",
"513 145 OFFCURVE",
"553 232 OFFCURVE",
"553 291 CURVE SMOOTH",
"553 349 OFFCURVE",
"515 385 OFFCURVE",
"460 385 CURVE SMOOTH",
"398 385 OFFCURVE",
"330 338 OFFCURVE",
"273 253 CURVE",
"277 274 OFFCURVE",
"281 324 OFFCURVE",
"281 347 CURVE",
"281 392 OFFCURVE",
"281 432 OFFCURVE",
"281 467 CURVE SMOOTH",
"281 629 OFFCURVE",
"282 649 OFFCURVE",
"288 688 CURVE SMOOTH",
"289 695 OFFCURVE",
"288 700 OFFCURVE",
"285 700 CURVE SMOOTH",
"274 700 OFFCURVE",
"240 648 OFFCURVE",
"226 615 CURVE SMOOTH",
"219 598 OFFCURVE",
"218 588 OFFCURVE",
"218 555 CURVE",
"218 266 LINE",
"218 235 OFFCURVE",
"216 204 OFFCURVE",
"214 195 CURVE SMOOTH",
"210 175 OFFCURVE",
"202 160 OFFCURVE",
"163 89 CURVE",
"149 88 OFFCURVE",
"117 83 OFFCURVE",
"23 78 CURVE SMOOTH",
"17 78 OFFCURVE",
"14 78 OFFCURVE",
"14 75 CURVE SMOOTH"
);
},
{
closed = 1;
nodes = (
"196 92 CURVE",
"246 178 OFFCURVE",
"332 275 OFFCURVE",
"415 275 CURVE SMOOTH",
"464 275 OFFCURVE",
"491 242 OFFCURVE",
"491 215 CURVE SMOOTH",
"491 164 OFFCURVE",
"396 127 OFFCURVE"
);
}
);
width = 585;
}
);
note = TOEu1;
unicode = 0637;
},
{
glyphname = AINu1;
lastChange = "2020-08-19 19:14:05 +0000";
layers = (
{
anchors = (
{
name = bottom;
position = "{281, -425}";
},
{
name = top;
position = "{211, 559}";
}
);
background = {
paths = (
{
closed = 1;
nodes = (
"141 268 LINE SMOOTH",
"83 184 OFFCURVE",
"46 72 OFFCURVE",
"46 -20 CURVE SMOOTH",
"46 -170 OFFCURVE",
"128 -268 OFFCURVE",
"255 -268 CURVE SMOOTH",
"399 -268 OFFCURVE",
"510 -154 OFFCURVE",
"569 -32 CURVE SMOOTH",
"604 40 OFFCURVE",
"635 124 OFFCURVE",
"635 147 CURVE SMOOTH",
"635 153 OFFCURVE",
"631 159 OFFCURVE",
"627 159 CURVE SMOOTH",
"621 159 OFFCURVE",
"617 153 OFFCURVE",
"607 131 CURVE SMOOTH",
"545 -4 OFFCURVE",
"451 -128 OFFCURVE",
"287 -128 CURVE SMOOTH",
"180 -128 OFFCURVE",
"106 -53 OFFCURVE",
"106 54 CURVE SMOOTH",
"106 161 OFFCURVE",
"168 260 OFFCURVE",
"285 338 CURVE SMOOTH",
"321 363 LINE SMOOTH",
"351 383 OFFCURVE",
"364 393 OFFCURVE",
"372 400 CURVE SMOOTH",
"395 423 OFFCURVE",
"412 457 OFFCURVE",
"424 488 CURVE",
"426 491 OFFCURVE",
"426 494 OFFCURVE",
"426 496 CURVE SMOOTH",
"426 497 OFFCURVE",
"426 498 OFFCURVE",
"425 498 CURVE SMOOTH",
"422 498 OFFCURVE",
"418 495 OFFCURVE",
"411 490 CURVE SMOOTH",
"409 489 OFFCURVE",
"406 486 OFFCURVE",
"400 483 CURVE SMOOTH",
"385 473 LINE SMOOTH",
"343 446 OFFCURVE",
"299 429 OFFCURVE",
"249 429 CURVE SMOOTH",
"184 429 OFFCURVE",
"133 458 OFFCURVE",
"133 496 CURVE SMOOTH",
"133 527 OFFCURVE",
"174 555 OFFCURVE",
"220 555 CURVE SMOOTH",
"229 555 OFFCURVE",
"238 554 OFFCURVE",
"246 553 CURVE SMOOTH",
"283 549 LINE SMOOTH",
"298 549 OFFCURVE",
"307 556 OFFCURVE",
"307 568 CURVE SMOOTH",
"307 599 OFFCURVE",
"277 627 OFFCURVE",
"243 627 CURVE SMOOTH",
"163 627 OFFCURVE",
"66 490 OFFCURVE",
"66 417 CURVE SMOOTH",
"66 362 OFFCURVE",
"101 327 OFFCURVE",
"172 312 CURVE"
);
}
);
};
layerId = "6E34CE51-C086-4FF0-804E-D019E96D60E0";
paths = (
{
closed = 1;
nodes = (
"141 268 LINE SMOOTH",
"82 185 OFFCURVE",
"46 70 OFFCURVE",
"46 -25 CURVE SMOOTH",
"46 -169 OFFCURVE",
"126 -268 OFFCURVE",
"263 -268 CURVE SMOOTH",
"384 -268 OFFCURVE",
"484 -190 OFFCURVE",
"568 -30 CURVE SMOOTH",
"606 42 OFFCURVE",
"635 122 OFFCURVE",
"635 145 CURVE SMOOTH",
"635 154 OFFCURVE",
"631 159 OFFCURVE",
"626 159 CURVE SMOOTH",
"620 159 OFFCURVE",
"616 150 OFFCURVE",
"607 131 CURVE SMOOTH",
"546 3 OFFCURVE",
"454 -128 OFFCURVE",
"295 -128 CURVE SMOOTH",
"175 -128 OFFCURVE",
"106 -54 OFFCURVE",
"106 58 CURVE SMOOTH",
"106 150 OFFCURVE",
"153 228 OFFCURVE",
"228 294 CURVE SMOOTH",
"318 373 OFFCURVE",
"401 392 OFFCURVE",
"424 489 CURVE SMOOTH",
"425 493 OFFCURVE",
"427 498 OFFCURVE",
"425 498 CURVE SMOOTH",
"421 498 OFFCURVE",
"407 487 OFFCURVE",
"385 473 CURVE SMOOTH",
"342 446 OFFCURVE",
"299 429 OFFCURVE",
"249 429 CURVE SMOOTH",
"184 429 OFFCURVE",
"133 458 OFFCURVE",
"133 496 CURVE SMOOTH",
"133 529 OFFCURVE",
"174 555 OFFCURVE",
"218 555 CURVE SMOOTH",
"239 555 OFFCURVE",
"271 549 OFFCURVE",
"284 549 CURVE SMOOTH",
"297 549 OFFCURVE",
"307 555 OFFCURVE",
"307 571 CURVE SMOOTH",
"307 598 OFFCURVE",
"278 627 OFFCURVE",
"242 627 CURVE SMOOTH",
"163 627 OFFCURVE",
"66 491 OFFCURVE",
"66 412 CURVE SMOOTH",
"66 363 OFFCURVE",
"103 326 OFFCURVE",
"172 312 CURVE"
);
}
);
width = 662;
}
);
note = AINu1;
unicode = 0639;
},
{
glyphname = FEu1;
lastChange = "2020-08-19 19:16:23 +0000";
layers = (
{
anchors = (
{
name = bottom;
position = "{433, -214}";
},
{
name = top;
position = "{755, 600}";
}
);
background = {
paths = (
{
closed = 1;
nodes = (
"820 267 OFFCURVE",
"833 253 OFFCURVE",
"833 236 CURVE SMOOTH",
"833 177 OFFCURVE",
"671 137 OFFCURVE",
"443 128 CURVE SMOOTH",
"243 120 OFFCURVE",
"75 122 OFFCURVE",
"75 289 CURVE SMOOTH",
"75 309 OFFCURVE",
"73 313 OFFCURVE",
"62 313 CURVE SMOOTH",
"53 313 OFFCURVE",
"49 307 OFFCURVE",
"47 292 CURVE SMOOTH",
"39 216 OFFCURVE",
"37 192 OFFCURVE",
"37 171 CURVE SMOOTH",
"37 40 OFFCURVE",
"117 -9 OFFCURVE",
"325 -9 CURVE SMOOTH",
"441 -9 OFFCURVE",
"661 18 OFFCURVE",
"761 70 CURVE SMOOTH",
"840 111 OFFCURVE",
"883 212 OFFCURVE",
"883 299 CURVE SMOOTH",
"883 358 OFFCURVE",
"856 505 OFFCURVE",
"775 505 CURVE SMOOTH",
"754 505 OFFCURVE",
"735 495 OFFCURVE",
"728 479 CURVE SMOOTH",
"711 442 OFFCURVE",
"672 334 OFFCURVE",
"672 314 CURVE SMOOTH",
"672 280 OFFCURVE",
"704 254 OFFCURVE",
"746 254 CURVE SMOOTH",
"766 254 OFFCURVE",
"784 260 OFFCURVE",
"810 272 CURVE"
);
}
);
};
layerId = "6E34CE51-C086-4FF0-804E-D019E96D60E0";
paths = (
{
closed = 1;
nodes = (
"820 267 OFFCURVE",
"833 253 OFFCURVE",
"833 236 CURVE SMOOTH",
"833 177 OFFCURVE",
"671 137 OFFCURVE",
"443 128 CURVE SMOOTH",
"243 120 OFFCURVE",
"75 122 OFFCURVE",
"75 289 CURVE SMOOTH",
"75 309 OFFCURVE",
"73 313 OFFCURVE",
"62 313 CURVE SMOOTH",
"53 313 OFFCURVE",
"49 307 OFFCURVE",
"47 292 CURVE SMOOTH",
"39 218 OFFCURVE",
"37 192 OFFCURVE",
"37 171 CURVE SMOOTH",
"37 40 OFFCURVE",
"116 -9 OFFCURVE",
"327 -9 CURVE SMOOTH",
"469 -9 OFFCURVE",
"645 13 OFFCURVE",
"757 75 CURVE SMOOTH",
"842 122 OFFCURVE",
"883 189 OFFCURVE",
"883 287 CURVE SMOOTH",
"883 371 OFFCURVE",
"853 505 OFFCURVE",
"775 505 CURVE SMOOTH",
"754 505 OFFCURVE",
"735 495 OFFCURVE",
"728 479 CURVE SMOOTH",
"711 442 OFFCURVE",
"672 334 OFFCURVE",
"672 314 CURVE SMOOTH",
"672 280 OFFCURVE",
"704 254 OFFCURVE",
"746 254 CURVE SMOOTH",
"766 254 OFFCURVE",
"784 260 OFFCURVE",
"810 272 CURVE"
);
}
);
width = 913;
}
);
note = FEu1;
unicode = 06A1;
},
{
glyphname = QAFu1;
lastChange = "2020-08-19 19:18:12 +0000";
layers = (
{
anchors = (
{
name = bottom;
position = "{281, -414}";
},
{
name = top;
position = "{107, 303}";
}
);
background = {
paths = (
{
closed = 1;
nodes = (
"532 211 OFFCURVE",
"545 188 OFFCURVE",
"545 154 CURVE",
"545 102 OFFCURVE",
"511 33 OFFCURVE",
"459 -19 CURVE",
"395 -82 OFFCURVE",
"313 -121 OFFCURVE",
"240 -121 CURVE",
"139 -121 OFFCURVE",
"76 -51 OFFCURVE",
"76 63 CURVE",
"76 104 OFFCURVE",
"83 143 OFFCURVE",
"98 191 CURVE",
"106 214 LINE",
"109 225 OFFCURVE",
"111 233 OFFCURVE",
"113 236 CURVE",
"116 245 OFFCURVE",
"117 250 OFFCURVE",
"118 251 CURVE",
"119 255 OFFCURVE",
"120 259 OFFCURVE",
"120 263 CURVE",
"121 265 LINE",
"121 271 OFFCURVE",
"117 275 OFFCURVE",
"110 275 CURVE",
"103 275 OFFCURVE",
"99 270 OFFCURVE",
"92 256 CURVE",
"53 165 OFFCURVE",
"26 78 OFFCURVE",
"26 -21 CURVE",
"26 -171 OFFCURVE",
"100 -262 OFFCURVE",
"222 -262 CURVE",
"413 -262 OFFCURVE",
"586 -33 OFFCURVE",
"586 220 CURVE",
"586 382 OFFCURVE",
"548 477 OFFCURVE",
"482 477 CURVE",
"468 477 OFFCURVE",
"455 472 OFFCURVE",
"444 464 CURVE",
"432 454 OFFCURVE",
"428 445 OFFCURVE",
"421 418 CURVE",
"421 417 OFFCURVE",
"417 403 OFFCURVE",
"411 377 CURVE",
"402 347 OFFCURVE",
"394 314 OFFCURVE",
"389 283 CURVE",
"389 279 OFFCURVE",
"388 275 OFFCURVE",
"388 271 CURVE",
"388 238 OFFCURVE",
"417 215 OFFCURVE",
"457 215 CURVE",
"471 215 OFFCURVE",
"477 216 OFFCURVE",
"505 226 CURVE"
);
}
);
};
layerId = "6E34CE51-C086-4FF0-804E-D019E96D60E0";
paths = (
{
closed = 1;
nodes = (
"532 211 OFFCURVE",
"545 188 OFFCURVE",
"545 155 CURVE SMOOTH",
"545 101 OFFCURVE",
"511 33 OFFCURVE",
"459 -19 CURVE SMOOTH",
"396 -83 OFFCURVE",
"310 -121 OFFCURVE",
"237 -121 CURVE SMOOTH",
"139 -121 OFFCURVE",
"76 -51 OFFCURVE",
"76 68 CURVE SMOOTH",
"76 105 OFFCURVE",
"82 144 OFFCURVE",
"98 191 CURVE SMOOTH",
"116 244 OFFCURVE",
"121 257 OFFCURVE",
"121 262 CURVE SMOOTH",
"121 272 OFFCURVE",
"117 275 OFFCURVE",
"112 275 CURVE SMOOTH",
"105 275 OFFCURVE",
"97 271 OFFCURVE",
"91 257 CURVE SMOOTH",
"65 201 OFFCURVE",
"26 93 OFFCURVE",
"26 -33 CURVE SMOOTH",
"26 -167 OFFCURVE",
"100 -262 OFFCURVE",
"224 -262 CURVE SMOOTH",
"412 -262 OFFCURVE",
"586 -45 OFFCURVE",
"586 243 CURVE SMOOTH",
"586 378 OFFCURVE",
"548 477 OFFCURVE",
"477 477 CURVE SMOOTH",
"454 477 OFFCURVE",
"444 467 OFFCURVE",
"434 449 CURVE SMOOTH",
"410 404 OFFCURVE",
"389 311 OFFCURVE",
"389 275 CURVE SMOOTH",
"389 243 OFFCURVE",
"406 215 OFFCURVE",
"460 215 CURVE SMOOTH",
"470 215 OFFCURVE",
"477 216 OFFCURVE",
"505 226 CURVE"
);
}
);
width = 635;
}
);
note = QAFu1;
unicode = 066F;
},
{
glyphname = KAFu1;
lastChange = "2020-08-19 19:54:47 +0000";
layers = (
{
anchors = (
{
name = bottom;
position = "{392, -214}";
},
{
name = top;
position = "{418, 370}";
}
);
background = {
paths = (
{
closed = 1;
nodes = (
"314 -9 LINE SMOOTH",
"397 -9 OFFCURVE",
"540 7 OFFCURVE",
"620 35 CURVE",
"644 41 OFFCURVE",
"689 62 OFFCURVE",
"708 77 CURVE SMOOTH",
"728 93 OFFCURVE",
"757 133 OFFCURVE",
"768 158 CURVE",
"770 160 OFFCURVE",
"775 171 OFFCURVE",
"784 191 CURVE SMOOTH",
"794 211 OFFCURVE",
"795 213 OFFCURVE",
"797 218 CURVE SMOOTH",
"815 261 OFFCURVE",
"822 294 OFFCURVE",
"828 335 CURVE SMOOTH",
"830 352 OFFCURVE",
"832 373 OFFCURVE",
"832 386 CURVE SMOOTH",
"832 490 LINE SMOOTH",
"832 531 OFFCURVE",
"834 571 OFFCURVE",
"837 596 CURVE SMOOTH",
"838 606 OFFCURVE",
"840 612 OFFCURVE",
"843 619 CURVE SMOOTH",
"861 655 OFFCURVE",
"908 680 OFFCURVE",
"944 697 CURVE SMOOTH",
"978 713 LINE SMOOTH",
"987 717 OFFCURVE",
"1006 725 OFFCURVE",
"1026 735 CURVE SMOOTH",
"1050 747 OFFCURVE",
"1062 752 OFFCURVE",
"1075 758 CURVE SMOOTH",
"1103 772 OFFCURVE",
"1119 781 OFFCURVE",
"1133 789 CURVE SMOOTH",
"1158 803 OFFCURVE",
"1179 818 OFFCURVE",
"1190 829 CURVE SMOOTH",
"1201 839 OFFCURVE",
"1203 843 OFFCURVE",
"1211 853 CURVE SMOOTH",
"1212 854 OFFCURVE",
"1227 873 OFFCURVE",
"1230 878 CURVE SMOOTH",
"1243 898 LINE",
"1250 911 LINE",
"1256 922 LINE SMOOTH",
"1259 927 OFFCURVE",
"1259 928 OFFCURVE",
"1259 929 CURVE SMOOTH",
"1259 932 OFFCURVE",
"1257 934 OFFCURVE",
"1254 934 CURVE SMOOTH",
"1253 934 OFFCURVE",
"1253 934 OFFCURVE",
"1251 933 CURVE",
"1249 931 LINE",
"1247 931 OFFCURVE",
"1249 931 OFFCURVE",
"1240 925 CURVE SMOOTH",
"1214 907 OFFCURVE",
"1200 898 OFFCURVE",
"1174 887 CURVE SMOOTH",
"1136 871 LINE SMOOTH",
"1119 864 OFFCURVE",
"1110 859 OFFCURVE",
"1108 859 CURVE",
"1102 856 OFFCURVE",
"1105 858 OFFCURVE",
"1092 853 CURVE SMOOTH",
"1079 848 OFFCURVE",
"1073 845 OFFCURVE",
"1063 842 CURVE",
"1033 829 LINE",
"997 815 LINE",
"970 804 LINE",
"938 790 LINE SMOOTH",
"849 751 OFFCURVE",
"832 720 OFFCURVE",
"803 632 CURVE SMOOTH",
"800 622 OFFCURVE",
"799 619 OFFCURVE",
"797 616 CURVE",
"779 566 LINE SMOOTH",
"776 557 OFFCURVE",
"773 548 OFFCURVE",
"771 544 CURVE",
"771 542 OFFCURVE",
"769 536 OFFCURVE",
"766 524 CURVE SMOOTH",
"765 517 OFFCURVE",
"764 512 OFFCURVE",
"763 511 CURVE",
"759 481 OFFCURVE",
"759 451 OFFCURVE",
"759 421 CURVE SMOOTH",
"759 322 LINE SMOOTH",
"759 277 OFFCURVE",
"759 271 OFFCURVE",
"757 255 CURVE SMOOTH",
"756 242 OFFCURVE",
"753 228 OFFCURVE",
"750 219 CURVE",
"717 148 OFFCURVE",
"478 133 OFFCURVE",
"395 128 CURVE SMOOTH",
"386 128 OFFCURVE",
"357 127 OFFCURVE",
"334 127 CURVE SMOOTH",
"153 127 OFFCURVE",
"74 169 OFFCURVE",
"74 264 CURVE SMOOTH",
"74 292 LINE SMOOTH",
"74 304 OFFCURVE",
"70 309 OFFCURVE",
"61 309 CURVE SMOOTH",
"50 309 OFFCURVE",
"49 300 OFFCURVE",
"42 267 CURVE SMOOTH",
"41 262 OFFCURVE",
"36 228 OFFCURVE",
"36 190 CURVE SMOOTH",
"36 -9 OFFCURVE",
"175 -9 OFFCURVE",
"287 -9 CURVE SMOOTH"
);
}
);
};
layerId = "6E34CE51-C086-4FF0-804E-D019E96D60E0";
paths = (
{
closed = 1;
nodes = (
"491 -9 OFFCURVE",
"626 17 OFFCURVE",
"706 81 CURVE SMOOTH",
"744 112 OFFCURVE",
"773 152 OFFCURVE",
"797 216 CURVE SMOOTH",
"818 272 OFFCURVE",
"832 337 OFFCURVE",
"832 386 CURVE SMOOTH",
"832 490 LINE SMOOTH",
"832 547 OFFCURVE",
"832 590 OFFCURVE",
"844 619 CURVE SMOOTH",
"857 651 OFFCURVE",
"889 671 OFFCURVE",
"978 713 CURVE SMOOTH",
"1134 786 OFFCURVE",
"1184 796 OFFCURVE",
"1256 922 CURVE SMOOTH",
"1259 927 OFFCURVE",
"1259 928 OFFCURVE",
"1259 929 CURVE SMOOTH",
"1259 932 OFFCURVE",
"1257 934 OFFCURVE",
"1254 934 CURVE SMOOTH",
"1252 934 OFFCURVE",
"1240 925 OFFCURVE",
"1225 914 CURVE SMOOTH",
"1200 896 OFFCURVE",
"1212 903 OFFCURVE",
"935 788 CURVE SMOOTH",
"845 751 OFFCURVE",
"833 717 OFFCURVE",
"803 632 CURVE SMOOTH",
"786 584 OFFCURVE",
"773 552 OFFCURVE",
"766 524 CURVE SMOOTH",
"761 503 OFFCURVE",
"762 503 OFFCURVE",
"759 421 CURVE SMOOTH",
"756 313 OFFCURVE",
"768 251 OFFCURVE",
"747 217 CURVE SMOOTH",
"705 148 OFFCURVE",
"491 127 OFFCURVE",
"353 127 CURVE SMOOTH",
"74 127 OFFCURVE",
"74 213 OFFCURVE",
"74 264 CURVE SMOOTH",
"74 292 LINE SMOOTH",
"74 304 OFFCURVE",
"68 309 OFFCURVE",
"63 309 CURVE SMOOTH",
"42 309 OFFCURVE",
"36 238 OFFCURVE",
"36 196 CURVE SMOOTH",
"36 -9 OFFCURVE",
"183 -9 OFFCURVE",
"233 -9 CURVE SMOOTH"
);
}
);
width = 936;
}
);
note = KAFu1;
unicode = 06A9;
},
{
glyphname = GAFu1;
lastChange = "2020-08-19 19:54:47 +0000";
layers = (
{
anchors = (
{
name = bottom;
position = "{392, -214}";
},
{
name = top;
position = "{418, 370}";
}
);
background = {
paths = (
{
closed = 1;
nodes = (
"965 908 LINE SMOOTH",
"946 900 OFFCURVE",
"920 883 OFFCURVE",
"910 873 CURVE",
"908 870 OFFCURVE",
"905 867 OFFCURVE",
"901 863 CURVE SMOOTH",
"896 857 OFFCURVE",
"892 852 OFFCURVE",
"890 848 CURVE SMOOTH",
"886 842 OFFCURVE",
"867 811 OFFCURVE",
"867 806 CURVE SMOOTH",
"867 805 OFFCURVE",
"867 804 OFFCURVE",
"868 804 CURVE SMOOTH",
"869 804 OFFCURVE",
"872 806 OFFCURVE",
"873 807 CURVE SMOOTH",
"893 821 LINE",
"896 824 OFFCURVE",
"902 827 OFFCURVE",
"911 832 CURVE SMOOTH",
"932 843 LINE SMOOTH",
"945 850 OFFCURVE",
"953 853 OFFCURVE",
"987 866 CURVE SMOOTH",
"999 871 OFFCURVE",
"1012 876 OFFCURVE",
"1027 882 CURVE SMOOTH",
"1066 898 LINE",
"1086 905 LINE SMOOTH",
"1136 923 OFFCURVE",
"1180 943 OFFCURVE",
"1210 988 CURVE SMOOTH",
"1220 1003 OFFCURVE",
"1230 1021 OFFCURVE",
"1230 1025 CURVE SMOOTH",
"1230 1027 OFFCURVE",
"1228 1028 OFFCURVE",
"1226 1028 CURVE SMOOTH",
"1225 1028 OFFCURVE",
"1224 1027 OFFCURVE",
"1223 1026 CURVE SMOOTH",
"1206 1011 OFFCURVE",
"1182 998 OFFCURVE",
"1162 988 CURVE SMOOTH",
"1157 986 OFFCURVE",
"1146 982 OFFCURVE",
"1130 975 CURVE SMOOTH",
"1103 963 LINE SMOOTH",
"1096 960 OFFCURVE",
"1084 956 OFFCURVE",
"1068 950 CURVE SMOOTH",
"1060 947 OFFCURVE",
"1053 945 OFFCURVE",
"1049 943 CURVE SMOOTH"
);
}
);
};
components = (
{
name = KAFu1;
}
);
layerId = "6E34CE51-C086-4FF0-804E-D019E96D60E0";
paths = (
{
closed = 1;
nodes = (
"1105 964 CURVE SMOOTH",
"1092 959 OFFCURVE",
"999 923 OFFCURVE",
"975 913 CURVE SMOOTH",
"948 902 OFFCURVE",
"925 889 OFFCURVE",
"901 863 CURVE SMOOTH",
"893 854 OFFCURVE",
"867 811 OFFCURVE",
"867 806 CURVE SMOOTH",
"867 805 OFFCURVE",
"867 804 OFFCURVE",
"868 804 CURVE SMOOTH",
"869 804 OFFCURVE",
"874 808 OFFCURVE",
"873 807 CURVE SMOOTH",
"892 821 OFFCURVE",
"910 831 OFFCURVE",
"932 843 CURVE SMOOTH",
"945 850 OFFCURVE",
"1012 876 OFFCURVE",
"1027 882 CURVE SMOOTH",
"1086 905 LINE SMOOTH",
"1135 924 OFFCURVE",
"1181 944 OFFCURVE",
"1210 988 CURVE SMOOTH",
"1220 1003 OFFCURVE",
"1230 1021 OFFCURVE",
"1230 1025 CURVE SMOOTH",
"1230 1027 OFFCURVE",
"1228 1028 OFFCURVE",
"1226 1028 CURVE SMOOTH",
"1225 1028 OFFCURVE",
"1222 1025 OFFCURVE",
"1223 1026 CURVE SMOOTH",
"1206 1011 OFFCURVE",
"1175 991 OFFCURVE"
);
}
);
width = 936;
}
);
note = GAFu1;
unicode = 06AF;
},
{
glyphname = LAMu1;
lastChange = "2020-08-19 19:55:58 +0000";
layers = (
{
anchors = (
{
name = bottom;
position = "{270, -418}";
},
{
name = top;
position = "{518, 562}";
}
);
layerId = "6E34CE51-C086-4FF0-804E-D019E96D60E0";
paths = (
{
closed = 1;
nodes = (
"493 140 CURVE SMOOTH",
"490 -12 OFFCURVE",
"372 -134 OFFCURVE",
"231 -134 CURVE SMOOTH",
"135 -134 OFFCURVE",
"76 -78 OFFCURVE",
"76 43 CURVE SMOOTH",
"76 88 OFFCURVE",
"84 122 OFFCURVE",
"124 218 CURVE SMOOTH",
"129 230 OFFCURVE",
"130 232 OFFCURVE",
"130 236 CURVE SMOOTH",
"130 243 OFFCURVE",
"126 246 OFFCURVE",
"122 246 CURVE SMOOTH",
"110 246 OFFCURVE",
"87 209 OFFCURVE",
"67 157 CURVE SMOOTH",
"40 87 OFFCURVE",
"25 7 OFFCURVE",
"25 -55 CURVE SMOOTH",
"25 -189 OFFCURVE",
"95 -275 OFFCURVE",
"210 -275 CURVE SMOOTH",
"368 -275 OFFCURVE",
"496 -115 OFFCURVE",
"541 125 CURVE SMOOTH",
"559 221 OFFCURVE",
"557 297 OFFCURVE",
"557 368 CURVE SMOOTH",
"556 580 LINE SMOOTH",
"556 618 OFFCURVE",
"555 673 OFFCURVE",
"569 713 CURVE SMOOTH",
"571 718 OFFCURVE",
"571 718 OFFCURVE",
"571 720 CURVE SMOOTH",
"571 724 OFFCURVE",
"569 726 OFFCURVE",
"566 726 CURVE SMOOTH",
"562 726 OFFCURVE",
"556 720 OFFCURVE",
"550 712 CURVE SMOOTH",
"532 688 OFFCURVE",
"501 623 OFFCURVE",
"496 596 CURVE SMOOTH",
"490 562 OFFCURVE",
"500 461 OFFCURVE"
);
}
);
width = 617;
}
);
note = LAMu1;
unicode = 0644;
},
{
glyphname = MIMu1;
lastChange = "2020-08-19 20:07:43 +0000";
layers = (
{
anchors = (
{
name = bottom;
position = "{300, -44}";
},
{
name = top;
position = "{300, 481}";
}
);
background = {
paths = (
{
closed = 1;
nodes = (
"269 418 LINE",
"265 416 OFFCURVE",
"263 416 OFFCURVE",
"258 414 CURVE SMOOTH",
"142 377 OFFCURVE",
"103 313 OFFCURVE",
"62 206 CURVE SMOOTH",
"56 187 OFFCURVE",
"48 158 OFFCURVE",
"44 142 CURVE SMOOTH",
"41 124 OFFCURVE",
"37 95 OFFCURVE",
"36 75 CURVE SMOOTH",
"36 66 OFFCURVE",
"36 50 OFFCURVE",
"35 28 CURVE SMOOTH",
"35 -21 LINE",
"37 -128 LINE",
"39 -175 LINE",
"39 -226 LINE",
"41 -307 LINE",
"47 -366 LINE SMOOTH",
"48 -371 OFFCURVE",
"49 -373 OFFCURVE",
"52 -373 CURVE SMOOTH",
"53 -373 OFFCURVE",
"54 -372 OFFCURVE",
"54 -369 CURVE",
"57 -366 OFFCURVE",
"73 -301 OFFCURVE",
"75 -293 CURVE SMOOTH",
"84 -252 OFFCURVE",
"90 -208 OFFCURVE",
"90 -166 CURVE SMOOTH",
"94 -83 LINE SMOOTH",
"94 -75 OFFCURVE",
"94 -62 OFFCURVE",
"95 -44 CURVE SMOOTH",
"95 2 LINE",
"98 100 LINE SMOOTH",
"98 128 OFFCURVE",
"100 157 OFFCURVE",
"102 185 CURVE",
"109 229 OFFCURVE",
"126 254 OFFCURVE",
"166 273 CURVE SMOOTH",
"207 295 OFFCURVE",
"266 305 OFFCURVE",
"311 312 CURVE SMOOTH",
"346 318 OFFCURVE",
"352 319 OFFCURVE",
"369 323 CURVE SMOOTH",
"407 332 OFFCURVE",
"435 360 OFFCURVE",
"450 395 CURVE SMOOTH",
"457 408 OFFCURVE",
"460 418 OFFCURVE",
"460 423 CURVE SMOOTH",
"460 443 OFFCURVE",
"426 465 OFFCURVE",
"410 475 CURVE",
"407 476 OFFCURVE",
"400 480 OFFCURVE",
"388 488 CURVE SMOOTH",
"367 499 LINE",
"332 517 LINE",
"329 518 OFFCURVE",
"327 519 OFFCURVE",
"325 519 CURVE SMOOTH",
"318 519 OFFCURVE",
"314 515 OFFCURVE",
"307 503 CURVE SMOOTH",
"285 462 LINE",
"276 442 LINE SMOOTH",
"271 430 OFFCURVE",
"270 428 OFFCURVE",
"269 423 CURVE SMOOTH"
);
}
);
};
layerId = "6E34CE51-C086-4FF0-804E-D019E96D60E0";
paths = (
{
closed = 1;
nodes = (
"268 418 CURVE",
"228 408 OFFCURVE",
"114 361 OFFCURVE",
"60 208 CURVE SMOOTH",
"29 120 OFFCURVE",
"34 39 OFFCURVE",
"34 35 CURVE SMOOTH",
"41 -307 LINE",
"45 -362 OFFCURVE",
"47 -373 OFFCURVE",
"50 -373 CURVE SMOOTH",
"56 -373 OFFCURVE",
"68 -328 OFFCURVE",
"75 -293 CURVE SMOOTH",
"93 -203 OFFCURVE",
"93 -115 OFFCURVE",
"98 100 CURVE SMOOTH",
"100 189 OFFCURVE",
"101 246 OFFCURVE",
"165 274 CURVE SMOOTH",
"243 309 OFFCURVE",
"414 304 OFFCURVE",
"450 387 CURVE SMOOTH",
"455 398 OFFCURVE",
"458 415 OFFCURVE",
"456 427 CURVE SMOOTH",
"453 447 OFFCURVE",
"436 461 OFFCURVE",
"395 486 CURVE SMOOTH",
"364 505 OFFCURVE",
"331 521 OFFCURVE",
"321 518 CURVE SMOOTH",
"302 513 OFFCURVE",
"266 427 OFFCURVE"
);
}
);
width = 487;
}
);
note = MIMu1;
unicode = 0645;
},
{
glyphname = NUNu1;
lastChange = "2020-08-19 20:09:24 +0000";
layers = (
{
anchors = (
{
name = bottom;
position = "{277, -418}";
},
{
name = top;
position = "{300, 325}";
}
);
background = {
paths = (
{
closed = 1;
nodes = (
"537 440 LINE SMOOTH",
"535 436 OFFCURVE",
"531 426 OFFCURVE",
"524 412 CURVE SMOOTH",
"520 403 OFFCURVE",
"517 395 OFFCURVE",
"514 389 CURVE SMOOTH",
"509 376 OFFCURVE",
"507 365 OFFCURVE",
"507 353 CURVE SMOOTH",
"507 347 OFFCURVE",
"507 339 OFFCURVE",
"509 311 CURVE SMOOTH",
"513 274 OFFCURVE",
"514 235 OFFCURVE",
"514 198 CURVE SMOOTH",
"514 186 LINE SMOOTH",
"514 90 OFFCURVE",
"496 11 OFFCURVE",
"420 -53 CURVE SMOOTH",
"367 -99 OFFCURVE",
"301 -124 OFFCURVE",
"237 -124 CURVE SMOOTH",
"137 -124 OFFCURVE",
"76 -58 OFFCURVE",
"76 49 CURVE SMOOTH",
"76 101 OFFCURVE",
"88 153 OFFCURVE",
"114 215 CURVE SMOOTH",
"118 225 OFFCURVE",
"121 231 OFFCURVE",
"122 235 CURVE",
"129 251 LINE SMOOTH",
"131 257 OFFCURVE",
"132 263 OFFCURVE",
"132 266 CURVE SMOOTH",
"132 272 OFFCURVE",
"129 276 OFFCURVE",
"124 276 CURVE SMOOTH",
"116 276 OFFCURVE",
"108 268 OFFCURVE",
"98 248 CURVE SMOOTH",
"79 211 OFFCURVE",
"55 154 OFFCURVE",
"46 114 CURVE",
"32 71 OFFCURVE",
"25 19 OFFCURVE",
"25 -26 CURVE SMOOTH",
"25 -176 OFFCURVE",
"98 -263 OFFCURVE",
"222 -263 CURVE SMOOTH",
"311 -263 OFFCURVE",
"410 -198 OFFCURVE",
"471 -100 CURVE SMOOTH",
"528 -8 OFFCURVE",
"571 143 OFFCURVE",
"571 251 CURVE SMOOTH",
"571 351 LINE",
"570 403 LINE",
"570 409 LINE SMOOTH",
"570 437 OFFCURVE",
"570 451 OFFCURVE",
"571 457 CURVE SMOOTH",
"571 460 OFFCURVE",
"572 464 OFFCURVE",
"572 469 CURVE SMOOTH",
"573 477 OFFCURVE",
"574 480 OFFCURVE",
"574 482 CURVE SMOOTH",
"574 487 OFFCURVE",
"572 490 OFFCURVE",
"570 490 CURVE SMOOTH",
"566 490 OFFCURVE",
"561 485 OFFCURVE",
"557 477 CURVE SMOOTH"
);
}
);
};
layerId = "6E34CE51-C086-4FF0-804E-D019E96D60E0";
paths = (
{
closed = 1;
nodes = (
"528 422 OFFCURVE",
"520 402 OFFCURVE",
"514 388 CURVE SMOOTH",
"509 376 OFFCURVE",
"507 367 OFFCURVE",
"507 353 CURVE SMOOTH",
"507 326 OFFCURVE",
"514 257 OFFCURVE",
"514 197 CURVE SMOOTH",
"514 77 OFFCURVE",
"486 -1 OFFCURVE",
"419 -56 CURVE SMOOTH",
"367 -99 OFFCURVE",
"295 -124 OFFCURVE",
"235 -124 CURVE SMOOTH",
"137 -124 OFFCURVE",
"76 -58 OFFCURVE",
"76 49 CURVE SMOOTH",
"76 101 OFFCURVE",
"88 153 OFFCURVE",
"114 215 CURVE SMOOTH",
"121 232 OFFCURVE",
"132 253 OFFCURVE",
"132 266 CURVE SMOOTH",
"132 272 OFFCURVE",
"129 276 OFFCURVE",
"124 276 CURVE SMOOTH",
"119 276 OFFCURVE",
"110 270 OFFCURVE",
"97 249 CURVE SMOOTH",
"61 191 OFFCURVE",
"25 53 OFFCURVE",
"25 -38 CURVE SMOOTH",
"25 -168 OFFCURVE",
"98 -263 OFFCURVE",
"218 -263 CURVE SMOOTH",
"311 -263 OFFCURVE",
"403 -205 OFFCURVE",
"470 -101 CURVE SMOOTH",
"535 0 OFFCURVE",
"571 138 OFFCURVE",
"571 293 CURVE SMOOTH",
"571 319 OFFCURVE",
"570 388 OFFCURVE",
"570 449 CURVE SMOOTH",
"570 456 OFFCURVE",
"574 478 OFFCURVE",
"574 483 CURVE SMOOTH",
"574 486 OFFCURVE",
"572 490 OFFCURVE",
"569 490 CURVE SMOOTH",
"566 490 OFFCURVE",
"561 485 OFFCURVE",
"557 477 CURVE SMOOTH"
);
}
);
width = 624;
}
);
note = NUNu1;
unicode = 06BA;
},
{
glyphname = HAYCu1;
lastChange = "2020-08-19 20:11:27 +0000";
layers = (
{
anchors = (
{
name = bottom;
position = "{162, -192}";
},
{
name = top;
position = "{166, 366}";
}
);
background = {
paths = (
{
closed = 1;
nodes = (
"60 250 LINE SMOOTH",
"45 214 OFFCURVE",
"35 160 OFFCURVE",
"35 118 CURVE SMOOTH",
"35 43 OFFCURVE",
"67 -3 OFFCURVE",
"120 -3 CURVE SMOOTH",
"233 -3 OFFCURVE",
"300 152 OFFCURVE",
"300 247 CURVE SMOOTH",
"300 333 OFFCURVE",
"223 401 OFFCURVE",
"125 401 CURVE SMOOTH",
"113 401 OFFCURVE",
"110 399 OFFCURVE",
"106 390 CURVE SMOOTH",
"101 379 LINE SMOOTH",
"100 376 OFFCURVE",
"97 370 OFFCURVE",
"94 361 CURVE SMOOTH",
"86 338 LINE SMOOTH",
"83 329 OFFCURVE",
"76 303 OFFCURVE",
"76 298 CURVE SMOOTH",
"76 296 OFFCURVE",
"77 295 OFFCURVE",
"78 293 CURVE"
);
},
{
closed = 1;
nodes = (
"189 263 OFFCURVE",
"249 219 OFFCURVE",
"249 169 CURVE SMOOTH",
"249 127 OFFCURVE",
"199 89 OFFCURVE",
"144 89 CURVE SMOOTH",
"100 89 OFFCURVE",
"71 118 OFFCURVE",
"71 163 CURVE SMOOTH",
"71 192 OFFCURVE",
"87 229 OFFCURVE",
"115 266 CURVE"
);
}
);
};
layerId = "6E34CE51-C086-4FF0-804E-D019E96D60E0";
paths = (
{
closed = 1;
nodes = (
"60 250 LINE SMOOTH",
"45 214 OFFCURVE",
"35 160 OFFCURVE",
"35 118 CURVE SMOOTH",
"35 43 OFFCURVE",
"66 -3 OFFCURVE",
"124 -3 CURVE SMOOTH",
"231 -3 OFFCURVE",
"300 154 OFFCURVE",
"300 242 CURVE SMOOTH",
"300 334 OFFCURVE",
"223 401 OFFCURVE",
"128 401 CURVE SMOOTH",
"114 401 OFFCURVE",
"110 399 OFFCURVE",
"106 390 CURVE SMOOTH",
"96 369 OFFCURVE",
"76 314 OFFCURVE",
"76 298 CURVE SMOOTH",
"76 296 OFFCURVE",
"77 294 OFFCURVE",
"78 293 CURVE"
);
},
{
closed = 1;
nodes = (
"189 263 OFFCURVE",
"249 219 OFFCURVE",
"249 169 CURVE SMOOTH",
"249 127 OFFCURVE",
"199 89 OFFCURVE",
"144 89 CURVE SMOOTH",
"100 89 OFFCURVE",
"71 118 OFFCURVE",
"71 163 CURVE SMOOTH",
"71 196 OFFCURVE",
"87 229 OFFCURVE",
"115 266 CURVE"
);
}
);
width = 335;
}
);
note = HAYCu1;
unicode = 06C1;
},
{
glyphname = HAYAu1;
lastChange = "2020-08-19 20:16:52 +0000";
layers = (
{
anchors = (
{
name = bottom;
position = "{270, -203}";
},
{
name = top;
position = "{325, 355}";
}
);
background = {
paths = (
{
closed = 1;
nodes = (
"370 280 LINE SMOOTH",
"370 328 OFFCURVE",
"337 368 OFFCURVE",
"298 368 CURVE SMOOTH",
"269 368 OFFCURVE",
"239 350 OFFCURVE",
"210 314 CURVE SMOOTH",
"188 288 OFFCURVE",
"172 262 OFFCURVE",
"141 207 CURVE SMOOTH",
"124 177 LINE SMOOTH",
"119 167 OFFCURVE",
"113 158 OFFCURVE",
"108 148 CURVE SMOOTH",
"92 122 LINE SMOOTH",
"85 110 OFFCURVE",
"81 102 OFFCURVE",
"79 100 CURVE",
"67 83 LINE SMOOTH",
"61 75 OFFCURVE",
"57 70 OFFCURVE",
"57 69 CURVE",
"47 57 OFFCURVE",
"47 56 OFFCURVE",
"42 49 CURVE SMOOTH",
"38 41 LINE SMOOTH",
"35 36 OFFCURVE",
"32 32 OFFCURVE",
"31 28 CURVE",
"21 10 OFFCURVE",
"14 -4 OFFCURVE",
"14 -7 CURVE SMOOTH",
"14 -9 OFFCURVE",
"16 -11 OFFCURVE",
"20 -11 CURVE SMOOTH",
"22 -11 LINE",
"25 -10 OFFCURVE",
"28 -10 OFFCURVE",
"29 -10 CURVE SMOOTH",
"50 -5 LINE SMOOTH",
"60 -3 OFFCURVE",
"74 -2 OFFCURVE",
"103 0 CURVE SMOOTH",
"156 3 LINE SMOOTH",
"162 4 OFFCURVE",
"171 4 OFFCURVE",
"184 5 CURVE SMOOTH",
"245 8 OFFCURVE",
"292 10 OFFCURVE",
"351 22 CURVE SMOOTH",
"361 25 OFFCURVE",
"368 27 OFFCURVE",
"373 28 CURVE",
"418 43 OFFCURVE",
"459 71 OFFCURVE",
"488 109 CURVE SMOOTH",
"493 116 OFFCURVE",
"497 122 OFFCURVE",
"501 127 CURVE SMOOTH",
"521 158 LINE SMOOTH",
"541 188 OFFCURVE",
"553 219 OFFCURVE",
"553 243 CURVE SMOOTH",
"553 287 OFFCURVE",
"527 310 OFFCURVE",
"478 310 CURVE SMOOTH",
"455 310 OFFCURVE",
"405 300 OFFCURVE",
"386 287 CURVE SMOOTH",
"379 282 LINE",
"370 273 LINE"
);
},
{
closed = 1;
nodes = (
"256 76 LINE",
"259 81 LINE SMOOTH",
"268 93 OFFCURVE",
"276 104 OFFCURVE",
"281 112 CURVE SMOOTH",
"293 131 LINE",
"324 185 LINE",
"329 194 LINE",
"330 197 OFFCURVE",
"331 197 OFFCURVE",
"332 201 CURVE",
"337 202 LINE",
"372 214 OFFCURVE",
"413 223 OFFCURVE",
"435 223 CURVE SMOOTH",
"472 223 OFFCURVE",
"495 206 OFFCURVE",
"495 178 CURVE SMOOTH",
"495 146 OFFCURVE",
"429 111 OFFCURVE",
"335 92 CURVE SMOOTH",
"301 86 LINE"
);
},
{
closed = 1;
nodes = (
"100 81 OFFCURVE",
"103 85 OFFCURVE",
"104 87 CURVE SMOOTH",
"118 108 LINE",
"145 154 LINE",
"159 180 LINE SMOOTH",
"191 236 OFFCURVE",
"206 258 OFFCURVE",
"219 269 CURVE SMOOTH",
"229 277 OFFCURVE",
"246 284 OFFCURVE",
"258 284 CURVE SMOOTH",
"274 284 OFFCURVE",
"291 273 OFFCURVE",
"301 256 CURVE SMOOTH",
"307 247 OFFCURVE",
"311 233 OFFCURVE",
"311 225 CURVE SMOOTH",
"311 210 OFFCURVE",
"303 198 OFFCURVE",
"275 174 CURVE SMOOTH",
"235 140 OFFCURVE",
"179 111 OFFCURVE",
"130 91 CURVE SMOOTH",
"112 84 OFFCURVE",
"110 83 OFFCURVE",
"98 77 CURVE"
);
}
);
};
layerId = "6E34CE51-C086-4FF0-804E-D019E96D60E0";
paths = (
{
closed = 1;
nodes = (
"370 280 LINE SMOOTH",
"370 328 OFFCURVE",
"338 368 OFFCURVE",
"296 368 CURVE SMOOTH",
"268 368 OFFCURVE",
"241 350 OFFCURVE",
"211 314 CURVE SMOOTH",
"169 264 OFFCURVE",
"127 184 OFFCURVE",
"62 77 CURVE SMOOTH",
"23 12 OFFCURVE",
"14 2 OFFCURVE",
"14 -5 CURVE SMOOTH",
"14 -9 OFFCURVE",
"16 -11 OFFCURVE",
"20 -11 CURVE SMOOTH",
"27 -11 OFFCURVE",
"44 -6 OFFCURVE",
"50 -5 CURVE SMOOTH",
"59 -3 OFFCURVE",
"76 -2 OFFCURVE",
"103 0 CURVE SMOOTH",
"210 7 OFFCURVE",
"290 8 OFFCURVE",
"352 23 CURVE SMOOTH",
"413 38 OFFCURVE",
"455 66 OFFCURVE",
"491 111 CURVE SMOOTH",
"526 155 OFFCURVE",
"553 214 OFFCURVE",
"553 250 CURVE SMOOTH",
"553 285 OFFCURVE",
"527 310 OFFCURVE",
"476 310 CURVE SMOOTH",
"443 310 OFFCURVE",
"403 299 OFFCURVE",
"370 273 CURVE"
);
},
{
closed = 1;
nodes = (
"256 76 CURVE",
"282 115 OFFCURVE",
"306 150 OFFCURVE",
"332 201 CURVE",
"372 214 OFFCURVE",
"410 223 OFFCURVE",
"435 223 CURVE SMOOTH",
"472 223 OFFCURVE",
"495 202 OFFCURVE",
"495 178 CURVE SMOOTH",
"495 136 OFFCURVE",
"413 106 OFFCURVE"
);
},
{
closed = 1;
nodes = (
"118 111 OFFCURVE",
"196 248 OFFCURVE",
"219 268 CURVE SMOOTH",
"231 278 OFFCURVE",
"244 284 OFFCURVE",
"257 284 CURVE SMOOTH",
"288 284 OFFCURVE",
"311 249 OFFCURVE",
"311 228 CURVE SMOOTH",
"311 181 OFFCURVE",
"200 119 OFFCURVE",
"130 91 CURVE SMOOTH",
"110 83 OFFCURVE",
"110 83 OFFCURVE",
"98 77 CURVE"
);
}
);
width = 584;
}
);
note = HAYAu1;
unicode = 06BE;
},
{
glyphname = VAOu1;
lastChange = "2020-08-27 11:54:32 +0000";
layers = (
{
anchors = (
{
name = bottom;
position = "{129, -392}";
},
{
name = top;
position = "{140, 385}";
}
);
background = {
paths = (
{
closed = 1;
nodes = (
"201 239 CURVE",
"212 226 OFFCURVE",
"217 214 OFFCURVE",
"217 202 CURVE SMOOTH",
"217 182 OFFCURVE",
"195 157 OFFCURVE",
"150 129 CURVE SMOOTH",
"13 42 LINE SMOOTH",
"-16 23 OFFCURVE",
"-41 5 OFFCURVE",
"-45 0 CURVE SMOOTH",
"-46 -2 OFFCURVE",
"-47 -3 OFFCURVE",
"-47 -5 CURVE SMOOTH",
"-47 -8 OFFCURVE",
"-44 -11 OFFCURVE",
"-39 -11 CURVE SMOOTH",
"-36 -11 OFFCURVE",
"-35 -10 OFFCURVE",
"-26 -8 CURVE SMOOTH",
"10 0 OFFCURVE",
"47 5 OFFCURVE",
"83 9 CURVE SMOOTH",
"169 20 OFFCURVE",
"179 25 OFFCURVE",
"200 62 CURVE SMOOTH",
"239 130 OFFCURVE",
"260 210 OFFCURVE",
"260 288 CURVE SMOOTH",
"260 382 OFFCURVE",
"220 456 OFFCURVE",
"168 456 CURVE SMOOTH",
"126 456 OFFCURVE",
"118 433 OFFCURVE",
"109 399 CURVE SMOOTH",
"105 382 OFFCURVE",
"102 372 OFFCURVE",
"101 368 CURVE SMOOTH",
"87 325 LINE SMOOTH",
"81 305 OFFCURVE",
"77 286 OFFCURVE",
"77 279 CURVE SMOOTH",
"77 247 OFFCURVE",
"106 225 OFFCURVE",
"148 225 CURVE SMOOTH",
"160 225 OFFCURVE",
"173 229 OFFCURVE"
);
}
);
};
layerId = "6E34CE51-C086-4FF0-804E-D019E96D60E0";
paths = (
{
closed = 1;
nodes = (
"201 239 CURVE",
"212 226 OFFCURVE",
"217 214 OFFCURVE",
"217 203 CURVE SMOOTH",
"217 182 OFFCURVE",
"197 159 OFFCURVE",
"150 129 CURVE SMOOTH",
"13 42 LINE SMOOTH",
"-10 27 OFFCURVE",
"-47 3 OFFCURVE",
"-47 -5 CURVE SMOOTH",
"-47 -8 OFFCURVE",
"-44 -11 OFFCURVE",
"-39 -11 CURVE SMOOTH",
"-37 -11 OFFCURVE",
"-37 -11 OFFCURVE",
"-26 -8 CURVE SMOOTH",
"7 0 OFFCURVE",
"43 4 OFFCURVE",
"82 9 CURVE SMOOTH",
"165 20 OFFCURVE",
"186 31 OFFCURVE",
"204 61 CURVE SMOOTH",
"231 106 OFFCURVE",
"260 222 OFFCURVE",
"260 293 CURVE SMOOTH",
"260 362 OFFCURVE",
"232 456 OFFCURVE",
"163 456 CURVE SMOOTH",
"145 456 OFFCURVE",
"126 450 OFFCURVE",
"107 400 CURVE SMOOTH",
"93 363 OFFCURVE",
"83 314 OFFCURVE",
"83 279 CURVE SMOOTH",
"83 238 OFFCURVE",
"97 225 OFFCURVE",
"143 225 CURVE SMOOTH",
"162 225 OFFCURVE",
"173 229 OFFCURVE"
);
}
);
width = 302;
}
);
note = VAOu1;
unicode = 0648;
},
{
glyphname = CH_YEu1;
lastChange = "2020-08-30 21:34:31 +0000";
layers = (
{
anchors = (
{
name = bottom;
position = "{259, -668}";
},
{
name = top;
position = "{200, 325}";
}
);
background = {
paths = (
{
closed = 1;
nodes = (
"533 448 OFFCURVE",
"535 471 OFFCURVE",
"535 490 CURVE SMOOTH",
"535 534 OFFCURVE",
"524 551 OFFCURVE",
"497 551 CURVE SMOOTH",
"458 551 OFFCURVE",
"402 501 OFFCURVE",
"363 430 CURVE SMOOTH",
"330 370 OFFCURVE",
"306 286 OFFCURVE",
"306 227 CURVE SMOOTH",
"306 165 OFFCURVE",
"337 122 OFFCURVE",
"387 112 CURVE SMOOTH",
"419 107 LINE SMOOTH",
"453 100 OFFCURVE",
"474 82 OFFCURVE",
"474 59 CURVE SMOOTH",
"474 25 OFFCURVE",
"431 -37 OFFCURVE",
"378 -78 CURVE SMOOTH",
"332 -114 OFFCURVE",
"279 -134 OFFCURVE",
"230 -134 CURVE SMOOTH",
"132 -134 OFFCURVE",
"73 -60 OFFCURVE",
"73 60 CURVE SMOOTH",
"73 101 OFFCURVE",
"83 172 OFFCURVE",
"98 210 CURVE",
"100 220 LINE SMOOTH",
"101 224 OFFCURVE",
"102 226 OFFCURVE",
"102 229 CURVE SMOOTH",
"102 234 OFFCURVE",
"96 239 OFFCURVE",
"90 239 CURVE SMOOTH",
"80 239 OFFCURVE",
"74 227 OFFCURVE",
"57 167 CURVE SMOOTH",
"39 102 OFFCURVE",
"28 36 OFFCURVE",
"28 -18 CURVE SMOOTH",
"28 -86 OFFCURVE",
"37 -132 OFFCURVE",
"57 -172 CURVE SMOOTH",
"89 -234 OFFCURVE",
"143 -269 OFFCURVE",
"207 -269 CURVE SMOOTH",
"318 -269 OFFCURVE",
"411 -175 OFFCURVE",
"462 -83 CURVE SMOOTH",
"497 -20 OFFCURVE",
"515 48 OFFCURVE",
"515 119 CURVE SMOOTH",
"515 165 OFFCURVE",
"507 229 OFFCURVE",
"453 239 CURVE SMOOTH",
"446 241 OFFCURVE",
"436 243 OFFCURVE",
"424 246 CURVE SMOOTH",
"374 255 OFFCURVE",
"353 273 OFFCURVE",
"353 303 CURVE SMOOTH",
"353 327 OFFCURVE",
"379 367 OFFCURVE",
"413 395 CURVE SMOOTH",
"440 418 OFFCURVE",
"469 429 OFFCURVE",
"497 429 CURVE SMOOTH",
"506 429 OFFCURVE",
"513 428 OFFCURVE",
"531 426 CURVE"
);
}
);
};
layerId = "6E34CE51-C086-4FF0-804E-D019E96D60E0";
paths = (
{
closed = 1;
nodes = (
"533 448 OFFCURVE",
"535 471 OFFCURVE",
"535 490 CURVE SMOOTH",
"535 534 OFFCURVE",
"524 551 OFFCURVE",
"498 551 CURVE SMOOTH",
"456 551 OFFCURVE",
"405 504 OFFCURVE",
"365 432 CURVE SMOOTH",
"330 370 OFFCURVE",
"306 289 OFFCURVE",
"306 228 CURVE SMOOTH",
"306 164 OFFCURVE",
"333 126 OFFCURVE",
"387 112 CURVE SMOOTH",
"421 103 OFFCURVE",
"474 104 OFFCURVE",
"474 58 CURVE SMOOTH",
"474 -17 OFFCURVE",
"337 -134 OFFCURVE",
"224 -134 CURVE SMOOTH",
"135 -134 OFFCURVE",
"73 -60 OFFCURVE",
"73 57 CURVE SMOOTH",
"73 137 OFFCURVE",
"102 209 OFFCURVE",
"102 229 CURVE SMOOTH",
"102 235 OFFCURVE",
"96 239 OFFCURVE",
"91 239 CURVE SMOOTH",
"63 239 OFFCURVE",
"28 59 OFFCURVE",
"28 -34 CURVE SMOOTH",
"28 -152 OFFCURVE",
"84 -269 OFFCURVE",
"207 -269 CURVE SMOOTH",
"365 -269 OFFCURVE",
"515 -73 OFFCURVE",
"515 122 CURVE SMOOTH",
"515 179 OFFCURVE",
"502 226 OFFCURVE",
"453 240 CURVE SMOOTH",
"421 249 OFFCURVE",
"353 253 OFFCURVE",
"353 299 CURVE SMOOTH",
"353 327 OFFCURVE",
"379 367 OFFCURVE",
"411 394 CURVE SMOOTH",
"440 418 OFFCURVE",
"470 429 OFFCURVE",
"497 429 CURVE SMOOTH",
"506 429 OFFCURVE",
"513 428 OFFCURVE",
"531 426 CURVE"
);
}
);
width = 577;
}
);
note = CH_YEu1;
unicode = 06CC;
},
{
glyphname = BARI_YEu1;
lastChange = "2020-08-19 20:22:40 +0000";
layers = (
{
anchors = (
{
name = bottom;
position = "{0, 0}";
},
{
name = top;
position = "{348, 366}";
}
);
background = {
paths = (
{
closed = 1;
nodes = (
"236 -8 LINE",
"269 -8 LINE SMOOTH",
"286 -8 OFFCURVE",
"303 -8 OFFCURVE",
"319 -7 CURVE SMOOTH",
"376 -4 LINE SMOOTH",
"437 0 OFFCURVE",
"443 0 OFFCURVE",
"500 5 CURVE SMOOTH",
"542 9 OFFCURVE",
"572 12 OFFCURVE",
"588 13 CURVE SMOOTH",
"678 23 OFFCURVE",
"754 32 OFFCURVE",
"841 58 CURVE SMOOTH",
"860 65 OFFCURVE",
"874 71 OFFCURVE",
"905 85 CURVE SMOOTH",
"935 98 LINE",
"965 111 LINE",
"970 114 OFFCURVE",
"979 118 OFFCURVE",
"990 124 CURVE SMOOTH",
"1008 133 LINE SMOOTH",
"1015 136 OFFCURVE",
"1018 138 OFFCURVE",
"1018 139 CURVE SMOOTH",
"1018 141 OFFCURVE",
"1017 141 OFFCURVE",
"1015 141 CURVE SMOOTH",
"1006 141 LINE SMOOTH",
"1001 141 OFFCURVE",
"996 141 OFFCURVE",
"989 140 CURVE",
"941 139 LINE",
"882 136 LINE",
"808 134 LINE",
"650 126 LINE",
"482 122 LINE SMOOTH",
"451 121 OFFCURVE",
"422 120 OFFCURVE",
"394 120 CURVE SMOOTH",
"280 120 OFFCURVE",
"220 125 OFFCURVE",
"173 136 CURVE SMOOTH",
"144 144 OFFCURVE",
"127 155 OFFCURVE",
"127 167 CURVE SMOOTH",
"127 172 OFFCURVE",
"130 178 OFFCURVE",
"135 183 CURVE SMOOTH",
"146 193 OFFCURVE",
"157 199 OFFCURVE",
"190 212 CURVE SMOOTH",
"198 215 OFFCURVE",
"208 220 OFFCURVE",
"220 225 CURVE SMOOTH",
"250 238 LINE SMOOTH",
"342 278 OFFCURVE",
"366 308 OFFCURVE",
"400 398 CURVE SMOOTH",
"402 403 OFFCURVE",
"403 406 OFFCURVE",
"403 409 CURVE SMOOTH",
"403 416 OFFCURVE",
"400 419 OFFCURVE",
"393 419 CURVE SMOOTH",
"388 419 OFFCURVE",
"384 415 OFFCURVE",
"375 400 CURVE SMOOTH",
"353 364 OFFCURVE",
"325 349 OFFCURVE",
"287 332 CURVE SMOOTH",
"254 318 LINE SMOOTH",
"212 299 OFFCURVE",
"158 273 OFFCURVE",
"128 236 CURVE",
"94 207 OFFCURVE",
"24 94 OFFCURVE",
"24 55 CURVE SMOOTH",
"24 15 OFFCURVE",
"83 -6 OFFCURVE",
"196 -7 CURVE SMOOTH"
);
}
);
};
layerId = "6E34CE51-C086-4FF0-804E-D019E96D60E0";
paths = (
{
closed = 1;
nodes = (
"142 -7 OFFCURVE",
"234 -7 CURVE SMOOTH",
"407 -7 OFFCURVE",
"720 16 OFFCURVE",
"842 59 CURVE SMOOTH",
"896 78 OFFCURVE",
"1018 136 OFFCURVE",
"1018 139 CURVE SMOOTH",
"1018 141 OFFCURVE",
"1017 141 OFFCURVE",
"1015 141 CURVE",
"451 121 LINE",
"343 118 OFFCURVE",
"127 120 OFFCURVE",
"127 167 CURVE SMOOTH",
"127 187 OFFCURVE",
"156 198 OFFCURVE",
"220 225 CURVE SMOOTH",
"310 263 OFFCURVE",
"370 295 OFFCURVE",
"400 398 CURVE SMOOTH",
"404 413 OFFCURVE",
"405 419 OFFCURVE",
"394 419 CURVE SMOOTH",
"387 419 OFFCURVE",
"385 416 OFFCURVE",
"375 400 CURVE SMOOTH",
"350 362 OFFCURVE",
"332 352 OFFCURVE",
"287 332 CURVE SMOOTH",
"214 299 OFFCURVE",
"167 277 OFFCURVE",
"128 236 CURVE SMOOTH",
"87 192 OFFCURVE",
"24 93 OFFCURVE",
"24 52 CURVE SMOOTH",
"24 -2 OFFCURVE"
);
}
);
width = 1036;
}
);
note = BARI_YEu1;
unicode = 06D2;
},
{
glyphname = ONE;
lastChange = "2020-08-19 20:27:49 +0000";
layers = (
{
background = {
paths = (
{
closed = 1;
nodes = (
"298 416 LINE SMOOTH",
"298 508 OFFCURVE",
"285 590 OFFCURVE",
"271 590 CURVE SMOOTH",
"268 590 OFFCURVE",
"268 590 OFFCURVE",
"263 584 CURVE SMOOTH",
"256 575 LINE SMOOTH",
"242 558 OFFCURVE",
"211 510 OFFCURVE",
"204 491 CURVE",
"201 486 OFFCURVE",
"200 483 OFFCURVE",
"200 481 CURVE SMOOTH",
"200 480 OFFCURVE",
"201 477 OFFCURVE",
"201 474 CURVE",
"204 462 LINE SMOOTH",
"207 450 OFFCURVE",
"211 420 OFFCURVE",
"214 380 CURVE SMOOTH",
"216 361 OFFCURVE",
"217 344 OFFCURVE",
"218 330 CURVE SMOOTH",
"222 227 LINE",
"223 175 LINE",
"223 71 LINE",
"221 38 LINE SMOOTH",
"221 27 OFFCURVE",
"220 20 OFFCURVE",
"219 17 CURVE SMOOTH",
"216 0 LINE",
"216 -4 LINE",
"217 -5 OFFCURVE",
"219 -6 OFFCURVE",
"221 -7 CURVE",
"223 -7 LINE SMOOTH",
"227 -7 OFFCURVE",
"230 -5 OFFCURVE",
"237 4 CURVE SMOOTH",
"246 16 LINE SMOOTH",
"248 18 OFFCURVE",
"252 24 OFFCURVE",
"257 33 CURVE SMOOTH",
"267 48 OFFCURVE",
"271 56 OFFCURVE",
"272 57 CURVE",
"277 66 OFFCURVE",
"284 81 OFFCURVE",
"287 89 CURVE",
"290 103 LINE SMOOTH",
"292 120 OFFCURVE",
"293 135 OFFCURVE",
"295 177 CURVE SMOOTH",
"297 227 OFFCURVE",
"298 265 OFFCURVE",
"298 318 CURVE SMOOTH"
);
}
);
};
layerId = "6E34CE51-C086-4FF0-804E-D019E96D60E0";
paths = (
{
closed = 1;
nodes = (
"301 456 OFFCURVE",
"286 590 OFFCURVE",
"270 590 CURVE SMOOTH",
"268 590 OFFCURVE",
"267 589 OFFCURVE",
"263 584 CURVE SMOOTH",
"240 556 OFFCURVE",
"207 506 OFFCURVE",
"200 481 CURVE",
"214 405 OFFCURVE",
"223 378 OFFCURVE",
"223 123 CURVE SMOOTH",
"223 41 OFFCURVE",
"224 59 OFFCURVE",
"216 1 CURVE SMOOTH",
"215 -8 OFFCURVE",
"222 -8 OFFCURVE",
"224 -8 CURVE SMOOTH",
"240 -8 OFFCURVE",
"281 61 OFFCURVE",
"289 103 CURVE SMOOTH",
"294 130 OFFCURVE",
"301 212 OFFCURVE",
"301 311 CURVE SMOOTH"
);
}
);
width = 500;
}
);
note = ONE;
unicode = 0031;
category = Number;
},
{
glyphname = NINE;
lastChange = "2020-08-19 20:32:17 +0000";
layers = (
{
anchors = (
{
name = bottom;
position = "{0, 0}";
},
{
name = top;
position = "{0, 0}";
}
);
background = {
paths = (
{
closed = 1;
nodes = (
"287 269 LINE",
"290 191 LINE",
"288 112 LINE SMOOTH",
"287 82 OFFCURVE",
"284 45 OFFCURVE",
"279 28 CURVE SMOOTH",
"274 4 LINE",
"274 2 OFFCURVE",
"274 2 OFFCURVE",
"273 1 CURVE",
"274 0 OFFCURVE",
"275 -3 OFFCURVE",
"275 -4 CURVE",
"276 -5 OFFCURVE",
"278 -5 OFFCURVE",
"279 -5 CURVE SMOOTH",
"283 -5 OFFCURVE",
"289 -2 OFFCURVE",
"293 4 CURVE SMOOTH",
"303 17 LINE",
"312 26 OFFCURVE",
"323 43 OFFCURVE",
"329 55 CURVE SMOOTH",
"337 69 LINE SMOOTH",
"344 80 OFFCURVE",
"345 86 OFFCURVE",
"348 106 CURVE SMOOTH",
"355 165 OFFCURVE",
"355 225 OFFCURVE",
"355 284 CURVE SMOOTH",
"355 340 LINE SMOOTH",
"354 365 OFFCURVE",
"354 383 OFFCURVE",
"354 394 CURVE SMOOTH",
"350 459 OFFCURVE",
"340 598 OFFCURVE",
"254 598 CURVE SMOOTH",
"162 598 OFFCURVE",
"83 432 OFFCURVE",
"83 353 CURVE SMOOTH",
"83 297 OFFCURVE",
"131 254 OFFCURVE",
"195 254 CURVE SMOOTH",
"223 254 OFFCURVE",
"265 265 OFFCURVE",
"287 276 CURVE"
);
},
{
closed = 1;
nodes = (
"285 381 LINE",
"269 377 LINE",
"267 377 OFFCURVE",
"264 376 OFFCURVE",
"260 376 CURVE SMOOTH",
"245 375 LINE",
"241 375 LINE SMOOTH",
"188 375 OFFCURVE",
"145 403 OFFCURVE",
"145 438 CURVE SMOOTH",
"145 451 OFFCURVE",
"153 463 OFFCURVE",
"169 474 CURVE SMOOTH",
"182 484 OFFCURVE",
"196 489 OFFCURVE",
"211 489 CURVE SMOOTH",
"244 489 OFFCURVE",
"269 461 OFFCURVE",
"279 411 CURVE SMOOTH"
);
}
);
};
layerId = "6E34CE51-C086-4FF0-804E-D019E96D60E0";
paths = (
{
closed = 1;
nodes = (
"288 112 LINE SMOOTH",
"288 81 OFFCURVE",
"274 8 OFFCURVE",
"274 2 CURVE SMOOTH",
"274 0 OFFCURVE",
"276 -5 OFFCURVE",
"279 -5 CURVE SMOOTH",
"282 -5 OFFCURVE",
"287 -2 OFFCURVE",
"294 4 CURVE SMOOTH",
"317 24 OFFCURVE",
"338 65 OFFCURVE",
"347 106 CURVE SMOOTH",
"355 142 OFFCURVE",
"357 181 OFFCURVE",
"353 394 CURVE SMOOTH",
"352 453 OFFCURVE",
"341 598 OFFCURVE",
"254 598 CURVE SMOOTH",
"162 598 OFFCURVE",
"83 432 OFFCURVE",
"83 353 CURVE SMOOTH",
"83 297 OFFCURVE",
"131 254 OFFCURVE",
"193 254 CURVE SMOOTH",
"224 254 OFFCURVE",
"265 265 OFFCURVE",
"287 276 CURVE"
);
},
{
closed = 1;
nodes = (
"285 381 CURVE",
"263 375 OFFCURVE",
"226 377 OFFCURVE",
"210 379 CURVE SMOOTH",
"178 383 OFFCURVE",
"145 404 OFFCURVE",
"145 434 CURVE SMOOTH",
"145 466 OFFCURVE",
"179 489 OFFCURVE",
"211 489 CURVE SMOOTH",
"252 489 OFFCURVE",
"270 457 OFFCURVE"
);
}
);
width = 500;
}
);
note = NINE;
unicode = 0039;
category = Number;
},
{
glyphname = ABR_ONE;
lastChange = "2020-08-21 08:44:15 +0000";
layers = (
{
anchors = (
{
name = bottom;
position = "{0, 0}";
},
{
name = top;
position = "{0, 0}";
}
);
background = {
paths = (
{
closed = 1;
nodes = (
"48 430 OFFCURVE",
"42 441 OFFCURVE",
"37 452 CURVE SMOOTH",
"31 467 LINE",
"27 478 LINE SMOOTH",
"26 482 OFFCURVE",
"26 482 OFFCURVE",
"24 485 CURVE",
"22 485 OFFCURVE",
"21 482 OFFCURVE",
"17 473 CURVE SMOOTH",
"9 455 LINE SMOOTH",
"6 449 OFFCURVE",
"-2 424 OFFCURVE",
"-2 417 CURVE",
"-3 416 OFFCURVE",
"-3 414 OFFCURVE",
"-3 412 CURVE SMOOTH",
"-3 406 OFFCURVE",
"-2 400 OFFCURVE",
"0 394 CURVE SMOOTH",
"7 376 LINE SMOOTH",
"19 346 OFFCURVE",
"24 304 OFFCURVE",
"24 256 CURVE SMOOTH",
"24 231 LINE",
"23 213 LINE",
"23 193 LINE",
"22 191 OFFCURVE",
"22 190 OFFCURVE",
"22 189 CURVE SMOOTH",
"22 187 OFFCURVE",
"23 185 OFFCURVE",
"24 185 CURVE SMOOTH",
"26 185 OFFCURVE",
"28 188 OFFCURVE",
"31 194 CURVE SMOOTH",
"34 200 LINE SMOOTH",
"52 235 OFFCURVE",
"59 268 OFFCURVE",
"59 309 CURVE SMOOTH",
"59 315 OFFCURVE",
"59 317 OFFCURVE",
"58 334 CURVE SMOOTH",
"58 343 LINE",
"69 336 OFFCURVE",
"78 333 OFFCURVE",
"92 333 CURVE SMOOTH",
"129 333 OFFCURVE",
"178 353 OFFCURVE",
"204 377 CURVE SMOOTH",
"234 405 OFFCURVE",
"258 456 OFFCURVE",
"258 489 CURVE SMOOTH",
"258 519 OFFCURVE",
"239 539 OFFCURVE",
"211 539 CURVE SMOOTH",
"156 539 OFFCURVE",
"99 479 OFFCURVE",
"68 436 CURVE SMOOTH",
"64 430 OFFCURVE",
"62 426 OFFCURVE",
"59 416 CURVE"
);
},
{
closed = 1;
nodes = (
"102 453 OFFCURVE",
"145 482 OFFCURVE",
"176 482 CURVE SMOOTH",
"197 482 OFFCURVE",
"217 462 OFFCURVE",
"217 442 CURVE SMOOTH",
"217 413 OFFCURVE",
"135 402 OFFCURVE",
"113 402 CURVE SMOOTH",
"99 402 OFFCURVE",
"85 405 OFFCURVE",
"70 411 CURVE"
);
}
);
};
layerId = "6E34CE51-C086-4FF0-804E-D019E96D60E0";
paths = (
{
closed = 1;
nodes = (
"48 430 OFFCURVE",
"42 441 OFFCURVE",
"37 452 CURVE SMOOTH",
"28 473 OFFCURVE",
"27 485 OFFCURVE",
"24 485 CURVE",
"22 485 OFFCURVE",
"21 482 OFFCURVE",
"17 473 CURVE SMOOTH",
"9 456 OFFCURVE",
"-3 423 OFFCURVE",
"-3 412 CURVE SMOOTH",
"-3 402 OFFCURVE",
"-1 398 OFFCURVE",
"7 376 CURVE SMOOTH",
"19 346 OFFCURVE",
"24 304 OFFCURVE",
"24 256 CURVE SMOOTH",
"24 231 LINE",
"22 196 OFFCURVE",
"22 185 OFFCURVE",
"24 185 CURVE SMOOTH",
"26 185 OFFCURVE",
"28 187 OFFCURVE",
"34 200 CURVE SMOOTH",
"57 245 OFFCURVE",
"60 282 OFFCURVE",
"58 343 CURVE",
"69 336 OFFCURVE",
"78 333 OFFCURVE",
"92 333 CURVE SMOOTH",
"176 333 OFFCURVE",
"258 409 OFFCURVE",
"258 489 CURVE SMOOTH",
"258 519 OFFCURVE",
"239 539 OFFCURVE",
"211 539 CURVE SMOOTH",
"159 539 OFFCURVE",
"74 465 OFFCURVE",
"59 416 CURVE"
);
},
{
closed = 1;
nodes = (
"102 453 OFFCURVE",
"145 482 OFFCURVE",
"176 482 CURVE SMOOTH",
"197 482 OFFCURVE",
"217 462 OFFCURVE",
"217 442 CURVE SMOOTH",
"217 413 OFFCURVE",
"135 402 OFFCURVE",
"113 402 CURVE SMOOTH",
"99 402 OFFCURVE",
"85 405 OFFCURVE",
"70 411 CURVE"
);
}
);
width = 280;
}
);
note = ABR_ONE;
unicode = 06F1;
},
{
glyphname = ABR_TWO;
lastChange = "2020-08-21 08:46:08 +0000";
layers = (
{
anchors = (
{
name = bottom;
position = "{0, 0}";
},
{
name = top;
position = "{0, 0}";
}
);
background = {
paths = (
{
closed = 1;
nodes = (
"84 360 OFFCURVE",
"90 358 OFFCURVE",
"105 358 CURVE SMOOTH",
"144 358 OFFCURVE",
"193 380 OFFCURVE",
"220 409 CURVE SMOOTH",
"245 437 OFFCURVE",
"265 481 OFFCURVE",
"265 507 CURVE SMOOTH",
"265 541 OFFCURVE",
"244 562 OFFCURVE",
"212 562 CURVE SMOOTH",
"169 562 OFFCURVE",
"98 498 OFFCURVE",
"78 459 CURVE SMOOTH",
"70 444 LINE",
"59 453 OFFCURVE",
"50 469 OFFCURVE",
"37 508 CURVE",
"36 509 OFFCURVE",
"34 510 OFFCURVE",
"33 510 CURVE",
"32 508 OFFCURVE",
"31 507 OFFCURVE",
"31 505 CURVE",
"17 478 OFFCURVE",
"8 449 OFFCURVE",
"8 436 CURVE SMOOTH",
"8 432 OFFCURVE",
"9 426 OFFCURVE",
"11 421 CURVE",
"11 419 OFFCURVE",
"13 414 OFFCURVE",
"16 407 CURVE SMOOTH",
"32 363 OFFCURVE",
"35 323 OFFCURVE",
"35 276 CURVE SMOOTH",
"35 253 OFFCURVE",
"34 226 OFFCURVE",
"33 215 CURVE",
"32 214 LINE",
"32 211 OFFCURVE",
"33 209 OFFCURVE",
"35 209 CURVE SMOOTH",
"36 209 OFFCURVE",
"37 210 OFFCURVE",
"38 212 CURVE SMOOTH",
"39 213 OFFCURVE",
"40 215 OFFCURVE",
"41 218 CURVE",
"62 254 OFFCURVE",
"70 289 OFFCURVE",
"70 344 CURVE SMOOTH",
"70 353 OFFCURVE",
"70 356 OFFCURVE",
"69 366 CURVE"
);
},
{
closed = 1;
nodes = (
"176 631 LINE",
"163 633 OFFCURVE",
"146 644 OFFCURVE",
"123 668 CURVE SMOOTH",
"119 672 LINE",
"113 663 OFFCURVE",
"89 627 OFFCURVE",
"89 617 CURVE SMOOTH",
"89 603 OFFCURVE",
"121 581 OFFCURVE",
"134 581 CURVE SMOOTH",
"142 581 OFFCURVE",
"146 585 OFFCURVE",
"157 600 CURVE SMOOTH"
);
},
{
closed = 1;
nodes = (
"316 407 LINE SMOOTH",
"315 369 OFFCURVE",
"306 356 OFFCURVE",
"266 328 CURVE SMOOTH",
"205 288 LINE SMOOTH",
"187 276 OFFCURVE",
"159 256 OFFCURVE",
"145 245 CURVE SMOOTH",
"138 240 OFFCURVE",
"133 237 OFFCURVE",
"131 236 CURVE",
"128 233 OFFCURVE",
"126 231 OFFCURVE",
"126 229 CURVE SMOOTH",
"126 228 OFFCURVE",
"127 227 OFFCURVE",
"129 227 CURVE SMOOTH",
"134 227 LINE",
"135 228 OFFCURVE",
"137 228 OFFCURVE",
"139 228 CURVE",
"142 229 OFFCURVE",
"146 230 OFFCURVE",
"153 231 CURVE SMOOTH",
"177 236 LINE",
"198 239 LINE",
"256 249 LINE SMOOTH",
"293 257 OFFCURVE",
"308 273 OFFCURVE",
"322 308 CURVE SMOOTH",
"340 353 OFFCURVE",
"352 419 OFFCURVE",
"353 482 CURVE SMOOTH",
"353 502 LINE SMOOTH",
"353 519 OFFCURVE",
"355 536 OFFCURVE",
"356 544 CURVE",
"357 545 OFFCURVE",
"357 545 OFFCURVE",
"357 546 CURVE SMOOTH",
"357 548 OFFCURVE",
"356 549 OFFCURVE",
"355 549 CURVE SMOOTH",
"354 549 OFFCURVE",
"353 548 OFFCURVE",
"353 547 CURVE",
"352 546 LINE",
"343 533 LINE",
"340 527 OFFCURVE",
"337 522 OFFCURVE",
"334 517 CURVE SMOOTH",
"322 494 OFFCURVE",
"319 483 OFFCURVE",
"318 453 CURVE SMOOTH"
);
},
{
closed = 1;
nodes = (
"119 482 OFFCURVE",
"156 507 OFFCURVE",
"186 507 CURVE SMOOTH",
"209 507 OFFCURVE",
"228 490 OFFCURVE",
"228 469 CURVE SMOOTH",
"228 439 OFFCURVE",
"150 427 OFFCURVE",
"127 427 CURVE SMOOTH",
"107 427 OFFCURVE",
"95 429 OFFCURVE",
"80 437 CURVE"
);
}
);
};
layerId = "6E34CE51-C086-4FF0-804E-D019E96D60E0";
paths = (
{
closed = 1;
nodes = (
"84 360 OFFCURVE",
"90 358 OFFCURVE",
"105 358 CURVE SMOOTH",
"144 358 OFFCURVE",
"193 380 OFFCURVE",
"220 409 CURVE SMOOTH",
"245 437 OFFCURVE",
"265 481 OFFCURVE",
"265 507 CURVE SMOOTH",
"265 541 OFFCURVE",
"244 562 OFFCURVE",
"212 562 CURVE SMOOTH",
"173 562 OFFCURVE",
"105 510 OFFCURVE",
"70 444 CURVE",
"65 448 OFFCURVE",
"38 492 OFFCURVE",
"36 509 CURVE",
"24 501 OFFCURVE",
"8 455 OFFCURVE",
"8 436 CURVE",
"8 422 OFFCURVE",
"35 351 OFFCURVE",
"35 276 CURVE SMOOTH",
"35 253 OFFCURVE",
"34 226 OFFCURVE",
"33 215 CURVE",
"32 214 LINE",
"32 211 OFFCURVE",
"33 209 OFFCURVE",
"35 209 CURVE SMOOTH",
"36 209 OFFCURVE",
"37 210 OFFCURVE",
"38 212 CURVE SMOOTH",
"39 213 OFFCURVE",
"40 215 OFFCURVE",
"41 218 CURVE",
"62 254 OFFCURVE",
"70 289 OFFCURVE",
"70 344 CURVE SMOOTH",
"70 353 OFFCURVE",
"70 356 OFFCURVE",
"69 366 CURVE"
);
},
{
closed = 1;
nodes = (
"176 631 LINE",
"163 633 OFFCURVE",
"145 646 OFFCURVE",
"119 672 CURVE",
"113 663 OFFCURVE",
"89 627 OFFCURVE",
"89 617 CURVE SMOOTH",
"89 603 OFFCURVE",
"121 581 OFFCURVE",
"134 581 CURVE SMOOTH",
"142 581 OFFCURVE",
"147 584 OFFCURVE",
"157 600 CURVE SMOOTH"
);
},
{
closed = 1;
nodes = (
"316 407 LINE SMOOTH",
"314 369 OFFCURVE",
"307 355 OFFCURVE",
"266 328 CURVE SMOOTH",
"206 288 OFFCURVE",
"167 262 OFFCURVE",
"145 245 CURVE SMOOTH",
"137 239 OFFCURVE",
"126 234 OFFCURVE",
"126 229 CURVE SMOOTH",
"126 228 OFFCURVE",
"127 227 OFFCURVE",
"129 227 CURVE SMOOTH",
"148 229 OFFCURVE",
"148 230 OFFCURVE",
"256 249 CURVE",
"293 255 OFFCURVE",
"308 273 OFFCURVE",
"322 308 CURVE SMOOTH",
"340 353 OFFCURVE",
"353 419 OFFCURVE",
"353 482 CURVE SMOOTH",
"353 522 OFFCURVE",
"357 543 OFFCURVE",
"357 546 CURVE SMOOTH",
"357 548 OFFCURVE",
"356 549 OFFCURVE",
"355 549 CURVE SMOOTH",
"353 549 OFFCURVE",
"343 533 OFFCURVE",
"334 517 CURVE SMOOTH",
"322 494 OFFCURVE",
"319 483 OFFCURVE",
"318 453 CURVE SMOOTH"
);
},
{
closed = 1;
nodes = (
"119 482 OFFCURVE",
"156 507 OFFCURVE",
"186 507 CURVE SMOOTH",
"209 507 OFFCURVE",
"228 490 OFFCURVE",
"228 469 CURVE SMOOTH",
"228 439 OFFCURVE",
"150 427 OFFCURVE",
"127 427 CURVE SMOOTH",
"107 427 OFFCURVE",
"95 429 OFFCURVE",
"80 437 CURVE"
);
}
);
width = 379;
}
);
note = ABR_TWO;
unicode = 06F2;
},
{
glyphname = ABR_THREE;
lastChange = "2020-08-21 11:58:42 +0000";
layers = (
{
anchors = (
{
name = bottom;
position = "{0, 0}";
},
{
name = top;
position = "{0, 0}";
}
);
background = {
paths = (
{
closed = 1;
nodes = (
"80 402 OFFCURVE",
"77 402 OFFCURVE",
"75 402 CURVE SMOOTH",
"52 402 OFFCURVE",
"43 413 OFFCURVE",
"27 458 CURVE SMOOTH",
"21 476 LINE SMOOTH",
"20 479 OFFCURVE",
"19 481 OFFCURVE",
"18 481 CURVE SMOOTH",
"17 481 OFFCURVE",
"16 479 OFFCURVE",
"14 476 CURVE SMOOTH",
"7 462 LINE SMOOTH",
"-1 447 OFFCURVE",
"-9 423 OFFCURVE",
"-9 414 CURVE SMOOTH",
"-9 409 OFFCURVE",
"-6 398 OFFCURVE",
"-2 388 CURVE SMOOTH",
"5 370 LINE SMOOTH",
"14 345 OFFCURVE",
"17 330 OFFCURVE",
"20 309 CURVE",
"20 303 OFFCURVE",
"21 295 OFFCURVE",
"22 283 CURVE SMOOTH",
"22 272 OFFCURVE",
"23 264 OFFCURVE",
"23 259 CURVE SMOOTH",
"23 190 LINE SMOOTH",
"23 185 OFFCURVE",
"24 182 OFFCURVE",
"27 182 CURVE SMOOTH",
"30 182 OFFCURVE",
"36 195 OFFCURVE",
"42 215 CURVE SMOOTH",
"52 245 OFFCURVE",
"55 263 OFFCURVE",
"56 291 CURVE SMOOTH",
"57 312 LINE",
"57 326 LINE SMOOTH",
"57 330 OFFCURVE",
"57 333 OFFCURVE",
"56 341 CURVE",
"65 338 OFFCURVE",
"68 337 OFFCURVE",
"76 337 CURVE SMOOTH",
"118 337 OFFCURVE",
"208 374 OFFCURVE",
"239 402 CURVE",
"249 413 OFFCURVE",
"260 433 OFFCURVE",
"270 461 CURVE SMOOTH",
"272 465 OFFCURVE",
"272 468 OFFCURVE",
"272 470 CURVE SMOOTH",
"272 472 OFFCURVE",
"272 472 OFFCURVE",
"271 472 CURVE SMOOTH",
"270 472 OFFCURVE",
"269 472 OFFCURVE",
"266 469 CURVE SMOOTH",
"239 446 OFFCURVE",
"201 429 OFFCURVE",
"174 429 CURVE SMOOTH",
"143 429 OFFCURVE",
"115 448 OFFCURVE",
"115 469 CURVE SMOOTH",
"115 484 OFFCURVE",
"132 494 OFFCURVE",
"155 494 CURVE SMOOTH",
"161 494 OFFCURVE",
"168 493 OFFCURVE",
"176 491 CURVE SMOOTH",
"190 488 LINE SMOOTH",
"193 487 OFFCURVE",
"196 487 OFFCURVE",
"199 487 CURVE SMOOTH",
"209 487 OFFCURVE",
"214 495 OFFCURVE",
"214 509 CURVE SMOOTH",
"214 531 OFFCURVE",
"201 544 OFFCURVE",
"179 544 CURVE SMOOTH",
"129 544 OFFCURVE",
"78 477 OFFCURVE",
"78 430 CURVE SMOOTH",
"78 421 OFFCURVE",
"80 415 OFFCURVE",
"84 403 CURVE"
);
}
);
};
layerId = "6E34CE51-C086-4FF0-804E-D019E96D60E0";
paths = (
{
closed = 1;
nodes = (
"53 395 OFFCURVE",
"40 419 OFFCURVE",
"27 458 CURVE SMOOTH",
"21 476 LINE SMOOTH",
"20 479 OFFCURVE",
"19 481 OFFCURVE",
"18 481 CURVE SMOOTH",
"17 481 OFFCURVE",
"16 479 OFFCURVE",
"14 476 CURVE SMOOTH",
"1 451 OFFCURVE",
"-9 427 OFFCURVE",
"-9 414 CURVE",
"-9 409 OFFCURVE",
"-5 395 OFFCURVE",
"5 370 CURVE SMOOTH",
"23 321 OFFCURVE",
"23 294 OFFCURVE",
"23 190 CURVE SMOOTH",
"23 185 OFFCURVE",
"24 182 OFFCURVE",
"27 182 CURVE SMOOTH",
"37 182 OFFCURVE",
"55 260 OFFCURVE",
"56 291 CURVE SMOOTH",
"57 327 OFFCURVE",
"57 330 OFFCURVE",
"56 341 CURVE",
"65 338 OFFCURVE",
"68 337 OFFCURVE",
"76 337 CURVE SMOOTH",
"118 337 OFFCURVE",
"207 374 OFFCURVE",
"239 402 CURVE",
"250 414 OFFCURVE",
"272 457 OFFCURVE",
"272 470 CURVE SMOOTH",
"272 472 OFFCURVE",
"272 472 OFFCURVE",
"271 472 CURVE SMOOTH",
"270 472 OFFCURVE",
"269 472 OFFCURVE",
"266 469 CURVE SMOOTH",
"239 446 OFFCURVE",
"201 429 OFFCURVE",
"174 429 CURVE SMOOTH",
"143 429 OFFCURVE",
"115 448 OFFCURVE",
"115 469 CURVE SMOOTH",
"115 484 OFFCURVE",
"132 494 OFFCURVE",
"155 494 CURVE SMOOTH",
"160 494 OFFCURVE",
"195 487 OFFCURVE",
"199 487 CURVE SMOOTH",
"209 487 OFFCURVE",
"214 495 OFFCURVE",
"214 509 CURVE SMOOTH",
"214 531 OFFCURVE",
"201 544 OFFCURVE",
"179 544 CURVE SMOOTH",
"129 544 OFFCURVE",
"78 477 OFFCURVE",
"78 430 CURVE SMOOTH",
"78 421 OFFCURVE",
"80 415 OFFCURVE",
"84 403 CURVE"
);
}
);
width = 291;
}
);
note = ABR_THREE;
unicode = 06F3;
},
{
color = 0;
glyphname = ABR_FOUR;
lastChange = "2020-08-19 19:40:00 +0000";
layers = (
{
anchors = (
{
name = bottom;
position = "{0, 0}";
},
{
name = top;
position = "{0, 0}";
}
);
layerId = "6E34CE51-C086-4FF0-804E-D019E96D60E0";
paths = (
{
closed = 1;
nodes = (
"146 430 OFFCURVE",
"103 404 OFFCURVE",
"71 359 CURVE SMOOTH",
"48 326 OFFCURVE",
"28 269 OFFCURVE",
"28 232 CURVE SMOOTH",
"28 225 LINE SMOOTH",
"28 217 OFFCURVE",
"30 214 OFFCURVE",
"35 214 CURVE SMOOTH",
"40 214 OFFCURVE",
"42 217 OFFCURVE",
"43 227 CURVE SMOOTH",
"54 294 OFFCURVE",
"97 347 OFFCURVE",
"171 383 CURVE SMOOTH",
"211 403 LINE SMOOTH",
"221 408 OFFCURVE",
"225 411 OFFCURVE",
"226 411 CURVE",
"236 417 LINE SMOOTH",
"245 423 OFFCURVE",
"254 431 OFFCURVE",
"262 442 CURVE SMOOTH",
"278 461 OFFCURVE",
"288 478 OFFCURVE",
"288 488 CURVE SMOOTH",
"288 522 OFFCURVE",
"172 526 OFFCURVE",
"150 526 CURVE SMOOTH",
"98 526 OFFCURVE",
"79 511 OFFCURVE",
"48 474 CURVE SMOOTH",
"41 466 OFFCURVE",
"37 460 OFFCURVE",
"34 455 CURVE SMOOTH",
"26 441 LINE SMOOTH",
"21 433 OFFCURVE",
"19 430 OFFCURVE",
"19 426 CURVE SMOOTH",
"19 422 OFFCURVE",
"22 419 OFFCURVE",
"26 419 CURVE SMOOTH",
"28 419 OFFCURVE",
"32 421 OFFCURVE",
"34 424 CURVE",
"43 433 LINE SMOOTH",
"62 454 OFFCURVE",
"82 464 OFFCURVE",
"107 464 CURVE SMOOTH",
"127 464 OFFCURVE",
"170 459 OFFCURVE",
"194 454 CURVE"
);
},
{
closed = 1;
nodes = (
"334 407 LINE SMOOTH",
"333 379 OFFCURVE",
"328 365 OFFCURVE",
"313 351 CURVE SMOOTH",
"300 340 OFFCURVE",
"283 327 OFFCURVE",
"256 309 CURVE SMOOTH",
"223 288 LINE SMOOTH",
"205 276 OFFCURVE",
"177 256 OFFCURVE",
"163 245 CURVE SMOOTH",
"156 240 OFFCURVE",
"151 237 OFFCURVE",
"149 236 CURVE SMOOTH",
"145 233 OFFCURVE",
"144 231 OFFCURVE",
"144 229 CURVE SMOOTH",
"144 228 OFFCURVE",
"145 227 OFFCURVE",
"147 227 CURVE SMOOTH",
"152 227 LINE",
"153 228 OFFCURVE",
"154 228 OFFCURVE",
"157 228 CURVE",
"160 229 OFFCURVE",
"164 230 OFFCURVE",
"171 231 CURVE SMOOTH",
"195 236 LINE",
"216 239 LINE",
"274 249 LINE SMOOTH",
"287 252 OFFCURVE",
"299 257 OFFCURVE",
"309 263 CURVE SMOOTH",
"357 296 OFFCURVE",
"369 431 OFFCURVE",
"370 482 CURVE SMOOTH",
"371 502 LINE SMOOTH",
"371 519 OFFCURVE",
"372 536 OFFCURVE",
"374 544 CURVE SMOOTH",
"374 545 OFFCURVE",
"374 545 OFFCURVE",
"375 546 CURVE",
"375 548 OFFCURVE",
"374 549 OFFCURVE",
"372 549 CURVE",
"370 547 LINE",
"369 546 LINE SMOOTH",
"367 544 OFFCURVE",
"354 521 OFFCURVE",
"352 517 CURVE SMOOTH",
"340 494 OFFCURVE",
"337 483 OFFCURVE",
"336 453 CURVE SMOOTH"
);
}
);
width = 397;
}
);
note = ABR_FOUR;
unicode = 06F4;
},
{
glyphname = CLOSE_BRACKET;
lastChange = "2020-08-27 15:47:24 +0000";
layers = (
{
anchors = (
{
name = bottom;
position = "{0, 0}";
},
{
name = top;
position = "{0, 0}";
}
);
layerId = "6E34CE51-C086-4FF0-804E-D019E96D60E0";
paths = (
{
closed = 1;
nodes = (
"267 735 CURVE SMOOTH",
"127 622 OFFCURVE",
"42 449 OFFCURVE",
"42 280 CURVE SMOOTH",
"42 100 OFFCURVE",
"125 -55 OFFCURVE",
"287 -189 CURVE SMOOTH",
"299 -198 OFFCURVE",
"305 -202 OFFCURVE",
"308 -202 CURVE SMOOTH",
"312 -202 OFFCURVE",
"314 -200 OFFCURVE",
"314 -197 CURVE SMOOTH",
"314 -194 OFFCURVE",
"313 -191 OFFCURVE",
"309 -187 CURVE SMOOTH",
"188 -48 OFFCURVE",
"133 103 OFFCURVE",
"133 287 CURVE SMOOTH",
"133 443 OFFCURVE",
"188 615 OFFCURVE",
"286 722 CURVE SMOOTH",
"302 743 OFFCURVE",
"312 754 OFFCURVE",
"312 757 CURVE SMOOTH",
"312 761 OFFCURVE",
"310 764 OFFCURVE",
"307 764 CURVE SMOOTH",
"303 764 OFFCURVE",
"299 762 OFFCURVE"
);
}
);
width = 329;
}
);
note = CLOSE_BRACKET;
unicode = 0028;
category = Punctuation;
},
{
color = 0;
glyphname = OPEN_BRACKET;
lastChange = "2020-08-27 15:53:20 +0000";
layers = (
{
anchors = (
{
name = bottom;
position = "{0, 0}";
},
{
name = top;
position = "{0, 0}";
}
);
layerId = "6E34CE51-C086-4FF0-804E-D019E96D60E0";
paths = (
{
closed = 1;
nodes = (
"41 722 CURVE SMOOTH",
"141 593 OFFCURVE",
"194 449 OFFCURVE",
"194 287 CURVE SMOOTH",
"194 111 OFFCURVE",
"148 -31 OFFCURVE",
"33 -169 CURVE SMOOTH",
"18 -187 OFFCURVE",
"13 -191 OFFCURVE",
"13 -197 CURVE SMOOTH",
"13 -200 OFFCURVE",
"15 -202 OFFCURVE",
"19 -202 CURVE SMOOTH",
"25 -202 OFFCURVE",
"32 -196 OFFCURVE",
"62 -170 CURVE SMOOTH",
"201 -50 OFFCURVE",
"285 112 OFFCURVE",
"285 280 CURVE SMOOTH",
"285 449 OFFCURVE",
"199 622 OFFCURVE",
"60 735 CURVE SMOOTH",
"39 752 LINE SMOOTH",
"28 761 OFFCURVE",
"24 764 OFFCURVE",
"20 764 CURVE SMOOTH",
"17 764 OFFCURVE",
"14 761 OFFCURVE",
"14 757 CURVE SMOOTH",
"14 756 OFFCURVE",
"25 743 OFFCURVE"
);
}
);
width = 326;
}
);
note = OPEN_BRACKET;
unicode = 0029;
category = Punctuation;
},
{
glyphname = FULLPOINT;
lastChange = "2020-08-20 06:57:47 +0000";
layers = (
{
background = {
paths = (
{
closed = 1;
nodes = (
"97 128 LINE",
"96 127 OFFCURVE",
"95 127 OFFCURVE",
"94 126 CURVE SMOOTH",
"88 118 LINE",
"82 109 LINE SMOOTH",
"72 96 OFFCURVE",
"68 87 OFFCURVE",
"68 82 CURVE SMOOTH",
"68 55 OFFCURVE",
"259 8 OFFCURVE",
"296 4 CURVE SMOOTH",
"314 2 OFFCURVE",
"347 0 OFFCURVE",
"364 0 CURVE SMOOTH",
"449 0 OFFCURVE",
"487 38 OFFCURVE",
"520 112 CURVE SMOOTH",
"530 132 LINE SMOOTH",
"532 136 OFFCURVE",
"533 139 OFFCURVE",
"535 146 CURVE SMOOTH",
"536 148 OFFCURVE",
"536 149 OFFCURVE",
"536 150 CURVE SMOOTH",
"536 152 OFFCURVE",
"535 153 OFFCURVE",
"534 153 CURVE SMOOTH",
"533 153 OFFCURVE",
"531 153 OFFCURVE",
"529 151 CURVE SMOOTH",
"526 149 LINE SMOOTH",
"516 144 OFFCURVE",
"508 141 OFFCURVE",
"492 138 CURVE SMOOTH",
"431 128 OFFCURVE",
"368 127 OFFCURVE",
"306 127 CURVE SMOOTH",
"189 127 LINE SMOOTH",
"172 127 OFFCURVE",
"154 127 OFFCURVE",
"134 128 CURVE SMOOTH"
);
}
);
};
layerId = "6E34CE51-C086-4FF0-804E-D019E96D60E0";
paths = (
{
closed = 1;
nodes = (
"97 128 CURVE",
"87 118 OFFCURVE",
"68 92 OFFCURVE",
"68 83 CURVE SMOOTH",
"68 53 OFFCURVE",
"268 0 OFFCURVE",
"367 0 CURVE SMOOTH",
"450 0 OFFCURVE",
"488 37 OFFCURVE",
"530 132 CURVE SMOOTH",
"534 142 OFFCURVE",
"539 153 OFFCURVE",
"533 153 CURVE SMOOTH",
"531 153 OFFCURVE",
"531 152 OFFCURVE",
"526 149 CURVE SMOOTH",
"520 145 OFFCURVE",
"511 142 OFFCURVE",
"491 138 CURVE SMOOTH",
"449 130 OFFCURVE",
"386 127 OFFCURVE",
"306 127 CURVE SMOOTH",
"204 127 OFFCURVE",
"140 127 OFFCURVE"
);
}
);
width = 602;
}
);
note = FULLPOINT;
unicode = 06D4;
script = arabic;
category = Punctuation;
},
{
color = 0;
glyphname = DAMMA_TANWIN;
lastChange = "2020-08-19 19:40:00 +0000";
layers = (
{
anchors = (
{
name = bottom;
position = "{0, 0}";
},
{
name = top;
position = "{0, 0}";
}
);
layerId = "6E34CE51-C086-4FF0-804E-D019E96D60E0";
paths = (
{
closed = 1;
nodes = (
"125 247 OFFCURVE",
"56 214 OFFCURVE",
"0 208 CURVE SMOOTH",
"-5 207 OFFCURVE",
"-8 206 OFFCURVE",
"-8 204 CURVE SMOOTH",
"-8 203 OFFCURVE",
"-6 202 OFFCURVE",
"-2 200 CURVE SMOOTH",
"19 193 OFFCURVE",
"35 190 OFFCURVE",
"54 190 CURVE SMOOTH",
"151 190 OFFCURVE",
"252 306 OFFCURVE",
"252 400 CURVE SMOOTH",
"252 441 OFFCURVE",
"234 467 OFFCURVE",
"207 467 CURVE SMOOTH",
"155 467 OFFCURVE",
"101 392 OFFCURVE",
"101 342 CURVE SMOOTH",
"101 311 OFFCURVE",
"127 290 OFFCURVE",
"168 290 CURVE SMOOTH",
"170 290 OFFCURVE",
"171 290 OFFCURVE",
"175 291 CURVE"
);
},
{
closed = 1;
nodes = (
"33 334 OFFCURVE",
"16 350 OFFCURVE",
"16 376 CURVE SMOOTH",
"16 410 OFFCURVE",
"57 449 OFFCURVE",
"119 474 CURVE SMOOTH",
"128 478 OFFCURVE",
"130 478 OFFCURVE",
"136 482 CURVE",
"144 491 OFFCURVE",
"158 513 OFFCURVE",
"164 528 CURVE SMOOTH",
"166 532 LINE",
"167 533 OFFCURVE",
"167 534 OFFCURVE",
"167 535 CURVE SMOOTH",
"167 536 OFFCURVE",
"166 536 OFFCURVE",
"165 536 CURVE SMOOTH",
"163 536 OFFCURVE",
"146 529 OFFCURVE",
"130 522 CURVE SMOOTH",
"56 489 OFFCURVE",
"-29 418 OFFCURVE",
"-29 330 CURVE SMOOTH",
"-29 296 OFFCURVE",
"-5 267 OFFCURVE",
"23 267 CURVE SMOOTH",
"52 267 OFFCURVE",
"68 285 OFFCURVE",
"68 317 CURVE SMOOTH",
"68 324 OFFCURVE",
"68 326 OFFCURVE",
"65 331 CURVE"
);
},
{
closed = 1;
nodes = (
"208 345 LINE SMOOTH",
"171 345 OFFCURVE",
"140 363 OFFCURVE",
"140 386 CURVE SMOOTH",
"140 400 OFFCURVE",
"157 414 OFFCURVE",
"176 414 CURVE SMOOTH",
"200 414 OFFCURVE",
"217 392 OFFCURVE",
"217 359 CURVE SMOOTH",
"217 355 OFFCURVE",
"217 352 OFFCURVE",
"216 345 CURVE"
);
}
);
width = 277;
}
);
note = DAMMA_TANWIN;
category = Mark;
subCategory = Nonspacing;
},
{
color = 0;
glyphname = SHADDA_BELOW;
lastChange = "2020-08-19 19:40:00 +0000";
layers = (
{
anchors = (
{
name = bottom;
position = "{0, 0}";
},
{
name = top;
position = "{0, 0}";
}
);
layerId = "6E34CE51-C086-4FF0-804E-D019E96D60E0";
paths = (
{
closed = 1;
nodes = (
"152 -107 OFFCURVE",
"163 -111 OFFCURVE",
"175 -111 CURVE SMOOTH",
"203 -111 OFFCURVE",
"222 -71 OFFCURVE",
"222 -13 CURVE SMOOTH",
"222 2 OFFCURVE",
"215 35 OFFCURVE",
"205 60 CURVE SMOOTH",
"202 69 OFFCURVE",
"200 72 OFFCURVE",
"199 72 CURVE SMOOTH",
"198 72 OFFCURVE",
"198 72 OFFCURVE",
"197 70 CURVE",
"197 69 OFFCURVE",
"197 69 OFFCURVE",
"196 68 CURVE",
"194 62 OFFCURVE",
"191 50 OFFCURVE",
"189 34 CURVE SMOOTH",
"188 30 OFFCURVE",
"187 25 OFFCURVE",
"187 21 CURVE SMOOTH",
"187 16 OFFCURVE",
"189 9 OFFCURVE",
"193 -6 CURVE SMOOTH",
"199 -28 LINE",
"199 -31 OFFCURVE",
"200 -33 OFFCURVE",
"200 -34 CURVE SMOOTH",
"200 -41 OFFCURVE",
"195 -44 OFFCURVE",
"187 -44 CURVE SMOOTH",
"166 -44 OFFCURVE",
"149 -24 OFFCURVE",
"149 -3 CURVE",
"143 20 LINE SMOOTH",
"140 32 OFFCURVE",
"139 35 OFFCURVE",
"135 35 CURVE SMOOTH",
"131 35 OFFCURVE",
"120 -4 OFFCURVE",
"120 -12 CURVE SMOOTH",
"120 -23 LINE SMOOTH",
"120 -45 OFFCURVE",
"109 -57 OFFCURVE",
"91 -57 CURVE SMOOTH",
"79 -57 OFFCURVE",
"72 -49 OFFCURVE",
"72 -36 CURVE SMOOTH",
"72 -23 LINE",
"74 -11 LINE",
"74 2 LINE",
"75 7 OFFCURVE",
"75 10 OFFCURVE",
"75 11 CURVE SMOOTH",
"75 19 LINE",
"76 20 LINE",
"76 24 OFFCURVE",
"74 27 OFFCURVE",
"71 27 CURVE SMOOTH",
"68 27 OFFCURVE",
"67 26 OFFCURVE",
"66 23 CURVE",
"65 22 OFFCURVE",
"64 21 OFFCURVE",
"63 18 CURVE",
"62 17 OFFCURVE",
"60 14 OFFCURVE",
"58 10 CURVE SMOOTH",
"53 0 LINE SMOOTH",
"48 -11 OFFCURVE",
"46 -20 OFFCURVE",
"45 -33 CURVE SMOOTH",
"42 -56 LINE",
"42 -62 OFFCURVE",
"41 -66 OFFCURVE",
"41 -70 CURVE SMOOTH",
"41 -107 OFFCURVE",
"56 -129 OFFCURVE",
"79 -129 CURVE SMOOTH",
"94 -129 OFFCURVE",
"110 -120 OFFCURVE",
"125 -103 CURVE SMOOTH",
"130 -97 OFFCURVE",
"130 -97 OFFCURVE",
"134 -94 CURVE"
);
}
);
width = 266;
}
);
note = SHADDA_BELOW;
category = Mark;
subCategory = Nonspacing;
},
{
color = 0;
glyphname = SHADDA_DAMMA;
lastChange = "2020-08-19 19:40:00 +0000";
layers = (
{
anchors = (
{
name = bottom;
position = "{0, 0}";
},
{
name = top;
position = "{0, 0}";
}
);
layerId = "6E34CE51-C086-4FF0-804E-D019E96D60E0";
paths = (
{
closed = 1;
nodes = (
"-31 389 LINE SMOOTH",
"-31 388 OFFCURVE",
"-31 388 OFFCURVE",
"-29 387 CURVE",
"-27 387 LINE SMOOTH",
"-26 387 OFFCURVE",
"-25 387 OFFCURVE",
"-23 386 CURVE",
"-18 386 OFFCURVE",
"-14 385 OFFCURVE",
"-9 384 CURVE SMOOTH",
"11 380 OFFCURVE",
"17 379 OFFCURVE",
"33 379 CURVE SMOOTH",
"88 379 OFFCURVE",
"148 413 OFFCURVE",
"185 452 CURVE SMOOTH",
"214 483 OFFCURVE",
"227 517 OFFCURVE",
"227 559 CURVE SMOOTH",
"227 601 OFFCURVE",
"211 626 OFFCURVE",
"182 626 CURVE SMOOTH",
"134 626 OFFCURVE",
"72 553 OFFCURVE",
"72 505 CURVE SMOOTH",
"72 476 OFFCURVE",
"94 459 OFFCURVE",
"137 456 CURVE",
"138 455 OFFCURVE",
"140 455 OFFCURVE",
"143 455 CURVE",
"133 448 OFFCURVE",
"123 443 OFFCURVE",
"105 435 CURVE SMOOTH",
"99 433 OFFCURVE",
"90 430 OFFCURVE",
"78 425 CURVE SMOOTH",
"44 411 OFFCURVE",
"6 400 OFFCURVE",
"-30 393 CURVE",
"-31 392 LINE"
);
},
{
closed = 1;
nodes = (
"42 228 OFFCURVE",
"57 206 OFFCURVE",
"79 206 CURVE SMOOTH",
"94 206 OFFCURVE",
"107 214 OFFCURVE",
"130 235 CURVE SMOOTH",
"135 239 LINE",
"153 227 OFFCURVE",
"165 223 OFFCURVE",
"175 223 CURVE SMOOTH",
"204 223 OFFCURVE",
"224 266 OFFCURVE",
"224 327 CURVE SMOOTH",
"224 339 OFFCURVE",
"218 366 OFFCURVE",
"211 386 CURVE SMOOTH",
"204 408 LINE",
"201 409 LINE",
"194 396 OFFCURVE",
"188 376 OFFCURVE",
"188 363 CURVE SMOOTH",
"188 350 OFFCURVE",
"193 327 OFFCURVE",
"199 308 CURVE",
"201 305 OFFCURVE",
"201 303 OFFCURVE",
"201 302 CURVE SMOOTH",
"201 294 OFFCURVE",
"196 290 OFFCURVE",
"188 290 CURVE SMOOTH",
"171 290 OFFCURVE",
"157 302 OFFCURVE",
"153 319 CURVE SMOOTH",
"151 329 OFFCURVE",
"151 329 OFFCURVE",
"149 335 CURVE",
"149 338 OFFCURVE",
"143 363 OFFCURVE",
"139 363 CURVE SMOOTH",
"137 363 OFFCURVE",
"135 361 OFFCURVE",
"134 358 CURVE SMOOTH",
"126 341 LINE SMOOTH",
"123 334 OFFCURVE",
"121 328 OFFCURVE",
"121 320 CURVE SMOOTH",
"120 300 OFFCURVE",
"120 296 OFFCURVE",
"115 290 CURVE SMOOTH",
"110 282 OFFCURVE",
"102 278 OFFCURVE",
"93 278 CURVE SMOOTH",
"79 278 OFFCURVE",
"73 284 OFFCURVE",
"73 298 CURVE SMOOTH",
"73 300 OFFCURVE",
"74 301 OFFCURVE",
"74 302 CURVE SMOOTH",
"75 309 LINE",
"75 320 LINE",
"76 330 LINE",
"76 338 LINE",
"75 348 LINE",
"75 353 LINE SMOOTH",
"75 354 OFFCURVE",
"74 355 OFFCURVE",
"72 355 CURVE SMOOTH",
"70 355 OFFCURVE",
"69 353 OFFCURVE",
"65 347 CURVE SMOOTH",
"59 335 LINE SMOOTH",
"48 317 OFFCURVE",
"42 292 OFFCURVE",
"42 262 CURVE SMOOTH"
);
},
{
closed = 1;
nodes = (
"113 563 OFFCURVE",
"138 574 OFFCURVE",
"152 574 CURVE SMOOTH",
"175 574 OFFCURVE",
"196 548 OFFCURVE",
"196 519 CURVE SMOOTH",
"196 517 OFFCURVE",
"195 515 OFFCURVE",
"195 514 CURVE SMOOTH",
"195 511 LINE",
"194 507 LINE",
"189 507 LINE SMOOTH",
"146 507 OFFCURVE",
"113 524 OFFCURVE",
"113 547 CURVE SMOOTH"
);
}
);
width = 267;
}
);
note = SHADDA_DAMMA;
category = Mark;
subCategory = Nonspacing;
},
{
color = 0;
glyphname = SHADDA_KASRA;
lastChange = "2020-08-19 19:40:00 +0000";
layers = (
{
anchors = (
{
name = bottom;
position = "{0, 0}";
},
{
name = top;
position = "{0, 0}";
}
);
layerId = "6E34CE51-C086-4FF0-804E-D019E96D60E0";
paths = (
{
closed = 1;
nodes = (
"133 352 LINE",
"139 349 LINE SMOOTH",
"151 344 OFFCURVE",
"156 342 OFFCURVE",
"164 342 CURVE SMOOTH",
"195 342 OFFCURVE",
"218 381 OFFCURVE",
"218 433 CURVE SMOOTH",
"218 443 OFFCURVE",
"216 465 OFFCURVE",
"212 474 CURVE",
"212 476 OFFCURVE",
"210 483 OFFCURVE",
"207 495 CURVE SMOOTH",
"202 513 LINE SMOOTH",
"201 516 OFFCURVE",
"200 518 OFFCURVE",
"200 519 CURVE SMOOTH",
"200 521 OFFCURVE",
"200 521 OFFCURVE",
"199 521 CURVE",
"197 520 OFFCURVE",
"197 519 OFFCURVE",
"196 517 CURVE SMOOTH",
"195 516 OFFCURVE",
"194 513 OFFCURVE",
"192 508 CURVE SMOOTH",
"187 493 LINE SMOOTH",
"185 487 OFFCURVE",
"184 479 OFFCURVE",
"184 473 CURVE SMOOTH",
"184 464 OFFCURVE",
"186 452 OFFCURVE",
"192 436 CURVE SMOOTH",
"195 428 OFFCURVE",
"196 424 OFFCURVE",
"196 422 CURVE SMOOTH",
"196 414 OFFCURVE",
"188 408 OFFCURVE",
"179 408 CURVE SMOOTH",
"162 408 OFFCURVE",
"150 419 OFFCURVE",
"146 439 CURVE SMOOTH",
"143 460 OFFCURVE",
"137 475 OFFCURVE",
"133 475 CURVE SMOOTH",
"127 475 OFFCURVE",
"117 442 OFFCURVE",
"116 435 CURVE",
"116 414 LINE SMOOTH",
"115 397 OFFCURVE",
"102 384 OFFCURVE",
"84 384 CURVE SMOOTH",
"73 384 OFFCURVE",
"67 391 OFFCURVE",
"67 405 CURVE SMOOTH",
"67 407 OFFCURVE",
"67 411 OFFCURVE",
"68 416 CURVE SMOOTH",
"70 426 OFFCURVE",
"70 431 OFFCURVE",
"70 437 CURVE SMOOTH",
"70 443 OFFCURVE",
"70 447 OFFCURVE",
"69 453 CURVE SMOOTH",
"69 455 OFFCURVE",
"69 455 OFFCURVE",
"68 457 CURVE",
"68 460 OFFCURVE",
"67 461 OFFCURVE",
"66 461 CURVE SMOOTH",
"63 461 OFFCURVE",
"54 448 OFFCURVE",
"48 433 CURVE SMOOTH",
"41 417 OFFCURVE",
"37 392 OFFCURVE",
"37 369 CURVE SMOOTH",
"37 333 OFFCURVE",
"50 314 OFFCURVE",
"75 314 CURVE SMOOTH",
"86 314 OFFCURVE",
"106 325 OFFCURVE",
"119 338 CURVE SMOOTH"
);
},
{
closed = 1;
nodes = (
"262 343 LINE",
"256 337 OFFCURVE",
"249 332 OFFCURVE",
"225 319 CURVE SMOOTH",
"205 307 LINE",
"149 278 LINE SMOOTH",
"120 264 OFFCURVE",
"110 258 OFFCURVE",
"96 251 CURVE",
"69 234 LINE",
"47 222 LINE SMOOTH",
"44 220 OFFCURVE",
"39 216 OFFCURVE",
"35 212 CURVE SMOOTH",
"31 209 OFFCURVE",
"28 207 OFFCURVE",
"26 204 CURVE SMOOTH",
"14 189 OFFCURVE",
"5 156 OFFCURVE",
"1 138 CURVE",
"4 138 OFFCURVE",
"4 139 OFFCURVE",
"6 140 CURVE",
"8 143 LINE",
"21 156 OFFCURVE",
"61 182 OFFCURVE",
"93 199 CURVE SMOOTH",
"117 211 LINE",
"149 229 LINE",
"175 242 LINE",
"220 268 LINE SMOOTH",
"234 277 OFFCURVE",
"246 292 OFFCURVE",
"253 310 CURVE SMOOTH",
"262 335 LINE",
"263 341 LINE"
);
}
);
width = 267;
}
);
note = SHADDA_KASRA;
category = Mark;
subCategory = Nonspacing;
},
{
color = 0;
glyphname = SHADDA_LONG_A;
lastChange = "2020-08-19 19:40:00 +0000";
layers = (
{
anchors = (
{
name = bottom;
position = "{0, 0}";
},
{
name = top;
position = "{0, 0}";
}
);
layerId = "6E34CE51-C086-4FF0-804E-D019E96D60E0";
paths = (
{
closed = 1;
nodes = (
"149 229 OFFCURVE",
"165 222 OFFCURVE",
"176 222 CURVE SMOOTH",
"204 222 OFFCURVE",
"225 266 OFFCURVE",
"225 325 CURVE SMOOTH",
"225 330 OFFCURVE",
"224 334 OFFCURVE",
"223 341 CURVE SMOOTH",
"220 354 OFFCURVE",
"217 365 OFFCURVE",
"216 371 CURVE",
"204 407 LINE",
"204 409 OFFCURVE",
"203 410 OFFCURVE",
"202 410 CURVE SMOOTH",
"200 410 OFFCURVE",
"200 408 OFFCURVE",
"197 402 CURVE SMOOTH",
"192 389 OFFCURVE",
"188 374 OFFCURVE",
"188 363 CURVE SMOOTH",
"188 352 OFFCURVE",
"191 336 OFFCURVE",
"197 315 CURVE SMOOTH",
"200 306 OFFCURVE",
"200 303 OFFCURVE",
"200 300 CURVE SMOOTH",
"200 295 OFFCURVE",
"195 290 OFFCURVE",
"188 290 CURVE SMOOTH",
"170 290 OFFCURVE",
"156 302 OFFCURVE",
"152 323 CURVE SMOOTH",
"148 345 OFFCURVE",
"142 363 OFFCURVE",
"138 363 CURVE SMOOTH",
"136 363 OFFCURVE",
"134 361 OFFCURVE",
"130 352 CURVE",
"130 350 OFFCURVE",
"128 347 OFFCURVE",
"126 343 CURVE SMOOTH",
"122 334 OFFCURVE",
"120 325 OFFCURVE",
"120 320 CURVE SMOOTH",
"120 315 LINE SMOOTH",
"120 292 OFFCURVE",
"110 278 OFFCURVE",
"93 278 CURVE SMOOTH",
"79 278 OFFCURVE",
"72 286 OFFCURVE",
"72 301 CURVE SMOOTH",
"72 305 LINE",
"74 320 LINE SMOOTH",
"74 325 OFFCURVE",
"75 332 OFFCURVE",
"75 339 CURVE SMOOTH",
"75 352 OFFCURVE",
"74 356 OFFCURVE",
"71 356 CURVE SMOOTH",
"70 356 OFFCURVE",
"69 355 OFFCURVE",
"66 350 CURVE SMOOTH",
"60 342 OFFCURVE",
"54 329 OFFCURVE",
"49 316 CURVE SMOOTH",
"44 300 OFFCURVE",
"42 285 OFFCURVE",
"42 260 CURVE SMOOTH",
"42 227 OFFCURVE",
"57 206 OFFCURVE",
"80 206 CURVE SMOOTH",
"94 206 OFFCURVE",
"120 222 OFFCURVE",
"134 241 CURVE"
);
},
{
closed = 1;
nodes = (
"134 636 LINE SMOOTH",
"125 623 OFFCURVE",
"114 605 OFFCURVE",
"107 589 CURVE",
"106 588 OFFCURVE",
"106 587 OFFCURVE",
"106 586 CURVE SMOOTH",
"106 585 OFFCURVE",
"106 583 OFFCURVE",
"107 579 CURVE",
"107 572 LINE",
"110 553 LINE SMOOTH",
"112 532 OFFCURVE",
"114 485 OFFCURVE",
"114 452 CURVE SMOOTH",
"114 439 OFFCURVE",
"114 428 OFFCURVE",
"113 417 CURVE SMOOTH",
"112 403 OFFCURVE",
"110 393 OFFCURVE",
"109 390 CURVE",
"109 388 LINE SMOOTH",
"109 387 OFFCURVE",
"111 386 OFFCURVE",
"115 386 CURVE",
"159 445 OFFCURVE",
"161 480 OFFCURVE",
"161 556 CURVE SMOOTH",
"161 567 OFFCURVE",
"161 579 OFFCURVE",
"160 591 CURVE SMOOTH",
"159 623 LINE",
"156 657 LINE",
"156 659 LINE",
"153 661 LINE"
);
}
);
width = 267;
}
);
note = SHADDA_LONG_A;
category = Mark;
subCategory = Nonspacing;
},
{
color = 0;
glyphname = SHA_DAMMA_TAN;
lastChange = "2020-08-19 19:40:00 +0000";
layers = (
{
anchors = (
{
name = bottom;
position = "{0, 0}";
},
{
name = top;
position = "{0, 0}";
}
);
layerId = "6E34CE51-C086-4FF0-804E-D019E96D60E0";
paths = (
{
closed = 1;
nodes = (
"182 462 LINE",
"175 457 LINE",
"174 457 OFFCURVE",
"171 455 OFFCURVE",
"166 452 CURVE SMOOTH",
"144 438 LINE SMOOTH",
"106 416 OFFCURVE",
"55 397 OFFCURVE",
"11 391 CURVE SMOOTH",
"1 390 OFFCURVE",
"-2 389 OFFCURVE",
"-2 387 CURVE SMOOTH",
"-2 386 OFFCURVE",
"-2 385 OFFCURVE",
"0 384 CURVE SMOOTH",
"4 383 LINE SMOOTH",
"20 377 OFFCURVE",
"41 374 OFFCURVE",
"58 374 CURVE SMOOTH",
"93 374 OFFCURVE",
"145 395 OFFCURVE",
"185 427 CURVE SMOOTH",
"233 464 OFFCURVE",
"261 517 OFFCURVE",
"261 568 CURVE SMOOTH",
"261 610 OFFCURVE",
"244 634 OFFCURVE",
"215 634 CURVE SMOOTH",
"166 634 OFFCURVE",
"110 563 OFFCURVE",
"110 514 CURVE SMOOTH",
"110 486 OFFCURVE",
"139 462 OFFCURVE",
"176 462 CURVE SMOOTH"
);
},
{
closed = 1;
nodes = (
"78 481 OFFCURVE",
"77 481 OFFCURVE",
"76 482 CURVE",
"47 486 OFFCURVE",
"30 504 OFFCURVE",
"30 531 CURVE SMOOTH",
"30 576 OFFCURVE",
"88 618 OFFCURVE",
"126 633 CURVE",
"127 634 OFFCURVE",
"128 635 OFFCURVE",
"128 636 CURVE",
"129 637 OFFCURVE",
"130 640 OFFCURVE",
"133 644 CURVE SMOOTH",
"140 657 LINE",
"144 662 OFFCURVE",
"146 666 OFFCURVE",
"147 668 CURVE SMOOTH",
"152 677 LINE SMOOTH",
"153 679 OFFCURVE",
"154 681 OFFCURVE",
"154 682 CURVE SMOOTH",
"154 683 OFFCURVE",
"153 684 OFFCURVE",
"151 684 CURVE SMOOTH",
"148 684 OFFCURVE",
"143 681 OFFCURVE",
"132 676 CURVE",
"101 658 OFFCURVE",
"91 652 OFFCURVE",
"71 636 CURVE SMOOTH",
"22 596 OFFCURVE",
"-11 541 OFFCURVE",
"-11 498 CURVE SMOOTH",
"-11 460 OFFCURVE",
"11 433 OFFCURVE",
"41 433 CURVE SMOOTH",
"63 433 OFFCURVE",
"81 452 OFFCURVE",
"81 475 CURVE SMOOTH",
"81 477 OFFCURVE",
"80 478 OFFCURVE",
"80 481 CURVE"
);
},
{
closed = 1;
nodes = (
"142 238 LINE",
"166 226 OFFCURVE",
"174 222 OFFCURVE",
"184 222 CURVE SMOOTH",
"211 222 OFFCURVE",
"233 266 OFFCURVE",
"233 322 CURVE SMOOTH",
"233 336 OFFCURVE",
"229 353 OFFCURVE",
"219 387 CURVE SMOOTH",
"217 393 OFFCURVE",
"216 397 OFFCURVE",
"216 400 CURVE SMOOTH",
"215 404 OFFCURVE",
"214 405 OFFCURVE",
"213 405 CURVE SMOOTH",
"212 405 OFFCURVE",
"212 405 OFFCURVE",
"211 404 CURVE",
"211 403 OFFCURVE",
"211 403 OFFCURVE",
"210 402 CURVE",
"210 401 OFFCURVE",
"208 397 OFFCURVE",
"206 391 CURVE SMOOTH",
"204 386 OFFCURVE",
"203 383 OFFCURVE",
"203 381 CURVE",
"200 372 OFFCURVE",
"198 361 OFFCURVE",
"198 353 CURVE SMOOTH",
"198 345 OFFCURVE",
"202 328 OFFCURVE",
"208 310 CURVE SMOOTH",
"209 307 OFFCURVE",
"210 306 OFFCURVE",
"210 305 CURVE SMOOTH",
"211 301 LINE",
"211 300 LINE SMOOTH",
"211 293 OFFCURVE",
"206 290 OFFCURVE",
"195 290 CURVE SMOOTH",
"179 290 OFFCURVE",
"166 301 OFFCURVE",
"163 318 CURVE SMOOTH",
"157 344 OFFCURVE",
"151 362 OFFCURVE",
"148 362 CURVE SMOOTH",
"147 362 OFFCURVE",
"146 362 OFFCURVE",
"145 361 CURVE SMOOTH",
"143 358 LINE",
"135 350 OFFCURVE",
"129 327 OFFCURVE",
"129 309 CURVE SMOOTH",
"129 303 LINE SMOOTH",
"129 289 OFFCURVE",
"116 277 OFFCURVE",
"101 277 CURVE SMOOTH",
"90 277 OFFCURVE",
"82 284 OFFCURVE",
"82 292 CURVE SMOOTH",
"82 293 OFFCURVE",
"82 295 OFFCURVE",
"83 297 CURVE",
"83 304 LINE",
"85 323 LINE",
"84 331 LINE",
"84 344 LINE SMOOTH",
"84 347 OFFCURVE",
"83 348 OFFCURVE",
"81 348 CURVE SMOOTH",
"79 348 OFFCURVE",
"78 347 OFFCURVE",
"73 341 CURVE",
"68 331 LINE SMOOTH",
"56 312 OFFCURVE",
"51 292 OFFCURVE",
"51 262 CURVE SMOOTH",
"51 226 OFFCURVE",
"65 206 OFFCURVE",
"89 206 CURVE SMOOTH",
"99 206 OFFCURVE",
"118 216 OFFCURVE",
"129 226 CURVE SMOOTH"
);
},
{
closed = 1;
nodes = (
"228 516 LINE",
"222 516 LINE SMOOTH",
"178 516 OFFCURVE",
"149 532 OFFCURVE",
"149 555 CURVE SMOOTH",
"149 570 OFFCURVE",
"167 583 OFFCURVE",
"186 583 CURVE SMOOTH",
"208 583 OFFCURVE",
"229 558 OFFCURVE",
"229 532 CURVE SMOOTH",
"229 529 OFFCURVE",
"229 526 OFFCURVE",
"228 522 CURVE"
);
}
);
width = 285;
}
);
note = SHA_DAMMA_TAN;
category = Mark;
subCategory = Nonspacing;
},
{
color = 0;
glyphname = SHA_FATHA_TAN;
lastChange = "2020-08-19 19:40:00 +0000";
layers = (
{
anchors = (
{
name = bottom;
position = "{0, 0}";
},
{
name = top;
position = "{0, 0}";
}
);
layerId = "6E34CE51-C086-4FF0-804E-D019E96D60E0";
paths = (
{
closed = 1;
nodes = (
"95 206 OFFCURVE",
"119 222 OFFCURVE",
"134 240 CURVE",
"149 232 LINE SMOOTH",
"159 226 OFFCURVE",
"169 223 OFFCURVE",
"177 223 CURVE SMOOTH",
"201 223 OFFCURVE",
"224 269 OFFCURVE",
"224 317 CURVE SMOOTH",
"224 321 OFFCURVE",
"223 331 OFFCURVE",
"222 342 CURVE SMOOTH",
"219 356 LINE",
"204 407 LINE",
"203 409 OFFCURVE",
"203 410 OFFCURVE",
"202 410 CURVE SMOOTH",
"200 410 OFFCURVE",
"200 409 OFFCURVE",
"197 403 CURVE SMOOTH",
"191 386 OFFCURVE",
"188 373 OFFCURVE",
"188 363 CURVE SMOOTH",
"188 350 LINE",
"192 332 LINE",
"193 330 OFFCURVE",
"194 326 OFFCURVE",
"195 320 CURVE SMOOTH",
"199 307 LINE SMOOTH",
"200 304 OFFCURVE",
"200 302 OFFCURVE",
"200 301 CURVE SMOOTH",
"200 295 OFFCURVE",
"196 291 OFFCURVE",
"190 291 CURVE SMOOTH",
"171 291 OFFCURVE",
"157 301 OFFCURVE",
"153 317 CURVE SMOOTH",
"148 340 LINE SMOOTH",
"146 353 OFFCURVE",
"141 363 OFFCURVE",
"138 363 CURVE SMOOTH",
"137 363 OFFCURVE",
"136 362 OFFCURVE",
"135 361 CURVE",
"131 354 LINE SMOOTH",
"124 343 OFFCURVE",
"120 327 OFFCURVE",
"120 314 CURVE SMOOTH",
"120 306 LINE SMOOTH",
"120 291 OFFCURVE",
"107 278 OFFCURVE",
"93 278 CURVE SMOOTH",
"79 278 OFFCURVE",
"73 285 OFFCURVE",
"73 299 CURVE SMOOTH",
"73 302 OFFCURVE",
"73 305 OFFCURVE",
"74 308 CURVE",
"74 315 LINE",
"75 323 LINE",
"75 341 LINE",
"74 345 LINE",
"74 347 LINE",
"73 348 OFFCURVE",
"73 348 OFFCURVE",
"72 348 CURVE SMOOTH",
"70 348 OFFCURVE",
"69 347 OFFCURVE",
"67 344 CURVE",
"49 326 OFFCURVE",
"41 285 OFFCURVE",
"41 261 CURVE SMOOTH",
"41 228 OFFCURVE",
"57 206 OFFCURVE",
"81 206 CURVE SMOOTH"
);
},
{
closed = 1;
nodes = (
"0 432 LINE",
"12 441 LINE SMOOTH",
"25 452 OFFCURVE",
"29 456 OFFCURVE",
"41 463 CURVE SMOOTH",
"55 470 OFFCURVE",
"69 478 OFFCURVE",
"82 487 CURVE",
"157 525 LINE SMOOTH",
"188 541 OFFCURVE",
"210 554 OFFCURVE",
"221 563 CURVE SMOOTH",
"229 570 OFFCURVE",
"232 574 OFFCURVE",
"239 590 CURVE SMOOTH",
"247 607 LINE SMOOTH",
"251 617 OFFCURVE",
"252 619 OFFCURVE",
"255 628 CURVE",
"253 629 LINE",
"237 617 LINE SMOOTH",
"231 612 OFFCURVE",
"213 602 OFFCURVE",
"196 594 CURVE SMOOTH",
"113 552 LINE",
"58 520 LINE SMOOTH",
"47 514 OFFCURVE",
"41 511 OFFCURVE",
"39 509 CURVE",
"35 507 OFFCURVE",
"32 504 OFFCURVE",
"28 500 CURVE",
"15 481 OFFCURVE",
"4 454 OFFCURVE",
"-1 432 CURVE"
);
},
{
closed = 1;
nodes = (
"2 338 LINE",
"18 356 OFFCURVE",
"41 371 OFFCURVE",
"62 382 CURVE SMOOTH",
"79 392 LINE",
"188 450 LINE",
"205 460 LINE SMOOTH",
"222 469 OFFCURVE",
"223 470 OFFCURVE",
"230 480 CURVE SMOOTH",
"234 487 OFFCURVE",
"253 525 OFFCURVE",
"253 531 CURVE",
"254 533 OFFCURVE",
"255 534 OFFCURVE",
"255 535 CURVE SMOOTH",
"255 536 OFFCURVE",
"254 537 OFFCURVE",
"253 537 CURVE SMOOTH",
"252 537 OFFCURVE",
"252 537 OFFCURVE",
"251 536 CURVE SMOOTH",
"246 532 LINE SMOOTH",
"235 523 OFFCURVE",
"230 520 OFFCURVE",
"211 510 CURVE SMOOTH",
"185 495 LINE",
"151 477 LINE SMOOTH",
"128 466 OFFCURVE",
"49 428 OFFCURVE",
"30 409 CURVE SMOOTH",
"28 407 OFFCURVE",
"26 404 OFFCURVE",
"24 400 CURVE SMOOTH",
"17 388 OFFCURVE",
"6 361 OFFCURVE",
"-1 341 CURVE"
);
}
);
width = 267;
}
);
note = SHA_FATHA_TAN;
category = Mark;
subCategory = Nonspacing;
},
{
color = 0;
glyphname = SHA_KASRA_TAN;
lastChange = "2020-08-19 19:40:00 +0000";
layers = (
{
anchors = (
{
name = bottom;
position = "{0, 0}";
},
{
name = top;
position = "{0, 0}";
}
);
layerId = "6E34CE51-C086-4FF0-804E-D019E96D60E0";
paths = (
{
closed = 1;
nodes = (
"133 434 LINE",
"145 428 OFFCURVE",
"156 424 OFFCURVE",
"166 424 CURVE SMOOTH",
"196 424 OFFCURVE",
"219 465 OFFCURVE",
"219 516 CURVE SMOOTH",
"219 525 LINE SMOOTH",
"219 529 OFFCURVE",
"218 533 OFFCURVE",
"218 535 CURVE SMOOTH",
"216 548 LINE",
"213 561 LINE",
"207 585 LINE SMOOTH",
"204 593 OFFCURVE",
"203 596 OFFCURVE",
"202 601 CURVE SMOOTH",
"202 603 OFFCURVE",
"201 604 OFFCURVE",
"200 604 CURVE",
"199 603 OFFCURVE",
"199 603 OFFCURVE",
"199 602 CURVE",
"196 596 LINE SMOOTH",
"190 583 OFFCURVE",
"184 563 OFFCURVE",
"184 553 CURVE SMOOTH",
"184 551 OFFCURVE",
"185 549 OFFCURVE",
"186 543 CURVE SMOOTH",
"187 538 OFFCURVE",
"187 538 OFFCURVE",
"187 535 CURVE",
"188 534 OFFCURVE",
"189 531 OFFCURVE",
"190 525 CURVE",
"192 520 OFFCURVE",
"193 516 OFFCURVE",
"193 515 CURVE",
"197 506 LINE",
"197 503 LINE SMOOTH",
"197 497 OFFCURVE",
"188 491 OFFCURVE",
"179 491 CURVE SMOOTH",
"163 491 OFFCURVE",
"151 502 OFFCURVE",
"148 518 CURVE SMOOTH",
"146 527 LINE",
"145 529 OFFCURVE",
"145 532 OFFCURVE",
"143 537 CURVE SMOOTH",
"139 549 LINE SMOOTH",
"138 552 OFFCURVE",
"138 554 OFFCURVE",
"136 557 CURVE",
"132 557 LINE",
"131 556 LINE SMOOTH",
"122 543 OFFCURVE",
"117 529 OFFCURVE",
"117 517 CURVE SMOOTH",
"117 503 LINE",
"116 496 LINE",
"116 480 OFFCURVE",
"102 467 OFFCURVE",
"85 467 CURVE SMOOTH",
"73 467 OFFCURVE",
"68 474 OFFCURVE",
"68 491 CURVE SMOOTH",
"68 495 LINE",
"69 498 OFFCURVE",
"69 498 OFFCURVE",
"69 503 CURVE SMOOTH",
"70 508 OFFCURVE",
"71 515 OFFCURVE",
"71 523 CURVE SMOOTH",
"71 526 OFFCURVE",
"71 528 OFFCURVE",
"70 530 CURVE",
"70 538 LINE",
"69 542 OFFCURVE",
"68 543 OFFCURVE",
"67 543 CURVE SMOOTH",
"65 543 OFFCURVE",
"58 533 OFFCURVE",
"51 520 CURVE SMOOTH",
"43 504 OFFCURVE",
"37 473 OFFCURVE",
"37 449 CURVE SMOOTH",
"37 416 OFFCURVE",
"52 395 OFFCURVE",
"76 395 CURVE SMOOTH",
"87 395 OFFCURVE",
"103 405 OFFCURVE",
"121 423 CURVE SMOOTH"
);
},
{
closed = 1;
nodes = (
"5 233 LINE",
"8 236 OFFCURVE",
"9 237 OFFCURVE",
"13 240 CURVE SMOOTH",
"24 250 OFFCURVE",
"35 258 OFFCURVE",
"47 266 CURVE SMOOTH",
"66 277 LINE SMOOTH",
"76 283 OFFCURVE",
"82 287 OFFCURVE",
"83 287 CURVE",
"189 342 LINE SMOOTH",
"199 347 OFFCURVE",
"210 354 OFFCURVE",
"220 360 CURVE",
"222 362 OFFCURVE",
"225 363 OFFCURVE",
"227 365 CURVE SMOOTH",
"244 382 OFFCURVE",
"253 406 OFFCURVE",
"260 429 CURVE",
"259 431 LINE",
"258 431 LINE",
"249 424 LINE SMOOTH",
"243 419 OFFCURVE",
"230 411 OFFCURVE",
"208 400 CURVE SMOOTH",
"196 393 OFFCURVE",
"183 386 OFFCURVE",
"171 380 CURVE SMOOTH",
"147 369 LINE",
"79 333 LINE SMOOTH",
"62 324 OFFCURVE",
"44 313 OFFCURVE",
"38 307 CURVE SMOOTH",
"32 301 OFFCURVE",
"28 296 OFFCURVE",
"23 285 CURVE SMOOTH",
"19 278 OFFCURVE",
"16 269 OFFCURVE",
"13 261 CURVE SMOOTH",
"10 255 OFFCURVE",
"9 251 OFFCURVE",
"8 248 CURVE SMOOTH",
"6 243 OFFCURVE",
"5 240 OFFCURVE",
"4 233 CURVE"
);
},
{
closed = 1;
nodes = (
"6 140 LINE",
"21 153 LINE SMOOTH",
"40 171 OFFCURVE",
"65 184 OFFCURVE",
"88 196 CURVE SMOOTH",
"160 234 LINE SMOOTH",
"180 244 OFFCURVE",
"196 253 OFFCURVE",
"207 259 CURVE SMOOTH",
"234 273 OFFCURVE",
"243 293 OFFCURVE",
"254 321 CURVE SMOOTH",
"260 339 LINE",
"258 340 LINE",
"257 340 OFFCURVE",
"257 340 OFFCURVE",
"256 339 CURVE SMOOTH",
"253 336 OFFCURVE",
"250 333 OFFCURVE",
"246 331 CURVE SMOOTH",
"230 320 LINE SMOOTH",
"219 312 OFFCURVE",
"196 300 OFFCURVE",
"165 285 CURVE SMOOTH",
"133 270 OFFCURVE",
"102 254 OFFCURVE",
"71 236 CURVE SMOOTH",
"53 225 LINE SMOOTH",
"37 215 OFFCURVE",
"32 211 OFFCURVE",
"26 197 CURVE SMOOTH",
"22 189 OFFCURVE",
"22 189 OFFCURVE",
"20 185 CURVE SMOOTH",
"14 172 LINE",
"10 159 LINE SMOOTH",
"6 148 OFFCURVE",
"5 147 OFFCURVE",
"4 141 CURVE"
);
}
);
width = 266;
}
);
note = SHA_KASRA_TAN;
category = Mark;
subCategory = Nonspacing;
},
{
color = 0;
glyphname = KASRA.yb;
lastChange = "2020-08-19 19:40:00 +0000";
layers = (
{
layerId = "6E34CE51-C086-4FF0-804E-D019E96D60E0";
paths = (
{
closed = 1;
nodes = (
"109 -187 LINE SMOOTH",
"111 -186 OFFCURVE",
"117 -183 OFFCURVE",
"125 -179 CURVE SMOOTH",
"139 -171 LINE",
"187 -146 LINE SMOOTH",
"191 -144 OFFCURVE",
"200 -139 OFFCURVE",
"211 -132 CURVE SMOOTH",
"222 -126 OFFCURVE",
"228 -122 OFFCURVE",
"232 -118 CURVE SMOOTH",
"238 -113 OFFCURVE",
"245 -105 OFFCURVE",
"247 -98 CURVE",
"257 -76 LINE",
"260 -64 LINE",
"263 -57 OFFCURVE",
"264 -55 OFFCURVE",
"264 -53 CURVE SMOOTH",
"264 -52 OFFCURVE",
"263 -52 OFFCURVE",
"262 -52 CURVE SMOOTH",
"261 -52 OFFCURVE",
"261 -52 OFFCURVE",
"259 -53 CURVE",
"250 -62 OFFCURVE",
"232 -73 OFFCURVE",
"215 -82 CURVE SMOOTH",
"203 -89 LINE SMOOTH",
"194 -93 OFFCURVE",
"189 -96 OFFCURVE",
"187 -97 CURVE SMOOTH",
"119 -131 LINE",
"105 -139 LINE",
"102 -140 OFFCURVE",
"95 -144 OFFCURVE",
"86 -149 CURVE SMOOTH",
"76 -155 OFFCURVE",
"70 -158 OFFCURVE",
"68 -159 CURVE SMOOTH",
"64 -161 OFFCURVE",
"59 -165 OFFCURVE",
"51 -169 CURVE",
"42 -176 OFFCURVE",
"37 -179 OFFCURVE",
"34 -182 CURVE SMOOTH",
"26 -189 OFFCURVE",
"20 -198 OFFCURVE",
"15 -212 CURVE SMOOTH",
"3 -244 LINE",
"1 -252 LINE",
"1 -254 OFFCURVE",
"2 -256 OFFCURVE",
"4 -256 CURVE SMOOTH",
"5 -256 OFFCURVE",
"6 -255 OFFCURVE",
"8 -253 CURVE SMOOTH",
"21 -239 OFFCURVE",
"51 -218 OFFCURVE",
"79 -203 CURVE SMOOTH"
);
}
);
width = 266;
}
);
note = KASRA;
script = arabic;
category = Mark;
subCategory = Nonspacing;
},
{
color = 0;
glyphname = HAMZA_ABOVE;
lastChange = "2020-08-30 21:32:52 +0000";
layers = (
{
anchors = (
{
name = _top;
position = "{108, -1}";
},
{
name = top;
position = "{134, 385}";
}
);
layerId = "6E34CE51-C086-4FF0-804E-D019E96D60E0";
paths = (
{
closed = 1;
nodes = (
"37 212 OFFCURVE",
"23 187 OFFCURVE",
"8 138 CURVE",
"10 135 LINE",
"13 138 OFFCURVE",
"14 138 OFFCURVE",
"17 141 CURVE",
"22 144 OFFCURVE",
"27 148 OFFCURVE",
"33 153 CURVE SMOOTH",
"41 161 OFFCURVE",
"47 165 OFFCURVE",
"50 168 CURVE",
"71 183 LINE SMOOTH",
"104 207 OFFCURVE",
"140 228 OFFCURVE",
"177 244 CURVE SMOOTH",
"208 259 OFFCURVE",
"215 263 OFFCURVE",
"224 273 CURVE SMOOTH",
"231 282 OFFCURVE",
"240 297 OFFCURVE",
"247 313 CURVE SMOOTH",
"255 332 LINE",
"256 333 OFFCURVE",
"256 335 OFFCURVE",
"256 336 CURVE SMOOTH",
"256 337 OFFCURVE",
"255 338 OFFCURVE",
"254 338 CURVE",
"253 337 OFFCURVE",
"253 337 OFFCURVE",
"252 337 CURVE",
"209 310 OFFCURVE",
"175 297 OFFCURVE",
"144 297 CURVE SMOOTH",
"116 297 OFFCURVE",
"95 311 OFFCURVE",
"95 328 CURVE SMOOTH",
"95 343 OFFCURVE",
"115 354 OFFCURVE",
"129 354 CURVE SMOOTH",
"138 354 OFFCURVE",
"146 351 OFFCURVE",
"156 346 CURVE",
"173 356 OFFCURVE",
"181 367 OFFCURVE",
"181 383 CURVE SMOOTH",
"181 397 OFFCURVE",
"169 407 OFFCURVE",
"152 407 CURVE SMOOTH",
"103 407 OFFCURVE",
"54 324 OFFCURVE",
"54 279 CURVE SMOOTH",
"54 258 OFFCURVE",
"61 248 OFFCURVE",
"81 239 CURVE"
);
}
);
width = 266;
}
);
note = HAMZA_ABOVE;
unicode = 0654;
script = arabic;
category = Mark;
subCategory = Nonspacing;
},
{
color = 0;
glyphname = HAMZA_BELOW;
lastChange = "2020-08-19 19:40:00 +0000";
layers = (
{
anchors = (
{
name = bottom;
position = "{0, 0}";
},
{
name = top;
position = "{0, 0}";
}
);
layerId = "6E34CE51-C086-4FF0-804E-D019E96D60E0";
paths = (
{
closed = 1;
nodes = (
"37 -140 OFFCURVE",
"22 -166 OFFCURVE",
"8 -215 CURVE",
"10 -217 LINE",
"13 -215 OFFCURVE",
"14 -214 OFFCURVE",
"17 -211 CURVE",
"22 -208 OFFCURVE",
"27 -204 OFFCURVE",
"33 -199 CURVE SMOOTH",
"41 -192 OFFCURVE",
"47 -187 OFFCURVE",
"50 -185 CURVE SMOOTH",
"53 -182 OFFCURVE",
"60 -177 OFFCURVE",
"71 -169 CURVE SMOOTH",
"103 -144 OFFCURVE",
"140 -124 OFFCURVE",
"177 -108 CURVE SMOOTH",
"208 -93 OFFCURVE",
"215 -89 OFFCURVE",
"224 -79 CURVE SMOOTH",
"231 -70 OFFCURVE",
"240 -56 OFFCURVE",
"247 -40 CURVE SMOOTH",
"255 -21 LINE SMOOTH",
"256 -19 OFFCURVE",
"256 -17 OFFCURVE",
"256 -16 CURVE SMOOTH",
"256 -15 OFFCURVE",
"255 -15 OFFCURVE",
"254 -15 CURVE SMOOTH",
"253 -15 OFFCURVE",
"253 -15 OFFCURVE",
"252 -16 CURVE",
"209 -43 OFFCURVE",
"175 -55 OFFCURVE",
"144 -55 CURVE SMOOTH",
"116 -55 OFFCURVE",
"95 -41 OFFCURVE",
"95 -24 CURVE SMOOTH",
"95 -16 OFFCURVE",
"101 -9 OFFCURVE",
"111 -3 CURVE SMOOTH",
"117 0 OFFCURVE",
"123 1 OFFCURVE",
"129 1 CURVE SMOOTH",
"138 1 OFFCURVE",
"146 -1 OFFCURVE",
"156 -6 CURVE",
"173 3 OFFCURVE",
"181 15 OFFCURVE",
"181 30 CURVE SMOOTH",
"181 45 OFFCURVE",
"169 55 OFFCURVE",
"152 55 CURVE SMOOTH",
"103 55 OFFCURVE",
"54 -29 OFFCURVE",
"54 -73 CURVE SMOOTH",
"54 -94 OFFCURVE",
"61 -104 OFFCURVE",
"81 -113 CURVE"
);
}
);
width = 266;
}
);
note = HAMZA_BELOW;
unicode = 0655;
script = arabic;
category = Mark;
subCategory = Nonspace;
},
{
glyphname = FATHA;
lastChange = "2020-08-27 09:30:12 +0000";
layers = (
{
anchors = (
{
name = _top;
position = "{117, -21}";
}
);
background = {
paths = (
{
closed = 1;
nodes = (
"109 207 LINE",
"111 209 OFFCURVE",
"117 212 OFFCURVE",
"125 216 CURVE SMOOTH",
"132 220 OFFCURVE",
"137 222 OFFCURVE",
"139 223 CURVE SMOOTH",
"187 248 LINE",
"211 262 LINE SMOOTH",
"223 269 OFFCURVE",
"228 273 OFFCURVE",
"232 276 CURVE SMOOTH",
"239 282 OFFCURVE",
"245 290 OFFCURVE",
"247 296 CURVE SMOOTH",
"254 311 LINE",
"260 330 LINE SMOOTH",
"263 337 OFFCURVE",
"264 339 OFFCURVE",
"264 341 CURVE SMOOTH",
"264 342 OFFCURVE",
"263 343 OFFCURVE",
"262 343 CURVE SMOOTH",
"261 343 OFFCURVE",
"261 343 OFFCURVE",
"259 341 CURVE SMOOTH",
"250 333 OFFCURVE",
"232 321 OFFCURVE",
"215 312 CURVE SMOOTH",
"210 310 OFFCURVE",
"206 307 OFFCURVE",
"203 306 CURVE",
"187 297 LINE",
"105 256 LINE",
"94 248 OFFCURVE",
"80 241 OFFCURVE",
"68 235 CURVE SMOOTH",
"56 229 OFFCURVE",
"43 221 OFFCURVE",
"34 212 CURVE SMOOTH",
"26 205 OFFCURVE",
"20 196 OFFCURVE",
"15 182 CURVE SMOOTH",
"3 151 LINE",
"1 142 LINE",
"1 140 OFFCURVE",
"2 139 OFFCURVE",
"4 139 CURVE SMOOTH",
"5 139 OFFCURVE",
"6 139 OFFCURVE",
"8 142 CURVE",
"22 155 OFFCURVE",
"51 176 OFFCURVE",
"79 191 CURVE SMOOTH"
);
}
);
};
layerId = "6E34CE51-C086-4FF0-804E-D019E96D60E0";
paths = (
{
closed = 1;
nodes = (
"96 200 OFFCURVE",
"207 259 OFFCURVE",
"231 276 CURVE SMOOTH",
"239 282 OFFCURVE",
"243 286 OFFCURVE",
"247 296 CURVE SMOOTH",
"248 299 OFFCURVE",
"264 339 OFFCURVE",
"264 342 CURVE SMOOTH",
"264 344 OFFCURVE",
"263 344 OFFCURVE",
"259 341 CURVE SMOOTH",
"230 321 OFFCURVE",
"232 321 OFFCURVE",
"165 286 CURVE SMOOTH",
"160 283 OFFCURVE",
"65 236 OFFCURVE",
"46 222 CURVE SMOOTH",
"34 214 OFFCURVE",
"25 203 OFFCURVE",
"21 196 CURVE SMOOTH",
"16 187 OFFCURVE",
"6 158 OFFCURVE",
"2 146 CURVE SMOOTH",
"0 139 OFFCURVE",
"-1 135 OFFCURVE",
"9 142 CURVE SMOOTH",
"29 156 OFFCURVE",
"37 168 OFFCURVE",
"79 191 CURVE SMOOTH"
);
}
);
width = 266;
}
);
note = FATHA;
unicode = 064E;
script = arabic;
category = Mark;
subCategory = Nonspacing;
},
{
glyphname = DAMMA;
lastChange = "2020-08-27 11:58:31 +0000";
layers = (
{
anchors = (
{
name = _top;
position = "{130, 60}";
},
{
name = top;
position = "{170, 536}";
}
);
background = {
paths = (
{
closed = 1;
nodes = (
"125 260 LINE SMOOTH",
"109 249 OFFCURVE",
"80 230 OFFCURVE",
"33 209 CURVE SMOOTH",
"-28 181 OFFCURVE",
"-33 179 OFFCURVE",
"-33 176 CURVE SMOOTH",
"-33 169 OFFCURVE",
"-7 170 OFFCURVE",
"-2 170 CURVE SMOOTH",
"58 172 OFFCURVE",
"119 204 OFFCURVE",
"162 242 CURVE SMOOTH",
"211 286 OFFCURVE",
"239 339 OFFCURVE",
"239 403 CURVE SMOOTH",
"239 452 OFFCURVE",
"223 480 OFFCURVE",
"194 480 CURVE SMOOTH",
"141 480 OFFCURVE",
"86 385 OFFCURVE",
"86 336 CURVE SMOOTH",
"86 304 OFFCURVE",
"109 287 OFFCURVE",
"152 287 CURVE SMOOTH",
"155 287 OFFCURVE",
"159 287 OFFCURVE",
"166 288 CURVE"
);
},
{
closed = 1;
nodes = (
"204 354 CURVE",
"198 353 OFFCURVE",
"193 352 OFFCURVE",
"183 352 CURVE SMOOTH",
"154 352 OFFCURVE",
"123 364 OFFCURVE",
"123 384 CURVE SMOOTH",
"123 403 OFFCURVE",
"148 419 OFFCURVE",
"167 419 CURVE SMOOTH",
"190 419 OFFCURVE",
"204 397 OFFCURVE"
);
}
);
};
layerId = "6E34CE51-C086-4FF0-804E-D019E96D60E0";
paths = (
{
closed = 1;
nodes = (
"101 244 OFFCURVE",
"77 229 OFFCURVE",
"33 209 CURVE SMOOTH",
"-28 181 OFFCURVE",
"-33 179 OFFCURVE",
"-33 176 CURVE SMOOTH",
"-33 169 OFFCURVE",
"-7 170 OFFCURVE",
"-2 170 CURVE SMOOTH",
"58 172 OFFCURVE",
"119 204 OFFCURVE",
"162 242 CURVE SMOOTH",
"211 286 OFFCURVE",
"239 339 OFFCURVE",
"239 403 CURVE SMOOTH",
"239 452 OFFCURVE",
"223 480 OFFCURVE",
"194 480 CURVE SMOOTH",
"141 480 OFFCURVE",
"86 385 OFFCURVE",
"86 336 CURVE SMOOTH",
"86 304 OFFCURVE",
"109 287 OFFCURVE",
"152 287 CURVE SMOOTH",
"155 287 OFFCURVE",
"159 287 OFFCURVE",
"166 288 CURVE"
);
},
{
closed = 1;
nodes = (
"204 354 CURVE",
"198 353 OFFCURVE",
"193 352 OFFCURVE",
"183 352 CURVE SMOOTH",
"154 352 OFFCURVE",
"123 364 OFFCURVE",
"123 384 CURVE SMOOTH",
"123 403 OFFCURVE",
"148 419 OFFCURVE",
"167 419 CURVE SMOOTH",
"190 419 OFFCURVE",
"204 397 OFFCURVE"
);
}
);
width = 0;
}
);
note = DAMMA;
unicode = 064F;
category = Mark;
subCategory = Nonspacing;
},
{
glyphname = KASRA;
lastChange = "2020-08-21 08:01:47 +0000";
layers = (
{
anchors = (
{
name = _bottom;
position = "{129, -355}";
}
);
background = {
paths = (
{
closed = 1;
nodes = (
"109 -187 LINE SMOOTH",
"111 -186 OFFCURVE",
"117 -183 OFFCURVE",
"125 -179 CURVE SMOOTH",
"139 -171 LINE",
"187 -146 LINE SMOOTH",
"191 -144 OFFCURVE",
"200 -139 OFFCURVE",
"211 -132 CURVE SMOOTH",
"222 -126 OFFCURVE",
"228 -122 OFFCURVE",
"232 -118 CURVE SMOOTH",
"238 -113 OFFCURVE",
"245 -105 OFFCURVE",
"247 -98 CURVE",
"257 -76 LINE",
"260 -64 LINE",
"263 -57 OFFCURVE",
"264 -55 OFFCURVE",
"264 -53 CURVE SMOOTH",
"264 -52 OFFCURVE",
"263 -52 OFFCURVE",
"262 -52 CURVE SMOOTH",
"261 -52 OFFCURVE",
"261 -52 OFFCURVE",
"259 -53 CURVE SMOOTH",
"250 -62 OFFCURVE",
"232 -73 OFFCURVE",
"215 -82 CURVE SMOOTH",
"149 -113 OFFCURVE",
"46 -170 OFFCURVE",
"34 -182 CURVE SMOOTH",
"26 -189 OFFCURVE",
"20 -198 OFFCURVE",
"15 -212 CURVE SMOOTH",
"3 -244 LINE",
"1 -252 LINE",
"1 -254 OFFCURVE",
"2 -256 OFFCURVE",
"4 -256 CURVE SMOOTH",
"5 -256 OFFCURVE",
"6 -255 OFFCURVE",
"8 -253 CURVE SMOOTH",
"21 -239 OFFCURVE",
"51 -218 OFFCURVE",
"79 -203 CURVE SMOOTH"
);
}
);
};
layerId = "6E34CE51-C086-4FF0-804E-D019E96D60E0";
paths = (
{
closed = 1;
nodes = (
"158 -161 OFFCURVE",
"221 -129 OFFCURVE",
"232 -118 CURVE SMOOTH",
"247 -106 OFFCURVE",
"252 -88 OFFCURVE",
"264 -53 CURVE SMOOTH",
"264 -52 OFFCURVE",
"263 -52 OFFCURVE",
"262 -52 CURVE SMOOTH",
"261 -52 OFFCURVE",
"261 -51 OFFCURVE",
"259 -53 CURVE SMOOTH",
"230 -80 OFFCURVE",
"62 -154 OFFCURVE",
"34 -182 CURVE SMOOTH",
"26 -189 OFFCURVE",
"20 -198 OFFCURVE",
"15 -212 CURVE SMOOTH",
"10 -225 OFFCURVE",
"5 -239 OFFCURVE",
"1 -252 CURVE SMOOTH",
"0 -254 OFFCURVE",
"2 -256 OFFCURVE",
"4 -256 CURVE SMOOTH",
"5 -256 OFFCURVE",
"6 -255 OFFCURVE",
"8 -253 CURVE SMOOTH",
"21 -239 OFFCURVE",
"51 -218 OFFCURVE",
"79 -203 CURVE SMOOTH"
);
}
);
width = 266;
}
);
note = KASRA;
unicode = 0650;
script = arabic;
category = Mark;
subCategory = Nonspacing;
},
{
glyphname = SHADDA;
lastChange = "2020-08-30 21:26:48 +0000";
layers = (
{
anchors = (
{
name = _top;
position = "{134, 0}";
}
);
background = {
paths = (
{
closed = 1;
nodes = (
"152 228 OFFCURVE",
"163 224 OFFCURVE",
"175 224 CURVE SMOOTH",
"203 224 OFFCURVE",
"222 264 OFFCURVE",
"222 322 CURVE SMOOTH",
"222 337 OFFCURVE",
"215 370 OFFCURVE",
"205 395 CURVE SMOOTH",
"202 404 OFFCURVE",
"200 407 OFFCURVE",
"199 407 CURVE SMOOTH",
"198 407 OFFCURVE",
"198 407 OFFCURVE",
"197 405 CURVE",
"197 404 OFFCURVE",
"197 404 OFFCURVE",
"196 403 CURVE",
"194 397 OFFCURVE",
"191 385 OFFCURVE",
"189 369 CURVE SMOOTH",
"188 365 OFFCURVE",
"187 360 OFFCURVE",
"187 356 CURVE SMOOTH",
"187 351 OFFCURVE",
"189 344 OFFCURVE",
"193 329 CURVE SMOOTH",
"199 307 LINE",
"199 304 OFFCURVE",
"200 302 OFFCURVE",
"200 301 CURVE SMOOTH",
"200 294 OFFCURVE",
"195 291 OFFCURVE",
"187 291 CURVE SMOOTH",
"166 291 OFFCURVE",
"149 311 OFFCURVE",
"149 332 CURVE",
"143 355 LINE SMOOTH",
"140 367 OFFCURVE",
"139 370 OFFCURVE",
"135 370 CURVE SMOOTH",
"131 370 OFFCURVE",
"120 331 OFFCURVE",
"120 323 CURVE SMOOTH",
"120 312 LINE SMOOTH",
"120 290 OFFCURVE",
"109 278 OFFCURVE",
"91 278 CURVE SMOOTH",
"79 278 OFFCURVE",
"72 286 OFFCURVE",
"72 299 CURVE SMOOTH",
"72 312 LINE",
"74 324 LINE",
"74 337 LINE",
"75 342 OFFCURVE",
"75 345 OFFCURVE",
"75 346 CURVE SMOOTH",
"75 354 LINE",
"76 355 LINE",
"76 359 OFFCURVE",
"74 362 OFFCURVE",
"71 362 CURVE SMOOTH",
"68 362 OFFCURVE",
"67 361 OFFCURVE",
"66 358 CURVE",
"65 357 OFFCURVE",
"64 356 OFFCURVE",
"63 353 CURVE",
"62 352 OFFCURVE",
"60 349 OFFCURVE",
"58 345 CURVE SMOOTH",
"53 335 LINE SMOOTH",
"48 324 OFFCURVE",
"46 315 OFFCURVE",
"45 302 CURVE SMOOTH",
"42 279 LINE",
"42 273 OFFCURVE",
"41 269 OFFCURVE",
"41 265 CURVE SMOOTH",
"41 228 OFFCURVE",
"56 206 OFFCURVE",
"79 206 CURVE SMOOTH",
"94 206 OFFCURVE",
"110 215 OFFCURVE",
"125 232 CURVE SMOOTH",
"130 238 OFFCURVE",
"130 238 OFFCURVE",
"134 241 CURVE"
);
}
);
};
layerId = "6E34CE51-C086-4FF0-804E-D019E96D60E0";
paths = (
{
closed = 1;
nodes = (
"152 228 OFFCURVE",
"163 224 OFFCURVE",
"172 224 CURVE SMOOTH",
"203 224 OFFCURVE",
"222 267 OFFCURVE",
"222 310 CURVE SMOOTH",
"222 334 OFFCURVE",
"216 369 OFFCURVE",
"206 394 CURVE SMOOTH",
"202 404 OFFCURVE",
"200 407 OFFCURVE",
"198 407 CURVE SMOOTH",
"196 407 OFFCURVE",
"187 369 OFFCURVE",
"187 356 CURVE SMOOTH",
"187 354 OFFCURVE",
"187 354 OFFCURVE",
"199 307 CURVE SMOOTH",
"202 296 OFFCURVE",
"200 291 OFFCURVE",
"187 291 CURVE SMOOTH",
"166 291 OFFCURVE",
"149 311 OFFCURVE",
"149 332 CURVE",
"140 368 OFFCURVE",
"140 370 OFFCURVE",
"135 370 CURVE SMOOTH",
"131 370 OFFCURVE",
"121 335 OFFCURVE",
"120 323 CURVE SMOOTH",
"119 315 OFFCURVE",
"124 278 OFFCURVE",
"93 278 CURVE SMOOTH",
"79 278 OFFCURVE",
"72 286 OFFCURVE",
"72 300 CURVE SMOOTH",
"72 317 OFFCURVE",
"81 362 OFFCURVE",
"72 362 CURVE SMOOTH",
"67 362 OFFCURVE",
"59 350 OFFCURVE",
"53 334 CURVE SMOOTH",
"46 315 OFFCURVE",
"41 289 OFFCURVE",
"41 267 CURVE SMOOTH",
"41 228 OFFCURVE",
"56 206 OFFCURVE",
"79 206 CURVE SMOOTH",
"105 206 OFFCURVE",
"124 231 OFFCURVE",
"134 241 CURVE"
);
}
);
width = 266;
}
);
note = SHADDA;
unicode = 0651;
category = Mark;
subCategory = Nonspacing;
},
{
glyphname = MADDA;
lastChange = "2020-08-27 15:30:21 +0000";
layers = (
{
anchors = (
{
name = _top;
position = "{149, -41}";
},
{
name = bottom;
position = "{0, 0}";
},
{
name = top;
position = "{0, 0}";
}
);
layerId = "6E34CE51-C086-4FF0-804E-D019E96D60E0";
paths = (
{
closed = 1;
nodes = (
"19 158 CURVE SMOOTH",
"45 185 OFFCURVE",
"85 205 OFFCURVE",
"112 205 CURVE SMOOTH",
"121 205 OFFCURVE",
"128 204 OFFCURVE",
"143 199 CURVE SMOOTH",
"160 193 OFFCURVE",
"166 192 OFFCURVE",
"181 192 CURVE SMOOTH",
"266 192 OFFCURVE",
"342 276 OFFCURVE",
"374 350 CURVE SMOOTH",
"380 363 OFFCURVE",
"385 376 OFFCURVE",
"385 380 CURVE SMOOTH",
"385 383 OFFCURVE",
"383 385 OFFCURVE",
"381 385 CURVE SMOOTH",
"378 385 OFFCURVE",
"376 383 OFFCURVE",
"372 378 CURVE SMOOTH",
"337 331 OFFCURVE",
"284 301 OFFCURVE",
"238 301 CURVE SMOOTH",
"227 301 OFFCURVE",
"216 303 OFFCURVE",
"204 308 CURVE SMOOTH",
"191 314 OFFCURVE",
"183 317 OFFCURVE",
"166 317 CURVE SMOOTH",
"109 317 OFFCURVE",
"67 270 OFFCURVE",
"38 226 CURVE SMOOTH",
"15 192 OFFCURVE",
"0 162 OFFCURVE",
"0 152 CURVE SMOOTH",
"0 149 OFFCURVE",
"2 147 OFFCURVE",
"5 147 CURVE SMOOTH",
"10 147 OFFCURVE",
"10 149 OFFCURVE"
);
}
);
width = 346;
}
);
note = MADDA;
unicode = 0653;
script = arabic;
category = Mark;
subCategory = Nonspacing;
},
{
glyphname = dda;
lastChange = "2020-08-27 10:13:09 +0000";
layers = (
{
anchors = (
{
name = _top;
position = "{141, 0}";
},
{
name = top;
position = "{112, 266}";
}
);
background = {
paths = (
{
closed = 1;
nodes = (
"138 246 OFFCURVE",
"137 247 OFFCURVE",
"136 248 CURVE",
"135 248 OFFCURVE",
"134 249 OFFCURVE",
"132 250 CURVE",
"121 259 LINE SMOOTH",
"99 277 OFFCURVE",
"78 294 OFFCURVE",
"58 314 CURVE",
"56 317 LINE",
"55 317 OFFCURVE",
"55 316 OFFCURVE",
"54 316 CURVE",
"52 313 LINE",
"40 301 OFFCURVE",
"1 238 OFFCURVE",
"1 221 CURVE SMOOTH",
"1 207 OFFCURVE",
"63 159 OFFCURVE",
"81 159 CURVE SMOOTH",
"85 159 OFFCURVE",
"90 161 OFFCURVE",
"94 165 CURVE",
"96 169 OFFCURVE",
"99 173 OFFCURVE",
"107 185 CURVE SMOOTH",
"113 196 OFFCURVE",
"114 198 OFFCURVE",
"123 214 CURVE SMOOTH",
"140 245 LINE"
);
},
{
closed = 1;
nodes = (
"283 264 LINE",
"258 281 OFFCURVE",
"236 298 OFFCURVE",
"213 318 CURVE SMOOTH",
"208 323 OFFCURVE",
"204 326 OFFCURVE",
"202 328 CURVE SMOOTH",
"199 332 OFFCURVE",
"199 332 OFFCURVE",
"198 332 CURVE SMOOTH",
"196 332 OFFCURVE",
"192 327 OFFCURVE",
"185 318 CURVE SMOOTH",
"176 305 OFFCURVE",
"163 284 OFFCURVE",
"153 262 CURVE SMOOTH",
"145 245 LINE SMOOTH",
"142 238 OFFCURVE",
"141 235 OFFCURVE",
"141 233 CURVE SMOOTH",
"141 232 OFFCURVE",
"141 231 OFFCURVE",
"143 230 CURVE",
"145 227 LINE SMOOTH",
"154 214 OFFCURVE",
"204 176 OFFCURVE",
"219 176 CURVE SMOOTH",
"227 176 OFFCURVE",
"237 188 OFFCURVE",
"257 222 CURVE SMOOTH",
"261 228 OFFCURVE",
"263 233 OFFCURVE",
"266 236 CURVE"
);
}
);
};
components = (
{
alignment = -1;
name = _dot;
transform = "{0.91695, 0, 0, 0.91695, 112, 32}";
},
{
alignment = -1;
name = _dot;
transform = "{0.91695, 0, 0, 0.91695, -34, 14}";
}
);
layerId = "6E34CE51-C086-4FF0-804E-D019E96D60E0";
width = 290;
}
);
note = dda;
script = arabic;
category = Mark;
subCategory = Nonspacing;
},
{
glyphname = ddb;
lastChange = "2020-08-19 21:00:38 +0000";
layers = (
{
anchors = (
{
name = _bottom;
position = "{126, -245}";
},
{
name = bottom;
position = "{152, -448}";
}
);
components = (
{
name = _dot;
transform = "{0.88503, 0, 0, 0.96104, 113, -226}";
},
{
name = _dot;
transform = "{0.88503, 0, 0, 0.95112, -29, -242}";
}
);
layerId = "6E34CE51-C086-4FF0-804E-D019E96D60E0";
paths = (
{
closed = 0;
nodes = (
"-5 6 LINE"
);
}
);
width = 283;
}
);
note = ddb;
script = arabic;
category = Mark;
subCategory = Nonspacing;
},
{
glyphname = hamzada;
lastChange = "2020-08-21 08:41:26 +0000";
layers = (
{
layerId = "6E34CE51-C086-4FF0-804E-D019E96D60E0";
paths = (
{
closed = 1;
nodes = (
"13 81 OFFCURVE",
"14 80 OFFCURVE",
"15 80 CURVE SMOOTH",
"17 80 OFFCURVE",
"53 119 OFFCURVE",
"85 144 CURVE SMOOTH",
"129 178 OFFCURVE",
"199 211 OFFCURVE",
"222 240 CURVE SMOOTH",
"235 256 OFFCURVE",
"252 297 OFFCURVE",
"252 311 CURVE SMOOTH",
"252 311 OFFCURVE",
"251 312 OFFCURVE",
"250 312 CURVE SMOOTH",
"246 312 OFFCURVE",
"210 283 OFFCURVE",
"194 273 CURVE SMOOTH",
"174 260 OFFCURVE",
"147 251 OFFCURVE",
"129 251 CURVE SMOOTH",
"109 251 OFFCURVE",
"82 261 OFFCURVE",
"82 279 CURVE SMOOTH",
"82 295 OFFCURVE",
"101 310 OFFCURVE",
"128 310 CURVE SMOOTH",
"138 310 OFFCURVE",
"151 308 OFFCURVE",
"159 305 CURVE",
"174 321 OFFCURVE",
"180 330 OFFCURVE",
"180 343 CURVE SMOOTH",
"180 360 OFFCURVE",
"166 373 OFFCURVE",
"147 373 CURVE SMOOTH",
"97 373 OFFCURVE",
"39 281 OFFCURVE",
"39 232 CURVE SMOOTH",
"39 211 OFFCURVE",
"49 196 OFFCURVE",
"72 185 CURVE",
"39 162 OFFCURVE",
"13 115 OFFCURVE",
"13 82 CURVE SMOOTH"
);
}
);
width = 267;
}
);
note = hamzada;
script = arabic;
category = Mark;
subCategory = Nonspacing;
},
{
glyphname = haydb;
lastChange = "2020-08-21 08:41:55 +0000";
layers = (
{
anchors = (
{
name = _comma;
position = "{134, 61}";
}
);
background = {
paths = (
{
closed = 1;
nodes = (
"108 -43 OFFCURVE",
"107 -41 OFFCURVE",
"107 -38 CURVE SMOOTH",
"107 -16 OFFCURVE",
"120 13 OFFCURVE",
"149 57 CURVE SMOOTH",
"163 78 LINE",
"169 85 OFFCURVE",
"171 90 OFFCURVE",
"178 100 CURVE",
"172 105 OFFCURVE",
"167 107 OFFCURVE",
"164 107 CURVE SMOOTH",
"160 107 OFFCURVE",
"155 104 OFFCURVE",
"149 97 CURVE SMOOTH",
"133 79 LINE SMOOTH",
"129 74 OFFCURVE",
"123 66 OFFCURVE",
"115 56 CURVE SMOOTH",
"96 30 LINE SMOOTH",
"71 -8 OFFCURVE",
"48 -55 OFFCURVE",
"48 -101 CURVE SMOOTH",
"48 -148 OFFCURVE",
"71 -179 OFFCURVE",
"106 -179 CURVE SMOOTH",
"148 -179 OFFCURVE",
"186 -132 OFFCURVE",
"186 -81 CURVE SMOOTH",
"186 -54 OFFCURVE",
"170 -35 OFFCURVE",
"146 -35 CURVE SMOOTH",
"135 -35 OFFCURVE",
"125 -38 OFFCURVE",
"108 -46 CURVE"
);
}
);
};
layerId = "6E34CE51-C086-4FF0-804E-D019E96D60E0";
paths = (
{
closed = 1;
nodes = (
"102 -10 OFFCURVE",
"131 33 OFFCURVE",
"178 100 CURVE",
"172 105 OFFCURVE",
"167 107 OFFCURVE",
"164 107 CURVE SMOOTH",
"160 107 OFFCURVE",
"155 104 OFFCURVE",
"149 97 CURVE SMOOTH",
"83 22 OFFCURVE",
"48 -38 OFFCURVE",
"48 -101 CURVE SMOOTH",
"48 -148 OFFCURVE",
"71 -179 OFFCURVE",
"106 -179 CURVE SMOOTH",
"148 -179 OFFCURVE",
"186 -132 OFFCURVE",
"186 -81 CURVE SMOOTH",
"186 -54 OFFCURVE",
"170 -35 OFFCURVE",
"146 -35 CURVE SMOOTH",
"135 -35 OFFCURVE",
"125 -38 OFFCURVE",
"108 -46 CURVE"
);
}
);
width = 233;
}
);
note = haydb;
script = arabic;
category = Mark;
subCategory = Nonspacing;
},
{
glyphname = sdb;
lastChange = "2020-08-19 21:18:46 +0000";
layers = (
{
anchors = (
{
name = _bottom;
position = "{126, -245}";
},
{
name = bottom;
position = "{117, -380}";
}
);
layerId = "6E34CE51-C086-4FF0-804E-D019E96D60E0";
paths = (
{
closed = 1;
nodes = (
"79 65 OFFCURVE",
"34 -2 OFFCURVE",
"34 -21 CURVE SMOOTH",
"34 -41 OFFCURVE",
"104 -88 OFFCURVE",
"125 -88 CURVE SMOOTH",
"133 -88 OFFCURVE",
"145 -77 OFFCURVE",
"157 -57 CURVE SMOOTH",
"193 4 LINE",
"162 17 OFFCURVE",
"114 54 OFFCURVE",
"91 82 CURVE"
);
}
);
width = 226;
}
);
note = sdb;
script = arabic;
category = Mark;
subCategory = Nonspacing;
},
{
glyphname = tda;
lastChange = "2020-08-27 10:13:14 +0000";
layers = (
{
anchors = (
{
name = _top;
position = "{141, 0}";
},
{
name = top;
position = "{106, 358}";
}
);
layerId = "6E34CE51-C086-4FF0-804E-D019E96D60E0";
paths = (
{
closed = 1;
nodes = (
"129 182 OFFCURVE",
"95 210 OFFCURVE",
"56 247 CURVE",
"49 247 OFFCURVE",
"1 170 OFFCURVE",
"1 152 CURVE SMOOTH",
"1 141 OFFCURVE",
"59 90 OFFCURVE",
"81 90 CURVE SMOOTH",
"85 90 OFFCURVE",
"89 92 OFFCURVE",
"93 96 CURVE SMOOTH",
"105 110 OFFCURVE",
"134 168 OFFCURVE",
"140 176 CURVE"
);
},
{
closed = 1;
nodes = (
"91 385 OFFCURVE",
"52 326 OFFCURVE",
"52 312 CURVE SMOOTH",
"52 300 OFFCURVE",
"107 254 OFFCURVE",
"129 254 CURVE SMOOTH",
"148 254 OFFCURVE",
"175 319 OFFCURVE",
"190 337 CURVE",
"160 353 OFFCURVE",
"125 380 OFFCURVE",
"104 403 CURVE"
);
},
{
closed = 1;
nodes = (
"283 195 CURVE",
"257 209 OFFCURVE",
"232 233 OFFCURVE",
"198 263 CURVE",
"183 249 OFFCURVE",
"141 177 OFFCURVE",
"141 165 CURVE SMOOTH",
"141 152 OFFCURVE",
"207 107 OFFCURVE",
"219 107 CURVE SMOOTH",
"228 107 OFFCURVE",
"230 110 OFFCURVE"
);
}
);
width = 283;
}
);
note = tda;
script = arabic;
category = Mark;
subCategory = Nonspacing;
},
{
glyphname = tdb;
lastChange = "2020-08-19 21:01:55 +0000";
layers = (
{
anchors = (
{
name = _bottom;
position = "{158, -292}";
},
{
name = bottom;
position = "{152, -548}";
}
);
background = {
paths = (
{
closed = 1;
nodes = (
"149 -83 LINE",
"140 -95 OFFCURVE",
"132 -108 OFFCURVE",
"123 -123 CURVE SMOOTH",
"116 -135 LINE SMOOTH",
"104 -156 OFFCURVE",
"98 -168 OFFCURVE",
"98 -174 CURVE SMOOTH",
"98 -181 OFFCURVE",
"111 -195 OFFCURVE",
"128 -207 CURVE SMOOTH",
"141 -216 LINE SMOOTH",
"157 -227 OFFCURVE",
"167 -231 OFFCURVE",
"176 -231 CURVE SMOOTH",
"185 -231 OFFCURVE",
"195 -219 OFFCURVE",
"215 -182 CURVE SMOOTH",
"219 -175 OFFCURVE",
"222 -170 OFFCURVE",
"225 -166 CURVE",
"225 -165 OFFCURVE",
"228 -161 OFFCURVE",
"232 -153 CURVE",
"235 -149 LINE",
"209 -135 OFFCURVE",
"175 -109 OFFCURVE",
"158 -92 CURVE SMOOTH"
);
}
);
};
layerId = "6E34CE51-C086-4FF0-804E-D019E96D60E0";
paths = (
{
closed = 1;
nodes = (
"129 4 OFFCURVE",
"95 32 OFFCURVE",
"56 69 CURVE",
"49 69 OFFCURVE",
"1 -8 OFFCURVE",
"1 -26 CURVE SMOOTH",
"1 -37 OFFCURVE",
"59 -88 OFFCURVE",
"81 -88 CURVE SMOOTH",
"85 -88 OFFCURVE",
"89 -86 OFFCURVE",
"93 -82 CURVE SMOOTH",
"105 -68 OFFCURVE",
"134 -10 OFFCURVE",
"140 -2 CURVE"
);
},
{
closed = 1;
nodes = (
"136 -101 OFFCURVE",
"97 -160 OFFCURVE",
"97 -174 CURVE SMOOTH",
"97 -186 OFFCURVE",
"152 -232 OFFCURVE",
"174 -232 CURVE SMOOTH",
"193 -232 OFFCURVE",
"220 -167 OFFCURVE",
"235 -149 CURVE",
"205 -133 OFFCURVE",
"170 -106 OFFCURVE",
"149 -83 CURVE"
);
},
{
closed = 1;
nodes = (
"228 -71 OFFCURVE",
"230 -68 OFFCURVE",
"283 17 CURVE",
"257 31 OFFCURVE",
"232 55 OFFCURVE",
"198 85 CURVE",
"183 71 OFFCURVE",
"141 -1 OFFCURVE",
"141 -13 CURVE SMOOTH",
"141 -26 OFFCURVE",
"207 -71 OFFCURVE",
"219 -71 CURVE SMOOTH"
);
}
);
width = 283;
}
);
note = tdb;
script = arabic;
category = Mark;
subCategory = Nonspacing;
},
{
glyphname = tdi;
lastChange = "2020-08-27 18:30:33 +0000";
layers = (
{
anchors = (
{
name = _inside;
position = "{149, -83}";
},
{
name = bottom;
position = "{152, -548}";
}
);
background = {
paths = (
{
closed = 1;
nodes = (
"149 -83 LINE",
"140 -95 OFFCURVE",
"132 -108 OFFCURVE",
"123 -123 CURVE SMOOTH",
"116 -135 LINE SMOOTH",
"104 -156 OFFCURVE",
"98 -168 OFFCURVE",
"98 -174 CURVE SMOOTH",
"98 -181 OFFCURVE",
"111 -195 OFFCURVE",
"128 -207 CURVE SMOOTH",
"141 -216 LINE SMOOTH",
"157 -227 OFFCURVE",
"167 -231 OFFCURVE",
"176 -231 CURVE SMOOTH",
"185 -231 OFFCURVE",
"195 -219 OFFCURVE",
"215 -182 CURVE SMOOTH",
"219 -175 OFFCURVE",
"222 -170 OFFCURVE",
"225 -166 CURVE",
"225 -165 OFFCURVE",
"228 -161 OFFCURVE",
"232 -153 CURVE",
"235 -149 LINE",
"209 -135 OFFCURVE",
"175 -109 OFFCURVE",
"158 -92 CURVE SMOOTH"
);
}
);
};
layerId = "6E34CE51-C086-4FF0-804E-D019E96D60E0";
paths = (
{
closed = 1;
nodes = (
"129 4 OFFCURVE",
"95 32 OFFCURVE",
"56 69 CURVE",
"49 69 OFFCURVE",
"1 -8 OFFCURVE",
"1 -26 CURVE SMOOTH",
"1 -37 OFFCURVE",
"59 -88 OFFCURVE",
"81 -88 CURVE SMOOTH",
"85 -88 OFFCURVE",
"89 -86 OFFCURVE",
"93 -82 CURVE SMOOTH",
"105 -68 OFFCURVE",
"134 -10 OFFCURVE",
"140 -2 CURVE"
);
},
{
closed = 1;
nodes = (
"136 -101 OFFCURVE",
"97 -160 OFFCURVE",
"97 -174 CURVE SMOOTH",
"97 -186 OFFCURVE",
"152 -232 OFFCURVE",
"174 -232 CURVE SMOOTH",
"193 -232 OFFCURVE",
"220 -167 OFFCURVE",
"235 -149 CURVE",
"205 -133 OFFCURVE",
"170 -106 OFFCURVE",
"149 -83 CURVE"
);
},
{
closed = 1;
nodes = (
"228 -71 OFFCURVE",
"230 -68 OFFCURVE",
"283 17 CURVE",
"257 31 OFFCURVE",
"232 55 OFFCURVE",
"198 85 CURVE",
"183 71 OFFCURVE",
"141 -1 OFFCURVE",
"141 -13 CURVE SMOOTH",
"141 -26 OFFCURVE",
"207 -71 OFFCURVE",
"219 -71 CURVE SMOOTH"
);
}
);
width = 283;
}
);
note = tdb;
script = arabic;
category = Mark;
subCategory = Nonspacing;
},
{
color = 0;
glyphname = toeda;
lastChange = "2020-08-30 21:26:22 +0000";
layers = (
{
anchors = (
{
name = _top;
position = "{125, -8}";
},
{
name = top;
position = "{128, 306}";
}
);
layerId = "6E34CE51-C086-4FF0-804E-D019E96D60E0";
paths = (
{
closed = 1;
nodes = (
"69 149 OFFCURVE",
"67 149 OFFCURVE",
"65 149 CURVE",
"63 148 OFFCURVE",
"59 148 OFFCURVE",
"52 147 CURVE SMOOTH",
"20 144 LINE",
"17 143 LINE",
"15 143 LINE",
"15 141 LINE SMOOTH",
"15 139 OFFCURVE",
"16 139 OFFCURVE",
"24 133 CURVE SMOOTH",
"35 125 LINE SMOOTH",
"48 115 OFFCURVE",
"76 106 OFFCURVE",
"92 103 CURVE",
"98 103 OFFCURVE",
"111 102 OFFCURVE",
"121 102 CURVE SMOOTH",
"156 102 OFFCURVE",
"201 127 OFFCURVE",
"229 163 CURVE SMOOTH",
"250 191 OFFCURVE",
"271 238 OFFCURVE",
"271 258 CURVE SMOOTH",
"271 286 OFFCURVE",
"251 306 OFFCURVE",
"225 306 CURVE SMOOTH",
"202 306 OFFCURVE",
"172 295 OFFCURVE",
"150 270 CURVE SMOOTH",
"140 259 LINE",
"134 255 LINE",
"137 264 OFFCURVE",
"139 276 OFFCURVE",
"139 295 CURVE SMOOTH",
"139 308 LINE SMOOTH",
"139 323 OFFCURVE",
"140 326 OFFCURVE",
"140 332 CURVE SMOOTH",
"140 341 LINE",
"139 351 LINE SMOOTH",
"139 356 OFFCURVE",
"140 361 OFFCURVE",
"140 369 CURVE",
"141 376 OFFCURVE",
"148 402 OFFCURVE",
"144 402 CURVE SMOOTH",
"141 402 OFFCURVE",
"125 384 OFFCURVE",
"119 377 CURVE SMOOTH",
"97 343 OFFCURVE",
"88 331 OFFCURVE",
"88 311 CURVE",
"87 308 OFFCURVE",
"87 302 OFFCURVE",
"87 293 CURVE SMOOTH",
"87 220 LINE SMOOTH",
"87 207 OFFCURVE",
"85 200 OFFCURVE",
"81 185 CURVE SMOOTH",
"77 170 LINE SMOOTH",
"75 161 OFFCURVE",
"74 158 OFFCURVE",
"72 150 CURVE"
);
},
{
closed = 1;
nodes = (
"107 202 OFFCURVE",
"154 243 OFFCURVE",
"192 243 CURVE SMOOTH",
"202 243 OFFCURVE",
"213 239 OFFCURVE",
"220 233 CURVE SMOOTH",
"226 227 OFFCURVE",
"230 220 OFFCURVE",
"230 214 CURVE SMOOTH",
"230 190 OFFCURVE",
"173 166 OFFCURVE",
"88 152 CURVE"
);
}
);
width = 292;
}
);
note = toeda;
script = arabic;
category = Mark;
subCategory = Nonspacing;
},
{
glyphname = AINi1;
lastChange = "2020-08-27 11:50:01 +0000";
layers = (
{
anchors = (
{
name = bottom;
position = "{166, -381}";
},
{
name = exit;
position = "{0, 0}";
},
{
name = top;
position = "{151, 333}";
}
);
background = {
paths = (
{
closed = 1;
nodes = (
"87 76 OFFCURVE",
"36 49 OFFCURVE",
"-12 34 CURVE SMOOTH",
"-29 28 LINE SMOOTH",
"-66 16 OFFCURVE",
"-94 6 OFFCURVE",
"-114 -29 CURVE",
"-106 -43 OFFCURVE",
"-91 -51 OFFCURVE",
"-70 -51 CURVE SMOOTH",
"-6 -51 OFFCURVE",
"93 15 OFFCURVE",
"142 57 CURVE SMOOTH",
"152 67 OFFCURVE",
"163 78 OFFCURVE",
"175 87 CURVE",
"184 96 OFFCURVE",
"193 103 OFFCURVE",
"202 111 CURVE SMOOTH",
"208 116 OFFCURVE",
"212 119 OFFCURVE",
"214 121 CURVE SMOOTH",
"230 133 LINE SMOOTH",
"250 148 OFFCURVE",
"260 156 OFFCURVE",
"271 167 CURVE SMOOTH",
"275 172 OFFCURVE",
"279 176 OFFCURVE",
"283 180 CURVE",
"283 181 OFFCURVE",
"290 189 OFFCURVE",
"301 203 CURVE SMOOTH",
"316 221 LINE SMOOTH",
"324 231 OFFCURVE",
"337 248 OFFCURVE",
"350 268 CURVE SMOOTH",
"353 273 OFFCURVE",
"356 277 OFFCURVE",
"358 281 CURVE SMOOTH",
"359 283 OFFCURVE",
"359 285 OFFCURVE",
"359 287 CURVE SMOOTH",
"359 291 OFFCURVE",
"356 295 OFFCURVE",
"351 295 CURVE SMOOTH",
"350 295 OFFCURVE",
"350 295 OFFCURVE",
"348 294 CURVE",
"347 294 OFFCURVE",
"346 293 OFFCURVE",
"343 290 CURVE",
"311 266 LINE SMOOTH",
"274 237 OFFCURVE",
"229 220 OFFCURVE",
"194 220 CURVE SMOOTH",
"131 220 OFFCURVE",
"81 245 OFFCURVE",
"81 277 CURVE SMOOTH",
"81 307 OFFCURVE",
"112 328 OFFCURVE",
"154 328 CURVE SMOOTH",
"164 328 OFFCURVE",
"181 325 OFFCURVE",
"193 322 CURVE SMOOTH",
"211 317 LINE",
"213 316 OFFCURVE",
"217 315 OFFCURVE",
"224 314 CURVE SMOOTH",
"233 314 LINE SMOOTH",
"249 314 OFFCURVE",
"260 323 OFFCURVE",
"260 338 CURVE SMOOTH",
"260 370 OFFCURVE",
"226 400 OFFCURVE",
"190 400 CURVE SMOOTH",
"106 400 OFFCURVE",
"7 280 OFFCURVE",
"7 199 CURVE SMOOTH",
"7 147 OFFCURVE",
"48 115 OFFCURVE",
"128 107 CURVE"
);
}
);
};
layerId = "6E34CE51-C086-4FF0-804E-D019E96D60E0";
paths = (
{
closed = 1;
nodes = (
"87 76 OFFCURVE",
"35 52 OFFCURVE",
"-12 34 CURVE SMOOTH",
"-81 7 OFFCURVE",
"-114 -5 OFFCURVE",
"-114 -27 CURVE SMOOTH",
"-114 -46 OFFCURVE",
"-91 -51 OFFCURVE",
"-68 -51 CURVE SMOOTH",
"-52 -51 OFFCURVE",
"13 -48 OFFCURVE",
"175 85 CURVE SMOOTH",
"270 163 OFFCURVE",
"359 254 OFFCURVE",
"359 285 CURVE SMOOTH",
"359 291 OFFCURVE",
"356 295 OFFCURVE",
"352 295 CURVE SMOOTH",
"336 295 OFFCURVE",
"279 220 OFFCURVE",
"188 220 CURVE SMOOTH",
"140 220 OFFCURVE",
"81 241 OFFCURVE",
"81 279 CURVE SMOOTH",
"81 307 OFFCURVE",
"115 328 OFFCURVE",
"150 328 CURVE SMOOTH",
"178 328 OFFCURVE",
"207 314 OFFCURVE",
"231 314 CURVE SMOOTH",
"250 314 OFFCURVE",
"260 323 OFFCURVE",
"260 339 CURVE SMOOTH",
"260 368 OFFCURVE",
"228 400 OFFCURVE",
"187 400 CURVE SMOOTH",
"110 400 OFFCURVE",
"7 283 OFFCURVE",
"7 199 CURVE SMOOTH",
"7 147 OFFCURVE",
"48 115 OFFCURVE",
"128 107 CURVE"
);
}
);
width = 380;
}
);
note = AINi1;
},
{
glyphname = AINi2;
lastChange = "2020-08-27 12:01:13 +0000";
layers = (
{
anchors = (
{
name = bottom;
position = "{103, -485}";
},
{
name = exit;
position = "{0, 0}";
},
{
name = top;
position = "{129, 222}";
}
);
background = {
paths = (
{
closed = 1;
nodes = (
"-6 63 LINE SMOOTH",
"-45 63 OFFCURVE",
"-74 31 OFFCURVE",
"-74 -11 CURVE SMOOTH",
"-74 -55 OFFCURVE",
"-46 -78 OFFCURVE",
"6 -78 CURVE SMOOTH",
"68 -78 OFFCURVE",
"143 -39 OFFCURVE",
"188 16 CURVE SMOOTH",
"205 38 OFFCURVE",
"256 128 OFFCURVE",
"256 155 CURVE SMOOTH",
"256 158 OFFCURVE",
"253 162 OFFCURVE",
"250 162 CURVE SMOOTH",
"248 162 OFFCURVE",
"246 160 OFFCURVE",
"242 155 CURVE SMOOTH",
"226 136 LINE SMOOTH",
"193 98 OFFCURVE",
"160 78 OFFCURVE",
"128 78 CURVE SMOOTH",
"92 78 OFFCURVE",
"57 111 OFFCURVE",
"57 144 CURVE SMOOTH",
"57 182 OFFCURVE",
"99 210 OFFCURVE",
"155 210 CURVE SMOOTH",
"160 210 OFFCURVE",
"165 210 OFFCURVE",
"171 209 CURVE SMOOTH",
"184 208 LINE",
"194 208 LINE SMOOTH",
"214 208 OFFCURVE",
"223 215 OFFCURVE",
"223 232 CURVE SMOOTH",
"223 254 OFFCURVE",
"192 285 OFFCURVE",
"161 285 CURVE SMOOTH",
"87 285 OFFCURVE",
"12 185 OFFCURVE",
"-4 63 CURVE"
);
}
);
};
layerId = "6E34CE51-C086-4FF0-804E-D019E96D60E0";
paths = (
{
closed = 1;
nodes = (
"-45 63 OFFCURVE",
"-74 31 OFFCURVE",
"-74 -11 CURVE SMOOTH",
"-74 -55 OFFCURVE",
"-46 -78 OFFCURVE",
"10 -78 CURVE SMOOTH",
"76 -78 OFFCURVE",
"130 -51 OFFCURVE",
"181 10 CURVE SMOOTH",
"222 59 OFFCURVE",
"256 125 OFFCURVE",
"256 151 CURVE SMOOTH",
"256 159 OFFCURVE",
"253 162 OFFCURVE",
"251 162 CURVE SMOOTH",
"244 162 OFFCURVE",
"192 78 OFFCURVE",
"130 78 CURVE SMOOTH",
"91 78 OFFCURVE",
"57 111 OFFCURVE",
"57 144 CURVE SMOOTH",
"57 182 OFFCURVE",
"99 210 OFFCURVE",
"154 210 CURVE SMOOTH",
"186 210 OFFCURVE",
"223 200 OFFCURVE",
"223 229 CURVE SMOOTH",
"223 254 OFFCURVE",
"195 285 OFFCURVE",
"157 285 CURVE SMOOTH",
"87 285 OFFCURVE",
"10 179 OFFCURVE",
"-4 63 CURVE"
);
}
);
width = 285;
}
);
note = AINi2;
},
{
glyphname = AINi3;
lastChange = "2020-08-19 21:33:27 +0000";
layers = (
{
anchors = (
{
name = bottom;
position = "{214, -351}";
},
{
name = exit;
position = "{0, 0}";
},
{
name = top;
position = "{114, 292}";
}
);
background = {
paths = (
{
closed = 1;
nodes = (
"23 72 OFFCURVE",
"30 74 OFFCURVE",
"-17 6 CURVE SMOOTH",
"-34 -23 OFFCURVE",
"-44 -54 OFFCURVE",
"-44 -79 CURVE SMOOTH",
"-44 -82 OFFCURVE",
"-44 -83 OFFCURVE",
"-42 -83 CURVE SMOOTH",
"-37 -83 OFFCURVE",
"-5 -36 OFFCURVE",
"17 -9 CURVE SMOOTH",
"40 18 OFFCURVE",
"43 21 OFFCURVE",
"105 59 CURVE",
"139 74 LINE",
"182 89 LINE",
"202 97 LINE SMOOTH",
"250 116 OFFCURVE",
"282 152 OFFCURVE",
"309 194 CURVE SMOOTH",
"318 208 LINE SMOOTH",
"322 214 OFFCURVE",
"324 217 OFFCURVE",
"325 219 CURVE SMOOTH",
"329 228 LINE SMOOTH",
"330 231 OFFCURVE",
"331 232 OFFCURVE",
"331 233 CURVE SMOOTH",
"331 236 OFFCURVE",
"329 238 OFFCURVE",
"327 238 CURVE SMOOTH",
"325 238 OFFCURVE",
"324 238 OFFCURVE",
"320 236 CURVE SMOOTH",
"282 215 LINE SMOOTH",
"247 196 OFFCURVE",
"209 185 OFFCURVE",
"178 185 CURVE SMOOTH",
"115 185 OFFCURVE",
"56 217 OFFCURVE",
"56 251 CURVE SMOOTH",
"56 273 OFFCURVE",
"84 292 OFFCURVE",
"115 292 CURVE SMOOTH",
"149 292 OFFCURVE",
"174 278 OFFCURVE",
"203 278 CURVE SMOOTH",
"218 278 OFFCURVE",
"228 287 OFFCURVE",
"228 299 CURVE SMOOTH",
"228 332 OFFCURVE",
"194 362 OFFCURVE",
"158 362 CURVE SMOOTH",
"81 362 OFFCURVE",
"-24 247 OFFCURVE",
"-24 170 CURVE SMOOTH",
"-24 134 OFFCURVE",
"8 102 OFFCURVE",
"51 94 CURVE"
);
}
);
};
layerId = "6E34CE51-C086-4FF0-804E-D019E96D60E0";
paths = (
{
closed = 1;
nodes = (
"49 92 OFFCURVE",
"24 74 OFFCURVE",
"-17 6 CURVE SMOOTH",
"-36 -26 OFFCURVE",
"-44 -52 OFFCURVE",
"-44 -80 CURVE SMOOTH",
"-44 -82 OFFCURVE",
"-44 -83 OFFCURVE",
"-42 -83 CURVE SMOOTH",
"-37 -83 OFFCURVE",
"-4 -35 OFFCURVE",
"17 -9 CURVE SMOOTH",
"55 37 OFFCURVE",
"86 53 OFFCURVE",
"202 97 CURVE SMOOTH",
"256 118 OFFCURVE",
"284 156 OFFCURVE",
"309 194 CURVE SMOOTH",
"327 221 OFFCURVE",
"331 231 OFFCURVE",
"331 234 CURVE SMOOTH",
"331 236 OFFCURVE",
"329 238 OFFCURVE",
"327 238 CURVE SMOOTH",
"325 238 OFFCURVE",
"324 238 OFFCURVE",
"320 236 CURVE SMOOTH",
"282 215 LINE SMOOTH",
"247 196 OFFCURVE",
"211 185 OFFCURVE",
"176 185 CURVE SMOOTH",
"116 185 OFFCURVE",
"56 217 OFFCURVE",
"56 251 CURVE SMOOTH",
"56 273 OFFCURVE",
"83 292 OFFCURVE",
"117 292 CURVE SMOOTH",
"146 292 OFFCURVE",
"177 278 OFFCURVE",
"200 278 CURVE SMOOTH",
"218 278 OFFCURVE",
"228 286 OFFCURVE",
"228 302 CURVE SMOOTH",
"228 330 OFFCURVE",
"196 362 OFFCURVE",
"157 362 CURVE SMOOTH",
"81 362 OFFCURVE",
"-24 245 OFFCURVE",
"-24 173 CURVE SMOOTH",
"-24 132 OFFCURVE",
"9 102 OFFCURVE",
"51 94 CURVE"
);
}
);
width = 350;
}
);
note = AINi3;
},
{
glyphname = AINi4;
lastChange = "2020-08-19 21:34:59 +0000";
layers = (
{
anchors = (
{
name = bottom;
position = "{133, -444}";
},
{
name = exit;
position = "{0, 0}";
},
{
name = top;
position = "{55, 225}";
}
);
background = {
paths = (
{
closed = 1;
nodes = (
"-48 29 OFFCURVE",
"-50 27 OFFCURVE",
"-52 26 CURVE SMOOTH",
"-55 24 OFFCURVE",
"-61 22 OFFCURVE",
"-69 17 CURVE",
"-150 -23 OFFCURVE",
"-205 -84 OFFCURVE",
"-219 -150 CURVE",
"-213 -144 OFFCURVE",
"-210 -142 OFFCURVE",
"-206 -139 CURVE SMOOTH",
"-192 -128 LINE SMOOTH",
"-184 -122 OFFCURVE",
"-178 -118 OFFCURVE",
"-176 -116 CURVE",
"-174 -115 OFFCURVE",
"-168 -112 OFFCURVE",
"-160 -107 CURVE SMOOTH",
"-146 -98 LINE SMOOTH",
"-137 -92 OFFCURVE",
"-133 -90 OFFCURVE",
"-110 -79 CURVE SMOOTH",
"-87 -68 LINE",
"-64 -59 LINE SMOOTH",
"-56 -56 OFFCURVE",
"-50 -52 OFFCURVE",
"-47 -51 CURVE SMOOTH",
"1 -32 LINE SMOOTH",
"3 -31 OFFCURVE",
"7 -30 OFFCURVE",
"13 -28 CURVE SMOOTH",
"20 -25 OFFCURVE",
"25 -24 OFFCURVE",
"29 -22 CURVE SMOOTH",
"40 -18 LINE SMOOTH",
"42 -17 OFFCURVE",
"46 -15 OFFCURVE",
"51 -14 CURVE SMOOTH",
"62 -11 LINE",
"72 -7 LINE",
"143 16 LINE SMOOTH",
"169 24 OFFCURVE",
"207 45 OFFCURVE",
"226 66 CURVE SMOOTH",
"235 76 LINE SMOOTH",
"239 81 OFFCURVE",
"242 84 OFFCURVE",
"242 85 CURVE",
"283 142 LINE SMOOTH",
"285 145 OFFCURVE",
"285 147 OFFCURVE",
"285 148 CURVE SMOOTH",
"285 151 OFFCURVE",
"284 153 OFFCURVE",
"281 153 CURVE SMOOTH",
"278 153 LINE",
"264 147 LINE",
"263 146 OFFCURVE",
"257 143 OFFCURVE",
"247 138 CURVE SMOOTH",
"198 114 OFFCURVE",
"146 97 OFFCURVE",
"117 97 CURVE SMOOTH",
"77 97 OFFCURVE",
"-6 135 OFFCURVE",
"-6 183 CURVE SMOOTH",
"-6 205 OFFCURVE",
"21 222 OFFCURVE",
"57 222 CURVE SMOOTH",
"89 222 OFFCURVE",
"122 208 OFFCURVE",
"146 208 CURVE SMOOTH",
"163 208 OFFCURVE",
"172 215 OFFCURVE",
"172 230 CURVE SMOOTH",
"172 263 OFFCURVE",
"137 292 OFFCURVE",
"97 292 CURVE SMOOTH",
"55 292 OFFCURVE",
"15 268 OFFCURVE",
"-31 216 CURVE SMOOTH",
"-75 168 OFFCURVE",
"-94 135 OFFCURVE",
"-94 107 CURVE SMOOTH",
"-94 85 OFFCURVE",
"-85 69 OFFCURVE",
"-68 52 CURVE SMOOTH",
"-57 41 LINE SMOOTH",
"-52 36 OFFCURVE",
"-50 34 OFFCURVE",
"-44 31 CURVE"
);
}
);
};
layerId = "6E34CE51-C086-4FF0-804E-D019E96D60E0";
paths = (
{
closed = 1;
nodes = (
"-129 -12 OFFCURVE",
"-201 -66 OFFCURVE",
"-219 -150 CURVE",
"-164 -107 OFFCURVE",
"-110 -76 OFFCURVE",
"-47 -51 CURVE SMOOTH",
"-1 -32 OFFCURVE",
"60 -12 OFFCURVE",
"143 16 CURVE SMOOTH",
"214 40 OFFCURVE",
"277 123 OFFCURVE",
"284 147 CURVE SMOOTH",
"285 150 OFFCURVE",
"285 154 OFFCURVE",
"281 153 CURVE SMOOTH",
"272 152 OFFCURVE",
"269 150 OFFCURVE",
"247 138 CURVE SMOOTH",
"201 113 OFFCURVE",
"144 97 OFFCURVE",
"117 97 CURVE SMOOTH",
"75 97 OFFCURVE",
"-6 137 OFFCURVE",
"-6 180 CURVE SMOOTH",
"-6 206 OFFCURVE",
"22 222 OFFCURVE",
"57 222 CURVE SMOOTH",
"90 222 OFFCURVE",
"122 208 OFFCURVE",
"146 208 CURVE SMOOTH",
"163 208 OFFCURVE",
"172 215 OFFCURVE",
"172 231 CURVE SMOOTH",
"172 262 OFFCURVE",
"138 292 OFFCURVE",
"97 292 CURVE SMOOTH",
"62 292 OFFCURVE",
"15 268 OFFCURVE",
"-28 222 CURVE SMOOTH",
"-64 184 OFFCURVE",
"-94 133 OFFCURVE",
"-94 105 CURVE SMOOTH",
"-94 78 OFFCURVE",
"-67 42 OFFCURVE",
"-44 31 CURVE"
);
}
);
width = 305;
}
);
note = AINi4;
},
{
glyphname = AINi5;
lastChange = "2020-08-20 05:41:53 +0000";
layers = (
{
anchors = (
{
name = bottom;
position = "{59, -307}";
},
{
name = exit;
position = "{0, 0}";
},
{
name = top;
position = "{0, 244}";
}
);
background = {
paths = (
{
closed = 1;
nodes = (
"-103 3 LINE SMOOTH",
"-176 -47 OFFCURVE",
"-210 -113 OFFCURVE",
"-233 -195 CURVE SMOOTH",
"-234 -201 OFFCURVE",
"-236 -208 OFFCURVE",
"-238 -217 CURVE SMOOTH",
"-239 -225 OFFCURVE",
"-240 -234 OFFCURVE",
"-240 -238 CURVE SMOOTH",
"-240 -241 LINE",
"-219 -230 OFFCURVE",
"-190 -192 OFFCURVE",
"-176 -172 CURVE SMOOTH",
"-136 -118 OFFCURVE",
"-65 -61 OFFCURVE",
"-12 -48 CURVE SMOOTH",
"0 -43 LINE",
"10 -40 LINE SMOOTH",
"25 -35 OFFCURVE",
"41 -29 OFFCURVE",
"56 -23 CURVE SMOOTH",
"75 -16 LINE SMOOTH",
"113 -3 OFFCURVE",
"153 10 OFFCURVE",
"180 40 CURVE",
"186 45 OFFCURVE",
"189 49 OFFCURVE",
"190 51 CURVE",
"219 88 LINE",
"252 134 LINE",
"254 137 LINE",
"254 139 LINE SMOOTH",
"254 143 OFFCURVE",
"252 145 OFFCURVE",
"249 145 CURVE SMOOTH",
"247 145 OFFCURVE",
"245 144 OFFCURVE",
"242 143 CURVE SMOOTH",
"227 136 LINE SMOOTH",
"178 116 OFFCURVE",
"131 101 OFFCURVE",
"76 101 CURVE SMOOTH",
"38 101 OFFCURVE",
"-58 130 OFFCURVE",
"-58 179 CURVE SMOOTH",
"-58 207 OFFCURVE",
"-24 229 OFFCURVE",
"19 229 CURVE SMOOTH",
"42 229 OFFCURVE",
"80 214 OFFCURVE",
"101 214 CURVE SMOOTH",
"120 214 OFFCURVE",
"129 222 OFFCURVE",
"129 240 CURVE SMOOTH",
"129 271 OFFCURVE",
"93 301 OFFCURVE",
"56 301 CURVE SMOOTH",
"-30 301 OFFCURVE",
"-141 180 OFFCURVE",
"-141 97 CURVE SMOOTH",
"-141 65 OFFCURVE",
"-122 39 OFFCURVE",
"-83 17 CURVE"
);
}
);
};
layerId = "6E34CE51-C086-4FF0-804E-D019E96D60E0";
paths = (
{
closed = 1;
nodes = (
"-172 -39 OFFCURVE",
"-240 -151 OFFCURVE",
"-240 -241 CURVE",
"-219 -230 OFFCURVE",
"-190 -192 OFFCURVE",
"-176 -172 CURVE SMOOTH",
"-115 -89 OFFCURVE",
"-75 -72 OFFCURVE",
"75 -16 CURVE SMOOTH",
"130 5 OFFCURVE",
"151 11 OFFCURVE",
"180 41 CURVE SMOOTH",
"206 68 OFFCURVE",
"249 125 OFFCURVE",
"253 137 CURVE SMOOTH",
"255 142 OFFCURVE",
"252 145 OFFCURVE",
"249 145 CURVE SMOOTH",
"247 145 OFFCURVE",
"245 144 OFFCURVE",
"242 143 CURVE SMOOTH",
"152 105 OFFCURVE",
"134 101 OFFCURVE",
"98 101 CURVE SMOOTH",
"-3 101 OFFCURVE",
"-58 145 OFFCURVE",
"-58 179 CURVE SMOOTH",
"-58 207 OFFCURVE",
"-23 229 OFFCURVE",
"15 229 CURVE SMOOTH",
"46 229 OFFCURVE",
"78 214 OFFCURVE",
"102 214 CURVE SMOOTH",
"120 214 OFFCURVE",
"129 222 OFFCURVE",
"129 238 CURVE SMOOTH",
"129 271 OFFCURVE",
"94 301 OFFCURVE",
"53 301 CURVE SMOOTH",
"-29 301 OFFCURVE",
"-141 180 OFFCURVE",
"-141 99 CURVE SMOOTH",
"-141 65 OFFCURVE",
"-122 39 OFFCURVE",
"-83 17 CURVE"
);
}
);
width = 275;
}
);
note = AINi5;
},
{
glyphname = AINi6;
lastChange = "2020-08-20 05:41:53 +0000";
layers = (
{
anchors = (
{
name = bottom;
position = "{166, -185}";
},
{
name = exit;
position = "{0, 0}";
},
{
name = top;
position = "{159, 329}";
}
);
background = {
paths = (
{
closed = 1;
nodes = (
"75 59 OFFCURVE",
"25 38 OFFCURVE",
"-19 38 CURVE SMOOTH",
"-39 38 OFFCURVE",
"-53 43 OFFCURVE",
"-73 56 CURVE SMOOTH",
"-82 62 OFFCURVE",
"-86 64 OFFCURVE",
"-92 64 CURVE SMOOTH",
"-112 64 OFFCURVE",
"-129 37 OFFCURVE",
"-129 3 CURVE SMOOTH",
"-129 -34 OFFCURVE",
"-106 -53 OFFCURVE",
"-62 -53 CURVE SMOOTH",
"-8 -53 OFFCURVE",
"82 -6 OFFCURVE",
"156 62 CURVE SMOOTH",
"197 99 LINE",
"210 111 OFFCURVE",
"216 116 OFFCURVE",
"242 134 CURVE SMOOTH",
"263 149 OFFCURVE",
"295 183 OFFCURVE",
"320 217 CURVE SMOOTH",
"347 252 LINE SMOOTH",
"357 266 OFFCURVE",
"364 278 OFFCURVE",
"364 282 CURVE SMOOTH",
"364 287 OFFCURVE",
"360 290 OFFCURVE",
"356 290 CURVE SMOOTH",
"352 290 OFFCURVE",
"337 278 OFFCURVE",
"334 275 CURVE SMOOTH",
"280 233 OFFCURVE",
"237 215 OFFCURVE",
"192 215 CURVE SMOOTH",
"135 215 OFFCURVE",
"84 242 OFFCURVE",
"84 272 CURVE SMOOTH",
"84 299 OFFCURVE",
"115 323 OFFCURVE",
"151 323 CURVE SMOOTH",
"154 323 OFFCURVE",
"159 323 OFFCURVE",
"165 322 CURVE SMOOTH",
"173 322 OFFCURVE",
"179 321 OFFCURVE",
"182 320 CURVE SMOOTH",
"211 313 LINE SMOOTH",
"220 311 OFFCURVE",
"224 309 OFFCURVE",
"225 309 CURVE SMOOTH",
"227 309 OFFCURVE",
"231 309 OFFCURVE",
"236 308 CURVE SMOOTH",
"237 308 LINE SMOOTH",
"254 308 OFFCURVE",
"264 318 OFFCURVE",
"264 333 CURVE SMOOTH",
"264 365 OFFCURVE",
"228 395 OFFCURVE",
"192 395 CURVE SMOOTH",
"110 395 OFFCURVE",
"11 274 OFFCURVE",
"11 197 CURVE SMOOTH",
"11 143 OFFCURVE",
"58 105 OFFCURVE",
"132 102 CURVE"
);
}
);
};
layerId = "6E34CE51-C086-4FF0-804E-D019E96D60E0";
paths = (
{
closed = 1;
nodes = (
"75 59 OFFCURVE",
"25 38 OFFCURVE",
"-19 38 CURVE SMOOTH",
"-39 38 OFFCURVE",
"-53 43 OFFCURVE",
"-73 56 CURVE SMOOTH",
"-81 61 OFFCURVE",
"-85 64 OFFCURVE",
"-92 64 CURVE SMOOTH",
"-112 64 OFFCURVE",
"-129 37 OFFCURVE",
"-129 5 CURVE SMOOTH",
"-129 -34 OFFCURVE",
"-105 -53 OFFCURVE",
"-67 -53 CURVE SMOOTH",
"-7 -53 OFFCURVE",
"81 -6 OFFCURVE",
"156 62 CURVE SMOOTH",
"216 116 LINE",
"269 149 OFFCURVE",
"317 208 OFFCURVE",
"346 250 CURVE SMOOTH",
"359 269 OFFCURVE",
"364 279 OFFCURVE",
"364 283 CURVE SMOOTH",
"364 287 OFFCURVE",
"360 290 OFFCURVE",
"356 290 CURVE SMOOTH",
"352 290 OFFCURVE",
"337 278 OFFCURVE",
"334 275 CURVE SMOOTH",
"280 233 OFFCURVE",
"237 215 OFFCURVE",
"192 215 CURVE SMOOTH",
"135 215 OFFCURVE",
"84 242 OFFCURVE",
"84 273 CURVE SMOOTH",
"84 295 OFFCURVE",
"109 323 OFFCURVE",
"154 323 CURVE SMOOTH",
"187 323 OFFCURVE",
"220 308 OFFCURVE",
"239 308 CURVE SMOOTH",
"254 308 OFFCURVE",
"264 318 OFFCURVE",
"264 334 CURVE SMOOTH",
"264 363 OFFCURVE",
"230 395 OFFCURVE",
"190 395 CURVE SMOOTH",
"114 395 OFFCURVE",
"11 278 OFFCURVE",
"11 197 CURVE SMOOTH",
"11 143 OFFCURVE",
"58 105 OFFCURVE",
"132 102 CURVE"
);
}
);
width = 383;
}
);
note = AINi6;
},
{
glyphname = AINi7;
lastChange = "2020-08-20 05:44:48 +0000";
layers = (
{
anchors = (
{
name = bottom;
position = "{188, -229}";
},
{
name = exit;
position = "{0, 0}";
},
{
name = top;
position = "{148, 322}";
}
);
background = {
paths = (
{
closed = 1;
nodes = (
"111 80 OFFCURVE",
"109 79 OFFCURVE",
"101 71 CURVE SMOOTH",
"89 58 LINE",
"79 49 LINE SMOOTH",
"78 48 OFFCURVE",
"76 46 OFFCURVE",
"74 45 CURVE SMOOTH",
"73 44 OFFCURVE",
"72 43 OFFCURVE",
"71 43 CURVE",
"70 42 OFFCURVE",
"68 42 OFFCURVE",
"66 42 CURVE SMOOTH",
"63 42 OFFCURVE",
"55 43 OFFCURVE",
"46 46 CURVE SMOOTH",
"26 51 OFFCURVE",
"9 54 OFFCURVE",
"0 54 CURVE SMOOTH",
"-36 54 OFFCURVE",
"-97 -23 OFFCURVE",
"-97 -49 CURVE SMOOTH",
"-97 -60 OFFCURVE",
"-90 -69 OFFCURVE",
"-79 -72 CURVE",
"-75 -74 OFFCURVE",
"-70 -75 OFFCURVE",
"-52 -77 CURVE SMOOTH",
"-42 -79 OFFCURVE",
"-36 -79 OFFCURVE",
"-31 -79 CURVE SMOOTH",
"-20 -79 OFFCURVE",
"-9 -77 OFFCURVE",
"-2 -72 CURVE",
"0 -72 OFFCURVE",
"3 -70 OFFCURVE",
"7 -67 CURVE SMOOTH",
"14 -62 OFFCURVE",
"18 -59 OFFCURVE",
"19 -59 CURVE",
"31 -49 LINE",
"96 8 LINE",
"120 28 LINE SMOOTH",
"127 33 OFFCURVE",
"131 36 OFFCURVE",
"132 37 CURVE SMOOTH",
"144 47 LINE",
"150 50 OFFCURVE",
"157 55 OFFCURVE",
"162 59 CURVE SMOOTH",
"177 68 OFFCURVE",
"196 80 OFFCURVE",
"213 86 CURVE",
"233 96 LINE SMOOTH",
"236 97 OFFCURVE",
"240 99 OFFCURVE",
"246 102 CURVE SMOOTH",
"260 109 LINE SMOOTH",
"277 117 OFFCURVE",
"289 125 OFFCURVE",
"297 133 CURVE SMOOTH",
"311 147 LINE",
"314 149 OFFCURVE",
"317 153 OFFCURVE",
"321 158 CURVE SMOOTH",
"324 162 OFFCURVE",
"327 165 OFFCURVE",
"328 166 CURVE SMOOTH",
"331 171 OFFCURVE",
"333 173 OFFCURVE",
"345 190 CURVE SMOOTH",
"349 195 OFFCURVE",
"352 199 OFFCURVE",
"353 202 CURVE",
"363 216 LINE SMOOTH",
"375 233 OFFCURVE",
"377 238 OFFCURVE",
"377 241 CURVE SMOOTH",
"377 245 OFFCURVE",
"374 248 OFFCURVE",
"371 248 CURVE SMOOTH",
"369 248 OFFCURVE",
"367 248 OFFCURVE",
"365 246 CURVE",
"354 239 LINE SMOOTH",
"316 213 OFFCURVE",
"266 193 OFFCURVE",
"219 193 CURVE SMOOTH",
"151 193 OFFCURVE",
"89 226 OFFCURVE",
"89 262 CURVE SMOOTH",
"89 288 OFFCURVE",
"124 309 OFFCURVE",
"164 309 CURVE SMOOTH",
"176 309 OFFCURVE",
"187 309 OFFCURVE",
"198 307 CURVE",
"199 306 OFFCURVE",
"204 305 OFFCURVE",
"213 304 CURVE SMOOTH",
"230 300 OFFCURVE",
"241 298 OFFCURVE",
"245 298 CURVE SMOOTH",
"262 298 OFFCURVE",
"274 309 OFFCURVE",
"274 324 CURVE SMOOTH",
"274 356 OFFCURVE",
"241 384 OFFCURVE",
"202 384 CURVE SMOOTH",
"123 384 OFFCURVE",
"8 262 OFFCURVE",
"8 182 CURVE SMOOTH",
"8 138 OFFCURVE",
"40 109 OFFCURVE",
"109 88 CURVE SMOOTH",
"111 87 OFFCURVE",
"114 86 OFFCURVE",
"118 85 CURVE"
);
}
);
};
layerId = "6E34CE51-C086-4FF0-804E-D019E96D60E0";
paths = (
{
closed = 1;
nodes = (
"104 77 OFFCURVE",
"83 45 OFFCURVE",
"66 42 CURVE",
"58 42 OFFCURVE",
"16 54 OFFCURVE",
"0 54 CURVE SMOOTH",
"-40 54 OFFCURVE",
"-97 -23 OFFCURVE",
"-97 -50 CURVE SMOOTH",
"-97 -71 OFFCURVE",
"-66 -79 OFFCURVE",
"-34 -79 CURVE SMOOTH",
"9 -79 OFFCURVE",
"7 -64 OFFCURVE",
"96 8 CURVE SMOOTH",
"163 62 OFFCURVE",
"186 73 OFFCURVE",
"213 87 CURVE SMOOTH",
"276 118 OFFCURVE",
"281 118 OFFCURVE",
"297 133 CURVE SMOOTH",
"329 163 OFFCURVE",
"377 227 OFFCURVE",
"377 241 CURVE SMOOTH",
"377 245 OFFCURVE",
"374 248 OFFCURVE",
"371 248 CURVE SMOOTH",
"366 248 OFFCURVE",
"360 243 OFFCURVE",
"354 239 CURVE SMOOTH",
"319 215 OFFCURVE",
"266 193 OFFCURVE",
"215 193 CURVE SMOOTH",
"152 193 OFFCURVE",
"89 226 OFFCURVE",
"89 262 CURVE SMOOTH",
"89 287 OFFCURVE",
"121 309 OFFCURVE",
"168 309 CURVE SMOOTH",
"202 309 OFFCURVE",
"234 298 OFFCURVE",
"248 298 CURVE SMOOTH",
"262 298 OFFCURVE",
"274 309 OFFCURVE",
"274 326 CURVE SMOOTH",
"274 355 OFFCURVE",
"241 384 OFFCURVE",
"202 384 CURVE SMOOTH",
"123 384 OFFCURVE",
"8 262 OFFCURVE",
"8 182 CURVE SMOOTH",
"8 130 OFFCURVE",
"58 100 OFFCURVE",
"118 85 CURVE"
);
}
);
width = 397;
}
);
note = AINi7;
},
{
glyphname = ASTERISK;
lastChange = "2020-08-20 05:44:58 +0000";
layers = (
{
anchors = (
{
name = bottom;
position = "{0, 0}";
},
{
name = top;
position = "{0, 0}";
}
);
layerId = "6E34CE51-C086-4FF0-804E-D019E96D60E0";
paths = (
{
closed = 1;
nodes = (
"286 382 OFFCURVE",
"284 380 OFFCURVE",
"280 377 CURVE SMOOTH",
"268 367 LINE SMOOTH",
"242 345 OFFCURVE",
"224 302 OFFCURVE",
"224 264 CURVE SMOOTH",
"224 253 OFFCURVE",
"225 234 OFFCURVE",
"227 224 CURVE SMOOTH",
"231 203 LINE SMOOTH",
"234 190 OFFCURVE",
"235 177 OFFCURVE",
"235 168 CURVE SMOOTH",
"235 163 OFFCURVE",
"235 160 OFFCURVE",
"234 153 CURVE",
"236 153 LINE",
"241 167 OFFCURVE",
"245 174 OFFCURVE",
"256 188 CURVE SMOOTH",
"285 228 OFFCURVE",
"290 236 OFFCURVE",
"299 256 CURVE SMOOTH",
"306 275 OFFCURVE",
"310 293 OFFCURVE",
"310 313 CURVE SMOOTH",
"310 324 OFFCURVE",
"306 343 OFFCURVE",
"301 356 CURVE SMOOTH",
"295 372 LINE SMOOTH",
"293 377 OFFCURVE",
"292 380 OFFCURVE",
"290 388 CURVE"
);
},
{
closed = 1;
nodes = (
"46 306 LINE",
"60 310 LINE",
"62 310 OFFCURVE",
"66 311 OFFCURVE",
"71 311 CURVE SMOOTH",
"76 312 OFFCURVE",
"80 312 OFFCURVE",
"81 312 CURVE SMOOTH",
"93 312 LINE SMOOTH",
"167 312 OFFCURVE",
"214 328 OFFCURVE",
"252 393 CURVE SMOOTH",
"256 400 LINE SMOOTH",
"259 405 OFFCURVE",
"260 406 OFFCURVE",
"263 410 CURVE",
"258 410 LINE",
"252 411 LINE SMOOTH",
"250 411 OFFCURVE",
"247 411 OFFCURVE",
"242 412 CURVE SMOOTH",
"228 414 OFFCURVE",
"221 415 OFFCURVE",
"211 415 CURVE SMOOTH",
"162 415 OFFCURVE",
"126 394 OFFCURVE",
"80 339 CURVE SMOOTH",
"67 323 OFFCURVE",
"64 320 OFFCURVE",
"50 311 CURVE SMOOTH",
"49 310 OFFCURVE",
"48 309 OFFCURVE",
"46 308 CURVE"
);
},
{
closed = 1;
nodes = (
"263 444 LINE",
"260 448 OFFCURVE",
"259 449 OFFCURVE",
"256 454 CURVE SMOOTH",
"255 456 OFFCURVE",
"253 459 OFFCURVE",
"250 465 CURVE SMOOTH",
"240 481 LINE SMOOTH",
"237 485 OFFCURVE",
"234 490 OFFCURVE",
"230 494 CURVE SMOOTH",
"196 532 OFFCURVE",
"151 542 OFFCURVE",
"101 543 CURVE SMOOTH",
"84 544 LINE SMOOTH",
"69 544 OFFCURVE",
"60 546 OFFCURVE",
"48 551 CURVE",
"47 549 LINE",
"60 539 OFFCURVE",
"70 530 OFFCURVE",
"82 515 CURVE SMOOTH",
"97 498 LINE",
"123 463 OFFCURVE",
"169 439 OFFCURVE",
"213 439 CURVE SMOOTH",
"218 439 OFFCURVE",
"224 440 OFFCURVE",
"229 440 CURVE",
"245 443 LINE",
"257 444 LINE"
);
},
{
closed = 1;
nodes = (
"292 475 OFFCURVE",
"294 478 OFFCURVE",
"300 496 CURVE SMOOTH",
"309 519 OFFCURVE",
"311 526 OFFCURVE",
"311 541 CURVE SMOOTH",
"311 578 OFFCURVE",
"298 614 OFFCURVE",
"273 646 CURVE SMOOTH",
"261 661 LINE SMOOTH",
"259 663 OFFCURVE",
"256 668 OFFCURVE",
"253 674 CURVE SMOOTH",
"249 680 OFFCURVE",
"247 684 OFFCURVE",
"245 687 CURVE",
"240 701 LINE",
"237 701 LINE",
"238 694 OFFCURVE",
"239 691 OFFCURVE",
"239 686 CURVE SMOOTH",
"239 680 OFFCURVE",
"237 668 OFFCURVE",
"235 661 CURVE SMOOTH",
"231 643 LINE",
"231 639 OFFCURVE",
"229 633 OFFCURVE",
"228 625 CURVE SMOOTH",
"227 616 OFFCURVE",
"226 609 OFFCURVE",
"226 603 CURVE",
"225 599 OFFCURVE",
"225 595 OFFCURVE",
"225 591 CURVE SMOOTH",
"225 551 OFFCURVE",
"242 512 OFFCURVE",
"271 486 CURVE SMOOTH",
"281 478 LINE SMOOTH",
"282 477 OFFCURVE",
"284 474 OFFCURVE",
"287 471 CURVE",
"287 470 OFFCURVE",
"289 468 OFFCURVE",
"291 466 CURVE"
);
},
{
closed = 1;
nodes = (
"325 459 LINE",
"327 459 LINE",
"328 460 OFFCURVE",
"328 460 OFFCURVE",
"329 460 CURVE",
"335 463 OFFCURVE",
"338 463 OFFCURVE",
"347 466 CURVE SMOOTH",
"412 485 OFFCURVE",
"440 529 OFFCURVE",
"456 592 CURVE SMOOTH",
"463 620 OFFCURVE",
"467 631 OFFCURVE",
"476 645 CURVE",
"474 646 LINE",
"461 633 OFFCURVE",
"459 631 OFFCURVE",
"445 625 CURVE SMOOTH",
"386 595 OFFCURVE",
"330 557 OFFCURVE",
"327 484 CURVE SMOOTH",
"327 475 LINE SMOOTH",
"326 466 OFFCURVE",
"326 463 OFFCURVE",
"324 458 CURVE"
);
},
{
closed = 1;
nodes = (
"338 427 LINE",
"342 426 OFFCURVE",
"343 425 OFFCURVE",
"346 423 CURVE SMOOTH",
"369 408 LINE SMOOTH",
"391 394 OFFCURVE",
"416 387 OFFCURVE",
"446 387 CURVE SMOOTH",
"456 387 OFFCURVE",
"466 388 OFFCURVE",
"479 392 CURVE SMOOTH",
"497 396 OFFCURVE",
"510 401 OFFCURVE",
"526 409 CURVE SMOOTH",
"543 416 OFFCURVE",
"557 421 OFFCURVE",
"565 423 CURVE SMOOTH",
"568 424 OFFCURVE",
"571 424 OFFCURVE",
"577 425 CURVE SMOOTH",
"580 425 LINE",
"579 428 LINE",
"569 428 OFFCURVE",
"559 430 OFFCURVE",
"549 435 CURVE SMOOTH",
"493 458 LINE SMOOTH",
"482 463 OFFCURVE",
"459 466 OFFCURVE",
"443 466 CURVE SMOOTH",
"413 466 OFFCURVE",
"389 459 OFFCURVE",
"365 443 CURVE SMOOTH",
"358 438 OFFCURVE",
"354 436 OFFCURVE",
"352 435 CURVE SMOOTH"
);
},
{
closed = 1;
nodes = (
"325 390 OFFCURVE",
"326 388 OFFCURVE",
"326 384 CURVE SMOOTH",
"326 376 LINE SMOOTH",
"328 314 OFFCURVE",
"356 275 OFFCURVE",
"423 239 CURVE SMOOTH",
"442 229 LINE SMOOTH",
"456 222 OFFCURVE",
"465 215 OFFCURVE",
"472 206 CURVE",
"474 207 LINE",
"467 219 OFFCURVE",
"466 222 OFFCURVE",
"461 240 CURVE SMOOTH",
"456 258 LINE SMOOTH",
"448 288 OFFCURVE",
"446 294 OFFCURVE",
"440 306 CURVE SMOOTH",
"424 343 OFFCURVE",
"394 373 OFFCURVE",
"356 385 CURVE SMOOTH",
"341 389 LINE",
"323 397 LINE"
);
}
);
width = 602;
}
);
note = ASTERISK;
},
{
glyphname = BEi1;
lastChange = "2020-08-20 05:46:15 +0000";
layers = (
{
anchors = (
{
name = bottom;
position = "{74, -451}";
},
{
name = exit;
position = "{0, 0}";
},
{
name = top;
position = "{85, 262}";
}
);
background = {
paths = (
{
closed = 1;
nodes = (
"-105 -44 OFFCURVE",
"-90 -51 OFFCURVE",
"-70 -51 CURVE SMOOTH",
"7 -51 OFFCURVE",
"90 41 OFFCURVE",
"115 109 CURVE SMOOTH",
"122 129 OFFCURVE",
"126 157 OFFCURVE",
"126 186 CURVE SMOOTH",
"126 254 LINE",
"127 292 LINE SMOOTH",
"127 306 OFFCURVE",
"128 312 OFFCURVE",
"128 318 CURVE",
"130 326 LINE",
"130 330 OFFCURVE",
"131 333 OFFCURVE",
"131 334 CURVE",
"133 340 LINE",
"133 343 LINE SMOOTH",
"133 345 OFFCURVE",
"132 346 OFFCURVE",
"130 346 CURVE SMOOTH",
"127 346 OFFCURVE",
"124 344 OFFCURVE",
"119 339 CURVE",
"118 337 OFFCURVE",
"114 333 OFFCURVE",
"108 326 CURVE SMOOTH",
"58 275 OFFCURVE",
"49 253 OFFCURVE",
"49 187 CURVE SMOOTH",
"49 177 LINE",
"51 142 LINE",
"51 116 LINE",
"52 96 LINE SMOOTH",
"52 76 OFFCURVE",
"50 66 OFFCURVE",
"44 60 CURVE SMOOTH",
"35 50 OFFCURVE",
"12 39 OFFCURVE",
"-18 30 CURVE SMOOTH",
"-57 19 LINE",
"-72 12 LINE SMOOTH",
"-75 11 OFFCURVE",
"-83 6 OFFCURVE",
"-89 2 CURVE SMOOTH",
"-94 -2 OFFCURVE",
"-97 -4 OFFCURVE",
"-99 -6 CURVE SMOOTH",
"-103 -11 LINE SMOOTH",
"-110 -18 OFFCURVE",
"-113 -23 OFFCURVE",
"-116 -30 CURVE"
);
}
);
};
layerId = "6E34CE51-C086-4FF0-804E-D019E96D60E0";
paths = (
{
closed = 1;
nodes = (
"-105 -44 OFFCURVE",
"-90 -51 OFFCURVE",
"-69 -51 CURVE SMOOTH",
"8 -51 OFFCURVE",
"90 41 OFFCURVE",
"115 110 CURVE SMOOTH",
"122 129 OFFCURVE",
"126 151 OFFCURVE",
"126 186 CURVE SMOOTH",
"127 279 OFFCURVE",
"128 314 OFFCURVE",
"130 326 CURVE SMOOTH",
"131 332 OFFCURVE",
"133 338 OFFCURVE",
"133 343 CURVE SMOOTH",
"133 345 OFFCURVE",
"132 346 OFFCURVE",
"130 346 CURVE SMOOTH",
"127 346 OFFCURVE",
"123 342 OFFCURVE",
"107 327 CURVE SMOOTH",
"64 286 OFFCURVE",
"50 250 OFFCURVE",
"49 187 CURVE SMOOTH",
"48 132 OFFCURVE",
"60 84 OFFCURVE",
"45 61 CURVE SMOOTH",
"21 25 OFFCURVE",
"-90 35 OFFCURVE",
"-116 -30 CURVE"
);
}
);
width = 176;
}
);
note = BEi1;
},
{
glyphname = BEi2;
lastChange = "2020-08-28 09:13:48 +0000";
layers = (
{
anchors = (
{
name = bottom;
position = "{37, -439}";
},
{
name = exit;
position = "{0, 0}";
},
{
name = top;
position = "{60, 100}";
}
);
background = {
paths = (
{
closed = 1;
nodes = (
"-109 -41 OFFCURVE",
"-93 -50 OFFCURVE",
"-66 -50 CURVE SMOOTH",
"-2 -50 OFFCURVE",
"46 6 OFFCURVE",
"69 61 CURVE SMOOTH",
"75 73 OFFCURVE",
"77 78 OFFCURVE",
"81 87 CURVE SMOOTH",
"89 109 OFFCURVE",
"93 121 OFFCURVE",
"93 129 CURVE SMOOTH",
"93 138 OFFCURVE",
"89 143 OFFCURVE",
"82 143 CURVE SMOOTH",
"75 143 OFFCURVE",
"73 139 OFFCURVE",
"70 134 CURVE SMOOTH",
"69 132 OFFCURVE",
"67 129 OFFCURVE",
"65 123 CURVE SMOOTH",
"52 95 OFFCURVE",
"37 72 OFFCURVE",
"20 56 CURVE SMOOTH",
"11 46 OFFCURVE",
"-3 37 OFFCURVE",
"-23 30 CURVE SMOOTH",
"-75 10 LINE SMOOTH",
"-99 0 OFFCURVE",
"-112 -9 OFFCURVE",
"-117 -22 CURVE"
);
}
);
};
layerId = "6E34CE51-C086-4FF0-804E-D019E96D60E0";
paths = (
{
closed = 1;
nodes = (
"-109 -41 OFFCURVE",
"-93 -50 OFFCURVE",
"-66 -50 CURVE SMOOTH",
"-9 -50 OFFCURVE",
"35 -10 OFFCURVE",
"69 60 CURVE SMOOTH",
"81 85 OFFCURVE",
"93 116 OFFCURVE",
"93 130 CURVE SMOOTH",
"93 138 OFFCURVE",
"89 143 OFFCURVE",
"82 143 CURVE SMOOTH",
"78 143 OFFCURVE",
"74 142 OFFCURVE",
"70 134 CURVE SMOOTH",
"44 83 OFFCURVE",
"27 48 OFFCURVE",
"-22 30 CURVE SMOOTH",
"-91 4 OFFCURVE",
"-109 -2 OFFCURVE",
"-117 -22 CURVE"
);
}
);
width = 125;
}
);
note = BEi2;
},
{
glyphname = BEi3;
lastChange = "2020-08-20 05:47:35 +0000";
layers = (
{
anchors = (
{
name = bottom;
position = "{62, -477}";
},
{
name = exit;
position = "{0, 0}";
},
{
name = top;
position = "{133, 122}";
}
);
background = {
paths = (
{
closed = 1;
nodes = (
"123 55 LINE",
"135 82 LINE",
"151 128 LINE",
"152 136 LINE SMOOTH",
"153 140 OFFCURVE",
"153 142 OFFCURVE",
"153 145 CURVE SMOOTH",
"153 153 OFFCURVE",
"149 158 OFFCURVE",
"143 158 CURVE SMOOTH",
"140 158 OFFCURVE",
"136 156 OFFCURVE",
"134 153 CURVE SMOOTH",
"126 139 LINE",
"119 126 LINE SMOOTH",
"96 81 OFFCURVE",
"66 58 OFFCURVE",
"33 58 CURVE SMOOTH",
"28 58 OFFCURVE",
"0 63 OFFCURVE",
"-6 63 CURVE SMOOTH",
"-44 63 OFFCURVE",
"-73 31 OFFCURVE",
"-73 -11 CURVE SMOOTH",
"-73 -50 OFFCURVE",
"-47 -77 OFFCURVE",
"-9 -77 CURVE SMOOTH",
"23 -77 OFFCURVE",
"57 -54 OFFCURVE",
"84 -13 CURVE SMOOTH",
"99 8 LINE"
);
}
);
};
layerId = "6E34CE51-C086-4FF0-804E-D019E96D60E0";
paths = (
{
closed = 1;
nodes = (
"120 39 OFFCURVE",
"153 115 OFFCURVE",
"153 143 CURVE SMOOTH",
"153 153 OFFCURVE",
"149 158 OFFCURVE",
"143 158 CURVE SMOOTH",
"140 158 OFFCURVE",
"136 156 OFFCURVE",
"134 153 CURVE SMOOTH",
"122 131 OFFCURVE",
"90 58 OFFCURVE",
"37 58 CURVE SMOOTH",
"23 58 OFFCURVE",
"5 63 OFFCURVE",
"-9 63 CURVE SMOOTH",
"-43 63 OFFCURVE",
"-73 31 OFFCURVE",
"-73 -11 CURVE SMOOTH",
"-73 -50 OFFCURVE",
"-47 -77 OFFCURVE",
"-9 -77 CURVE SMOOTH",
"26 -77 OFFCURVE",
"54 -55 OFFCURVE",
"83 -14 CURVE SMOOTH"
);
}
);
width = 188;
}
);
note = BEi3;
},
{
glyphname = BEi4;
lastChange = "2020-08-20 05:52:38 +0000";
layers = (
{
anchors = (
{
name = bottom;
position = "{85, -707}";
},
{
name = exit;
position = "{0, 0}";
},
{
name = top;
position = "{40, 59}";
}
);
background = {
paths = (
{
closed = 1;
nodes = (
"-223 -161 LINE",
"-212 -150 OFFCURVE",
"-195 -133 OFFCURVE",
"-182 -121 CURVE SMOOTH",
"-149 -93 OFFCURVE",
"-105 -75 OFFCURVE",
"-64 -61 CURVE SMOOTH",
"-35 -50 LINE SMOOTH",
"-16 -42 OFFCURVE",
"4 -35 OFFCURVE",
"24 -29 CURVE SMOOTH",
"58 -18 LINE",
"61 -16 OFFCURVE",
"72 -12 OFFCURVE",
"89 -6 CURVE SMOOTH",
"101 -1 OFFCURVE",
"108 1 OFFCURVE",
"111 3 CURVE",
"117 5 OFFCURVE",
"123 8 OFFCURVE",
"129 11 CURVE SMOOTH",
"170 36 OFFCURVE",
"204 86 OFFCURVE",
"219 130 CURVE SMOOTH",
"220 133 LINE SMOOTH",
"221 135 OFFCURVE",
"221 135 OFFCURVE",
"221 136 CURVE SMOOTH",
"221 139 OFFCURVE",
"219 142 OFFCURVE",
"216 142 CURVE SMOOTH",
"215 142 OFFCURVE",
"214 141 OFFCURVE",
"212 139 CURVE SMOOTH",
"201 127 OFFCURVE",
"195 122 OFFCURVE",
"183 116 CURVE SMOOTH",
"153 99 OFFCURVE",
"120 87 OFFCURVE",
"87 76 CURVE SMOOTH",
"50 64 LINE SMOOTH",
"-44 33 OFFCURVE",
"-115 -3 OFFCURVE",
"-153 -40 CURVE SMOOTH",
"-183 -68 OFFCURVE",
"-205 -106 OFFCURVE",
"-221 -155 CURVE SMOOTH"
);
}
);
};
layerId = "6E34CE51-C086-4FF0-804E-D019E96D60E0";
paths = (
{
closed = 1;
nodes = (
"-223 -161 LINE",
"-212 -150 OFFCURVE",
"-195 -133 OFFCURVE",
"-182 -121 CURVE SMOOTH",
"-134 -78 OFFCURVE",
"-73 -60 OFFCURVE",
"-11 -42 CURVE SMOOTH",
"78 -16 OFFCURVE",
"142 3 OFFCURVE",
"191 74 CURVE SMOOTH",
"206 96 OFFCURVE",
"221 125 OFFCURVE",
"221 137 CURVE SMOOTH",
"221 141 OFFCURVE",
"219 142 OFFCURVE",
"217 142 CURVE SMOOTH",
"215 142 OFFCURVE",
"214 141 OFFCURVE",
"212 139 CURVE SMOOTH",
"201 128 OFFCURVE",
"195 122 OFFCURVE",
"183 115 CURVE SMOOTH",
"154 98 OFFCURVE",
"111 83 OFFCURVE",
"64 67 CURVE SMOOTH",
"-69 21 OFFCURVE",
"-97 9 OFFCURVE",
"-152 -39 CURVE SMOOTH",
"-164 -49 OFFCURVE",
"-196 -80 OFFCURVE",
"-221 -155 CURVE SMOOTH"
);
}
);
width = 244;
}
);
note = BEi4;
},
{
glyphname = BEi5;
lastChange = "2020-08-20 05:52:38 +0000";
layers = (
{
anchors = (
{
name = bottom;
position = "{188, -714}";
},
{
name = exit;
position = "{0, 0}";
},
{
name = top;
position = "{-37, 185}";
}
);
background = {
paths = (
{
closed = 1;
nodes = (
"-44 -84 LINE",
"-20 -74 OFFCURVE",
"-6 -49 OFFCURVE",
"11 -12 CURVE SMOOTH",
"18 5 LINE SMOOTH",
"19 8 OFFCURVE",
"22 15 OFFCURVE",
"26 27 CURVE SMOOTH",
"34 50 LINE SMOOTH",
"41 70 OFFCURVE",
"44 86 OFFCURVE",
"44 108 CURVE SMOOTH",
"44 134 OFFCURVE",
"32 176 OFFCURVE",
"16 209 CURVE SMOOTH",
"-17 274 LINE SMOOTH",
"-18 276 OFFCURVE",
"-20 278 OFFCURVE",
"-21 278 CURVE SMOOTH",
"-33 278 OFFCURVE",
"-74 199 OFFCURVE",
"-80 180 CURVE SMOOTH",
"-83 173 OFFCURVE",
"-85 168 OFFCURVE",
"-85 166 CURVE SMOOTH",
"-85 165 LINE",
"-80 155 LINE",
"-72 143 LINE SMOOTH",
"-51 111 OFFCURVE",
"-19 62 OFFCURVE",
"-19 24 CURVE SMOOTH",
"-19 12 OFFCURVE",
"-21 1 OFFCURVE",
"-25 -9 CURVE SMOOTH",
"-30 -19 LINE SMOOTH",
"-39 -41 OFFCURVE",
"-44 -62 OFFCURVE",
"-44 -77 CURVE SMOOTH"
);
}
);
};
layerId = "6E34CE51-C086-4FF0-804E-D019E96D60E0";
paths = (
{
closed = 1;
nodes = (
"-44 -84 CURVE",
"-1 -65 OFFCURVE",
"44 52 OFFCURVE",
"44 107 CURVE SMOOTH",
"44 136 OFFCURVE",
"32 177 OFFCURVE",
"16 209 CURVE SMOOTH",
"-17 274 LINE SMOOTH",
"-18 276 OFFCURVE",
"-20 278 OFFCURVE",
"-22 278 CURVE SMOOTH",
"-33 278 OFFCURVE",
"-85 180 OFFCURVE",
"-85 165 CURVE",
"-35 86 OFFCURVE",
"-19 55 OFFCURVE",
"-19 24 CURVE SMOOTH",
"-19 12 OFFCURVE",
"-21 1 OFFCURVE",
"-25 -9 CURVE SMOOTH",
"-38 -40 OFFCURVE",
"-44 -53 OFFCURVE"
);
}
);
width = 200;
}
);
note = BEi5;
},
{
glyphname = BEi6;
lastChange = "2020-08-20 05:53:40 +0000";
layers = (
{
anchors = (
{
name = bottom;
position = "{203, -385}";
},
{
name = exit;
position = "{0, 0}";
},
{
name = top;
position = "{200, 188}";
}
);
background = {
paths = (
{
closed = 1;
nodes = (
"-103 -44 OFFCURVE",
"-87 -51 OFFCURVE",
"-67 -51 CURVE SMOOTH",
"-33 -51 OFFCURVE",
"9 -29 OFFCURVE",
"44 8 CURVE SMOOTH",
"55 19 LINE SMOOTH",
"69 33 OFFCURVE",
"83 42 OFFCURVE",
"102 49 CURVE SMOOTH",
"106 50 OFFCURVE",
"111 52 OFFCURVE",
"119 54 CURVE SMOOTH",
"134 59 OFFCURVE",
"149 63 OFFCURVE",
"164 66 CURVE SMOOTH",
"199 74 LINE",
"217 77 LINE SMOOTH",
"243 82 OFFCURVE",
"259 87 OFFCURVE",
"268 93 CURVE SMOOTH",
"274 97 OFFCURVE",
"280 104 OFFCURVE",
"287 113 CURVE SMOOTH",
"294 121 OFFCURVE",
"295 122 OFFCURVE",
"308 142 CURVE SMOOTH",
"320 159 LINE SMOOTH",
"325 166 OFFCURVE",
"330 173 OFFCURVE",
"339 187 CURVE SMOOTH",
"346 199 LINE SMOOTH",
"352 207 OFFCURVE",
"353 209 OFFCURVE",
"353 211 CURVE SMOOTH",
"353 213 OFFCURVE",
"352 214 OFFCURVE",
"348 214 CURVE SMOOTH",
"342 214 LINE",
"299 208 LINE",
"275 204 LINE SMOOTH",
"264 202 OFFCURVE",
"255 201 OFFCURVE",
"251 200 CURVE SMOOTH",
"177 183 OFFCURVE",
"141 171 OFFCURVE",
"89 119 CURVE SMOOTH",
"74 102 LINE",
"60 85 LINE SMOOTH",
"47 69 OFFCURVE",
"38 60 OFFCURVE",
"28 52 CURVE SMOOTH",
"19 46 OFFCURVE",
"10 42 OFFCURVE",
"-2 37 CURVE SMOOTH",
"-6 35 OFFCURVE",
"-13 33 OFFCURVE",
"-23 30 CURVE SMOOTH",
"-43 23 LINE SMOOTH",
"-74 12 OFFCURVE",
"-86 5 OFFCURVE",
"-100 -9 CURVE SMOOTH",
"-106 -16 OFFCURVE",
"-109 -20 OFFCURVE",
"-115 -29 CURVE"
);
}
);
};
layerId = "6E34CE51-C086-4FF0-804E-D019E96D60E0";
paths = (
{
closed = 1;
nodes = (
"-103 -44 OFFCURVE",
"-87 -51 OFFCURVE",
"-67 -51 CURVE SMOOTH",
"-13 -51 OFFCURVE",
"33 -1 OFFCURVE",
"55 19 CURVE SMOOTH",
"96 57 OFFCURVE",
"120 56 OFFCURVE",
"219 77 CURVE SMOOTH",
"248 83 OFFCURVE",
"260 87 OFFCURVE",
"268 93 CURVE SMOOTH",
"285 106 OFFCURVE",
"317 152 OFFCURVE",
"352 210 CURVE SMOOTH",
"354 213 OFFCURVE",
"352 214 OFFCURVE",
"348 214 CURVE SMOOTH",
"172 193 OFFCURVE",
"141 171 OFFCURVE",
"90 118 CURVE SMOOTH",
"42 68 OFFCURVE",
"44 63 OFFCURVE",
"28 52 CURVE SMOOTH",
"12 41 OFFCURVE",
"-3 37 OFFCURVE",
"-43 23 CURVE SMOOTH",
"-80 10 OFFCURVE",
"-95 1 OFFCURVE",
"-115 -29 CURVE"
);
}
);
width = 379;
}
);
note = BEi6;
},
{
glyphname = BEi7;
lastChange = "2020-08-20 05:54:36 +0000";
layers = (
{
anchors = (
{
name = bottom;
position = "{92, -677}";
},
{
name = exit;
position = "{0, 0}";
},
{
name = top;
position = "{74, 92}";
}
);
background = {
paths = (
{
closed = 1;
nodes = (
"-47 -81 LINE",
"-41 -75 LINE",
"-40 -73 OFFCURVE",
"-37 -70 OFFCURVE",
"-32 -64 CURVE SMOOTH",
"-30 -62 OFFCURVE",
"-27 -58 OFFCURVE",
"-23 -53 CURVE SMOOTH",
"-12 -40 LINE SMOOTH",
"1 -24 OFFCURVE",
"10 -15 OFFCURVE",
"22 -6 CURVE SMOOTH",
"24 -4 OFFCURVE",
"28 -1 OFFCURVE",
"34 3 CURVE SMOOTH",
"47 11 LINE",
"90 38 LINE SMOOTH",
"99 44 OFFCURVE",
"104 48 OFFCURVE",
"105 48 CURVE",
"107 49 OFFCURVE",
"112 53 OFFCURVE",
"120 59 CURVE SMOOTH",
"142 75 LINE SMOOTH",
"148 80 OFFCURVE",
"151 84 OFFCURVE",
"156 94 CURVE SMOOTH",
"160 100 OFFCURVE",
"162 104 OFFCURVE",
"163 107 CURVE",
"164 108 OFFCURVE",
"166 113 OFFCURVE",
"170 123 CURVE SMOOTH",
"184 157 LINE",
"192 181 LINE",
"194 185 OFFCURVE",
"195 188 OFFCURVE",
"195 190 CURVE SMOOTH",
"195 192 OFFCURVE",
"194 192 OFFCURVE",
"193 192 CURVE SMOOTH",
"192 192 OFFCURVE",
"190 191 OFFCURVE",
"185 187 CURVE SMOOTH",
"104 130 LINE SMOOTH",
"39 83 OFFCURVE",
"-36 17 OFFCURVE",
"-45 -68 CURVE SMOOTH"
);
}
);
};
layerId = "6E34CE51-C086-4FF0-804E-D019E96D60E0";
paths = (
{
closed = 1;
nodes = (
"-47 -81 CURVE",
"-22 -54 OFFCURVE",
"-24 -54 OFFCURVE",
"-12 -40 CURVE SMOOTH",
"13 -10 OFFCURVE",
"8 -16 OFFCURVE",
"140 74 CURVE SMOOTH",
"142 76 OFFCURVE",
"150 80 OFFCURVE",
"156 94 CURVE SMOOTH",
"170 123 OFFCURVE",
"195 183 OFFCURVE",
"195 190 CURVE SMOOTH",
"195 192 OFFCURVE",
"194 192 OFFCURVE",
"193 192 CURVE SMOOTH",
"190 192 OFFCURVE",
"191 191 OFFCURVE",
"185 187 CURVE SMOOTH",
"104 130 LINE SMOOTH",
"10 64 OFFCURVE",
"-38 0 OFFCURVE"
);
}
);
width = 221;
}
);
note = BEi7;
},
{
glyphname = BEi8;
lastChange = "2020-08-20 05:56:32 +0000";
layers = (
{
anchors = (
{
name = bottom;
position = "{174, -592}";
},
{
name = exit;
position = "{0, 0}";
},
{
name = top;
position = "{135, 189}";
}
);
background = {
paths = (
{
closed = 1;
nodes = (
"-44 -82 LINE",
"-27 -64 LINE SMOOTH",
"-25 -62 OFFCURVE",
"-23 -59 OFFCURVE",
"-19 -55 CURVE SMOOTH",
"-9 -44 LINE SMOOTH",
"1 -32 OFFCURVE",
"3 -30 OFFCURVE",
"10 -23 CURVE SMOOTH",
"21 -14 OFFCURVE",
"29 -7 OFFCURVE",
"41 0 CURVE SMOOTH",
"48 5 OFFCURVE",
"62 13 OFFCURVE",
"78 22 CURVE SMOOTH",
"113 40 LINE",
"129 47 LINE SMOOTH",
"154 59 OFFCURVE",
"175 70 OFFCURVE",
"183 76 CURVE SMOOTH",
"195 85 OFFCURVE",
"201 93 OFFCURVE",
"217 121 CURVE SMOOTH",
"251 183 LINE",
"258 198 LINE SMOOTH",
"259 200 OFFCURVE",
"259 202 OFFCURVE",
"259 203 CURVE SMOOTH",
"259 206 OFFCURVE",
"256 209 OFFCURVE",
"253 209 CURVE SMOOTH",
"252 209 OFFCURVE",
"250 208 OFFCURVE",
"247 206 CURVE SMOOTH",
"242 203 LINE SMOOTH",
"232 197 OFFCURVE",
"207 183 OFFCURVE",
"186 172 CURVE SMOOTH",
"159 158 LINE SMOOTH",
"129 142 OFFCURVE",
"115 134 OFFCURVE",
"103 126 CURVE SMOOTH",
"88 117 OFFCURVE",
"64 101 OFFCURVE",
"55 93 CURVE SMOOTH",
"14 61 OFFCURVE",
"-45 -22 OFFCURVE",
"-45 -75 CURVE SMOOTH",
"-45 -77 OFFCURVE",
"-45 -79 OFFCURVE",
"-44 -81 CURVE"
);
}
);
};
layerId = "6E34CE51-C086-4FF0-804E-D019E96D60E0";
paths = (
{
closed = 1;
nodes = (
"-44 -82 CURVE",
"18 -17 OFFCURVE",
"1 -21 OFFCURVE",
"78 21 CURVE SMOOTH",
"149 59 OFFCURVE",
"168 65 OFFCURVE",
"183 76 CURVE SMOOTH",
"195 85 OFFCURVE",
"201 93 OFFCURVE",
"217 121 CURVE SMOOTH",
"218 123 OFFCURVE",
"259 196 OFFCURVE",
"259 203 CURVE SMOOTH",
"259 206 OFFCURVE",
"256 209 OFFCURVE",
"254 209 CURVE SMOOTH",
"247 209 OFFCURVE",
"77 111 OFFCURVE",
"54 93 CURVE SMOOTH",
"20 67 OFFCURVE",
"-53 -33 OFFCURVE"
);
}
);
width = 282;
}
);
note = BEi8;
},
{
glyphname = BEi9;
lastChange = "2020-08-20 05:56:32 +0000";
layers = (
{
anchors = (
{
name = bottom;
position = "{81, -503}";
},
{
name = exit;
position = "{0, 0}";
},
{
name = top;
position = "{100, 55}";
}
);
background = {
paths = (
{
closed = 1;
nodes = (
"-275 -112 CURVE",
"-230 -91 LINE SMOOTH",
"-195 -76 OFFCURVE",
"-169 -70 OFFCURVE",
"-131 -70 CURVE SMOOTH",
"-111 -70 OFFCURVE",
"-90 -71 OFFCURVE",
"-75 -74 CURVE SMOOTH",
"-51 -78 LINE SMOOTH",
"-41 -80 OFFCURVE",
"-30 -81 OFFCURVE",
"-20 -81 CURVE SMOOTH",
"0 -81 OFFCURVE",
"9 -77 OFFCURVE",
"31 -60 CURVE SMOOTH",
"53 -41 OFFCURVE",
"73 -21 OFFCURVE",
"91 1 CURVE SMOOTH",
"126 47 OFFCURVE",
"153 100 OFFCURVE",
"153 125 CURVE SMOOTH",
"153 132 OFFCURVE",
"151 135 OFFCURVE",
"145 135 CURVE SMOOTH",
"140 135 OFFCURVE",
"138 133 OFFCURVE",
"134 128 CURVE",
"128 117 LINE SMOOTH",
"103 76 OFFCURVE",
"69 46 OFFCURVE",
"47 46 CURVE SMOOTH",
"43 46 OFFCURVE",
"37 47 OFFCURVE",
"32 48 CURVE SMOOTH",
"24 50 LINE SMOOTH",
"4 56 OFFCURVE",
"-27 60 OFFCURVE",
"-46 60 CURVE SMOOTH",
"-151 60 OFFCURVE",
"-219 -11 OFFCURVE"
);
}
);
};
layerId = "6E34CE51-C086-4FF0-804E-D019E96D60E0";
paths = (
{
closed = 1;
nodes = (
"-275 -112 CURVE",
"-196 -76 OFFCURVE",
"-183 -70 OFFCURVE",
"-137 -70 CURVE SMOOTH",
"-80 -70 OFFCURVE",
"-50 -81 OFFCURVE",
"-21 -81 CURVE SMOOTH",
"0 -81 OFFCURVE",
"13 -75 OFFCURVE",
"31 -60 CURVE SMOOTH",
"80 -19 OFFCURVE",
"153 74 OFFCURVE",
"153 124 CURVE SMOOTH",
"153 132 OFFCURVE",
"151 135 OFFCURVE",
"145 135 CURVE SMOOTH",
"136 135 OFFCURVE",
"137 132 OFFCURVE",
"128 117 CURVE SMOOTH",
"103 76 OFFCURVE",
"69 46 OFFCURVE",
"47 46 CURVE SMOOTH",
"33 46 OFFCURVE",
"-5 60 OFFCURVE",
"-50 60 CURVE SMOOTH",
"-150 60 OFFCURVE",
"-219 -11 OFFCURVE"
);
}
);
width = 184;
}
);
note = BEi9;
},
{
glyphname = BULLET;
lastChange = "2020-08-19 21:15:03 +0000";
layers = (
{
anchors = (
{
name = bottom;
position = "{0, 0}";
},
{
name = top;
position = "{0, 0}";
}
);
layerId = "6E34CE51-C086-4FF0-804E-D019E96D60E0";
paths = (
{
closed = 1;
nodes = (
"249 736 OFFCURVE",
"76 562 OFFCURVE",
"76 347 CURVE SMOOTH",
"76 135 OFFCURVE",
"248 -37 OFFCURVE",
"460 -37 CURVE SMOOTH",
"678 -37 OFFCURVE",
"848 143 OFFCURVE",
"848 351 CURVE SMOOTH",
"848 559 OFFCURVE",
"679 736 OFFCURVE",
"463 736 CURVE SMOOTH"
);
}
);
width = 925;
}
);
note = BULLET;
},
{
glyphname = CLOSE_DOUBLE_QUOTE;
lastChange = "2020-08-20 05:57:33 +0000";
layers = (
{
layerId = "6E34CE51-C086-4FF0-804E-D019E96D60E0";
paths = (
{
closed = 1;
nodes = (
"129 591 OFFCURVE",
"121 604 OFFCURVE",
"121 624 CURVE SMOOTH",
"121 662 OFFCURVE",
"148 704 OFFCURVE",
"203 742 CURVE SMOOTH",
"212 748 OFFCURVE",
"212 748 OFFCURVE",
"212 752 CURVE SMOOTH",
"212 756 OFFCURVE",
"210 759 OFFCURVE",
"207 759 CURVE SMOOTH",
"200 759 OFFCURVE",
"177 746 OFFCURVE",
"162 736 CURVE SMOOTH",
"97 693 OFFCURVE",
"66 643 OFFCURVE",
"66 591 CURVE SMOOTH",
"66 533 OFFCURVE",
"104 491 OFFCURVE",
"156 491 CURVE SMOOTH",
"193 491 OFFCURVE",
"218 512 OFFCURVE",
"218 542 CURVE SMOOTH",
"218 569 OFFCURVE",
"201 587 OFFCURVE",
"174 587 CURVE SMOOTH",
"166 587 OFFCURVE",
"158 585 OFFCURVE",
"147 582 CURVE"
);
},
{
closed = 1;
nodes = (
"321 591 OFFCURVE",
"313 604 OFFCURVE",
"313 624 CURVE SMOOTH",
"313 661 OFFCURVE",
"341 706 OFFCURVE",
"395 742 CURVE SMOOTH",
"404 748 OFFCURVE",
"405 748 OFFCURVE",
"405 752 CURVE SMOOTH",
"405 756 OFFCURVE",
"402 759 OFFCURVE",
"399 759 CURVE SMOOTH",
"394 759 OFFCURVE",
"378 752 OFFCURVE",
"354 736 CURVE SMOOTH",
"292 695 OFFCURVE",
"258 646 OFFCURVE",
"258 591 CURVE SMOOTH",
"258 533 OFFCURVE",
"296 491 OFFCURVE",
"348 491 CURVE SMOOTH",
"385 491 OFFCURVE",
"411 512 OFFCURVE",
"411 542 CURVE SMOOTH",
"411 569 OFFCURVE",
"393 587 OFFCURVE",
"366 587 CURVE SMOOTH",
"358 587 OFFCURVE",
"350 585 OFFCURVE",
"339 582 CURVE"
);
}
);
width = 485;
}
);
note = CLOSE_DOUBLE_QUOTE;
},
{
glyphname = CLOSE_FAN_BR;
lastChange = "2020-08-20 05:57:42 +0000";
layers = (
{
anchors = (
{
name = bottom;
position = "{0, 0}";
},
{
name = top;
position = "{0, 0}";
}
);
layerId = "6E34CE51-C086-4FF0-804E-D019E96D60E0";
paths = (
{
closed = 1;
nodes = (
"368 134 OFFCURVE",
"367 135 OFFCURVE",
"364 135 CURVE",
"348 139 LINE",
"339 140 LINE SMOOTH",
"306 144 OFFCURVE",
"280 159 OFFCURVE",
"271 179 CURVE",
"269 179 OFFCURVE",
"268 176 OFFCURVE",
"268 174 CURVE SMOOTH",
"268 171 OFFCURVE",
"270 167 OFFCURVE",
"274 160 CURVE SMOOTH",
"281 151 OFFCURVE",
"285 145 OFFCURVE",
"294 139 CURVE SMOOTH",
"306 129 OFFCURVE",
"316 125 OFFCURVE",
"342 119 CURVE SMOOTH",
"367 113 OFFCURVE",
"379 109 OFFCURVE",
"383 105 CURVE SMOOTH",
"390 98 LINE",
"391 95 LINE",
"392 95 OFFCURVE",
"392 94 OFFCURVE",
"393 94 CURVE SMOOTH",
"396 94 OFFCURVE",
"397 98 OFFCURVE",
"398 105 CURVE SMOOTH",
"398 114 LINE",
"399 118 LINE",
"397 134 LINE SMOOTH",
"395 150 OFFCURVE",
"379 189 OFFCURVE",
"358 189 CURVE SMOOTH",
"357 189 OFFCURVE",
"356 189 OFFCURVE",
"353 188 CURVE",
"355 186 LINE",
"355 185 OFFCURVE",
"356 184 OFFCURVE",
"358 182 CURVE SMOOTH",
"367 174 OFFCURVE",
"373 158 OFFCURVE",
"373 146 CURVE SMOOTH",
"373 142 OFFCURVE",
"373 139 OFFCURVE",
"371 133 CURVE"
);
},
{
closed = 1;
nodes = (
"461 275 OFFCURVE",
"458 273 OFFCURVE",
"454 270 CURVE",
"430 246 LINE SMOOTH",
"406 219 OFFCURVE",
"370 203 OFFCURVE",
"337 203 CURVE SMOOTH",
"333 203 OFFCURVE",
"328 203 OFFCURVE",
"322 204 CURVE SMOOTH",
"318 205 OFFCURVE",
"316 205 OFFCURVE",
"314 206 CURVE SMOOTH",
"312 207 OFFCURVE",
"312 207 OFFCURVE",
"311 207 CURVE SMOOTH",
"309 207 OFFCURVE",
"308 205 OFFCURVE",
"308 203 CURVE SMOOTH",
"308 198 OFFCURVE",
"324 194 OFFCURVE",
"344 194 CURVE SMOOTH",
"399 194 OFFCURVE",
"425 212 OFFCURVE",
"464 248 CURVE SMOOTH",
"479 261 OFFCURVE",
"485 265 OFFCURVE",
"490 269 CURVE SMOOTH",
"493 271 OFFCURVE",
"497 273 OFFCURVE",
"501 276 CURVE SMOOTH",
"503 277 OFFCURVE",
"505 278 OFFCURVE",
"506 279 CURVE",
"515 282 LINE",
"517 282 LINE",
"517 286 LINE",
"516 286 OFFCURVE",
"516 286 OFFCURVE",
"515 287 CURVE",
"513 287 LINE",
"512 288 OFFCURVE",
"511 288 OFFCURVE",
"509 288 CURVE",
"470 299 LINE SMOOTH",
"457 303 OFFCURVE",
"445 305 OFFCURVE",
"433 305 CURVE SMOOTH",
"420 305 OFFCURVE",
"406 302 OFFCURVE",
"393 295 CURVE SMOOTH",
"384 291 OFFCURVE",
"379 287 OFFCURVE",
"379 285 CURVE SMOOTH",
"379 284 OFFCURVE",
"379 284 OFFCURVE",
"380 283 CURVE SMOOTH",
"381 282 LINE",
"382 282 OFFCURVE",
"382 282 OFFCURVE",
"383 283 CURVE",
"385 283 OFFCURVE",
"385 283 OFFCURVE",
"386 284 CURVE",
"393 286 LINE SMOOTH",
"399 288 OFFCURVE",
"408 289 OFFCURVE",
"418 289 CURVE SMOOTH",
"436 289 OFFCURVE",
"455 284 OFFCURVE",
"466 277 CURVE"
);
},
{
closed = 1;
nodes = (
"367 287 LINE",
"368 287 OFFCURVE",
"369 287 OFFCURVE",
"369 288 CURVE",
"397 305 OFFCURVE",
"411 326 OFFCURVE",
"421 356 CURVE SMOOTH",
"424 366 OFFCURVE",
"433 387 OFFCURVE",
"441 393 CURVE",
"448 401 LINE SMOOTH",
"451 404 OFFCURVE",
"453 406 OFFCURVE",
"454 406 CURVE",
"457 408 OFFCURVE",
"458 409 OFFCURVE",
"458 410 CURVE SMOOTH",
"458 412 OFFCURVE",
"457 413 OFFCURVE",
"456 413 CURVE SMOOTH",
"452 412 LINE SMOOTH",
"449 411 OFFCURVE",
"447 410 OFFCURVE",
"434 410 CURVE SMOOTH",
"422 409 OFFCURVE",
"418 409 OFFCURVE",
"412 408 CURVE",
"386 408 OFFCURVE",
"363 400 OFFCURVE",
"345 384 CURVE SMOOTH",
"335 376 LINE SMOOTH",
"332 373 OFFCURVE",
"332 372 OFFCURVE",
"332 370 CURVE",
"333 368 OFFCURVE",
"333 368 OFFCURVE",
"334 368 CURVE SMOOTH",
"335 368 OFFCURVE",
"335 368 OFFCURVE",
"336 369 CURVE",
"346 374 LINE",
"347 375 OFFCURVE",
"351 376 OFFCURVE",
"356 378 CURVE SMOOTH",
"369 383 LINE SMOOTH",
"371 384 OFFCURVE",
"375 385 OFFCURVE",
"382 386 CURVE SMOOTH",
"392 387 LINE",
"394 388 OFFCURVE",
"396 388 OFFCURVE",
"398 388 CURVE SMOOTH",
"402 388 OFFCURVE",
"404 387 OFFCURVE",
"409 386 CURVE",
"406 383 OFFCURVE",
"404 379 OFFCURVE",
"400 360 CURVE SMOOTH",
"395 341 OFFCURVE",
"392 330 OFFCURVE",
"389 322 CURVE SMOOTH",
"385 313 OFFCURVE",
"378 302 OFFCURVE",
"375 299 CURVE SMOOTH",
"369 294 LINE SMOOTH",
"367 292 OFFCURVE",
"367 290 OFFCURVE",
"367 289 CURVE SMOOTH"
);
},
{
closed = 1;
nodes = (
"321 373 OFFCURVE",
"321 373 OFFCURVE",
"322 373 CURVE SMOOTH",
"332 373 OFFCURVE",
"343 410 OFFCURVE",
"343 418 CURVE SMOOTH",
"343 432 OFFCURVE",
"336 447 OFFCURVE",
"321 465 CURVE SMOOTH",
"311 477 OFFCURVE",
"306 488 OFFCURVE",
"306 498 CURVE SMOOTH",
"306 503 LINE SMOOTH",
"306 505 OFFCURVE",
"305 505 OFFCURVE",
"304 505 CURVE SMOOTH",
"303 505 OFFCURVE",
"302 505 OFFCURVE",
"301 502 CURVE",
"294 489 OFFCURVE",
"288 482 OFFCURVE",
"274 473 CURVE SMOOTH",
"262 465 OFFCURVE",
"255 460 OFFCURVE",
"254 459 CURVE SMOOTH",
"247 454 OFFCURVE",
"241 448 OFFCURVE",
"237 442 CURVE SMOOTH",
"233 435 OFFCURVE",
"230 424 OFFCURVE",
"230 417 CURVE SMOOTH",
"230 412 OFFCURVE",
"231 405 OFFCURVE",
"234 399 CURVE SMOOTH",
"235 396 OFFCURVE",
"236 395 OFFCURVE",
"236 394 CURVE",
"237 393 LINE",
"240 393 LINE",
"240 397 LINE SMOOTH",
"240 421 OFFCURVE",
"250 434 OFFCURVE",
"282 450 CURVE SMOOTH",
"291 455 OFFCURVE",
"292 455 OFFCURVE",
"294 458 CURVE",
"295 457 OFFCURVE",
"295 457 OFFCURVE",
"295 456 CURVE",
"296 456 OFFCURVE",
"297 455 OFFCURVE",
"298 453 CURVE",
"312 438 LINE SMOOTH",
"324 426 OFFCURVE",
"329 415 OFFCURVE",
"329 402 CURVE SMOOTH",
"329 393 OFFCURVE",
"326 385 OFFCURVE",
"320 375 CURVE"
);
},
{
closed = 1;
nodes = (
"160 402 LINE SMOOTH",
"192 402 OFFCURVE",
"222 391 OFFCURVE",
"233 375 CURVE SMOOTH",
"236 371 LINE SMOOTH",
"237 369 OFFCURVE",
"238 369 OFFCURVE",
"239 369 CURVE SMOOTH",
"240 369 OFFCURVE",
"241 370 OFFCURVE",
"241 371 CURVE SMOOTH",
"241 373 LINE",
"238 379 LINE SMOOTH",
"228 403 OFFCURVE",
"204 416 OFFCURVE",
"157 423 CURVE SMOOTH",
"146 425 OFFCURVE",
"139 426 OFFCURVE",
"137 426 CURVE SMOOTH",
"114 430 LINE",
"112 430 LINE SMOOTH",
"111 430 OFFCURVE",
"110 429 OFFCURVE",
"110 428 CURVE",
"117 422 LINE SMOOTH",
"125 415 OFFCURVE",
"132 401 OFFCURVE",
"134 386 CURVE SMOOTH",
"135 371 LINE SMOOTH",
"139 337 OFFCURVE",
"152 312 OFFCURVE",
"165 312 CURVE",
"167 313 OFFCURVE",
"167 313 OFFCURVE",
"167 314 CURVE",
"165 316 OFFCURVE",
"165 317 OFFCURVE",
"164 320 CURVE SMOOTH",
"160 329 LINE SMOOTH",
"158 333 OFFCURVE",
"157 345 OFFCURVE",
"157 357 CURVE SMOOTH",
"157 365 LINE",
"158 378 LINE",
"158 382 LINE SMOOTH",
"158 391 OFFCURVE",
"157 398 OFFCURVE",
"155 402 CURVE"
);
},
{
closed = 1;
nodes = (
"73 293 LINE",
"85 298 LINE SMOOTH",
"92 301 OFFCURVE",
"108 304 OFFCURVE",
"120 304 CURVE SMOOTH",
"138 304 OFFCURVE",
"162 297 OFFCURVE",
"172 289 CURVE",
"176 287 OFFCURVE",
"178 285 OFFCURVE",
"179 285 CURVE SMOOTH",
"181 285 LINE",
"183 287 LINE",
"183 288 LINE SMOOTH",
"183 291 OFFCURVE",
"174 299 OFFCURVE",
"160 306 CURVE SMOOTH",
"144 316 OFFCURVE",
"125 321 OFFCURVE",
"108 321 CURVE SMOOTH",
"86 321 OFFCURVE",
"61 314 OFFCURVE",
"31 301 CURVE SMOOTH",
"18 296 LINE",
"16 296 OFFCURVE",
"15 295 OFFCURVE",
"15 294 CURVE SMOOTH",
"15 292 OFFCURVE",
"16 291 OFFCURVE",
"19 291 CURVE SMOOTH",
"36 289 OFFCURVE",
"56 279 OFFCURVE",
"77 261 CURVE SMOOTH",
"93 246 LINE SMOOTH",
"129 215 OFFCURVE",
"155 202 OFFCURVE",
"192 198 CURVE",
"185 196 OFFCURVE",
"180 193 OFFCURVE",
"174 188 CURVE SMOOTH",
"170 185 OFFCURVE",
"165 179 OFFCURVE",
"153 163 CURVE SMOOTH",
"139 144 OFFCURVE",
"130 138 OFFCURVE",
"119 138 CURVE SMOOTH",
"116 138 OFFCURVE",
"112 139 OFFCURVE",
"110 140 CURVE SMOOTH",
"108 141 LINE",
"107 141 OFFCURVE",
"106 140 OFFCURVE",
"106 138 CURVE SMOOTH",
"106 136 OFFCURVE",
"108 134 OFFCURVE",
"112 131 CURVE SMOOTH",
"130 119 OFFCURVE",
"150 113 OFFCURVE",
"172 113 CURVE SMOOTH",
"201 113 OFFCURVE",
"230 125 OFFCURVE",
"249 144 CURVE SMOOTH",
"256 152 OFFCURVE",
"261 160 OFFCURVE",
"261 165 CURVE SMOOTH",
"261 167 OFFCURVE",
"260 168 OFFCURVE",
"257 171 CURVE",
"249 150 OFFCURVE",
"216 134 OFFCURVE",
"181 134 CURVE SMOOTH",
"171 134 OFFCURVE",
"165 135 OFFCURVE",
"155 138 CURVE",
"160 140 OFFCURVE",
"161 141 OFFCURVE",
"164 146 CURVE",
"169 151 LINE",
"169 152 OFFCURVE",
"171 155 OFFCURVE",
"173 160 CURVE",
"185 181 OFFCURVE",
"198 193 OFFCURVE",
"217 200 CURVE SMOOTH",
"221 202 LINE",
"222 202 OFFCURVE",
"222 202 OFFCURVE",
"222 203 CURVE SMOOTH",
"222 204 LINE",
"221 205 OFFCURVE",
"221 206 OFFCURVE",
"220 206 CURVE SMOOTH",
"218 206 LINE SMOOTH",
"217 206 OFFCURVE",
"216 206 OFFCURVE",
"214 205 CURVE",
"211 205 OFFCURVE",
"208 204 OFFCURVE",
"205 204 CURVE SMOOTH",
"183 204 OFFCURVE",
"154 219 OFFCURVE",
"132 241 CURVE SMOOTH",
"101 272 LINE SMOOTH",
"91 282 OFFCURVE",
"84 288 OFFCURVE",
"75 292 CURVE SMOOTH"
);
},
{
closed = 1;
nodes = (
"290 220 LINE SMOOTH",
"290 219 OFFCURVE",
"291 217 OFFCURVE",
"292 217 CURVE",
"293 216 OFFCURVE",
"293 216 OFFCURVE",
"294 216 CURVE SMOOTH",
"298 216 OFFCURVE",
"306 220 OFFCURVE",
"312 226 CURVE SMOOTH",
"329 241 OFFCURVE",
"339 264 OFFCURVE",
"339 288 CURVE SMOOTH",
"339 324 OFFCURVE",
"311 354 OFFCURVE",
"276 354 CURVE SMOOTH",
"238 354 OFFCURVE",
"207 321 OFFCURVE",
"207 281 CURVE SMOOTH",
"207 247 OFFCURVE",
"233 214 OFFCURVE",
"260 214 CURVE SMOOTH",
"265 214 OFFCURVE",
"267 215 OFFCURVE",
"268 219 CURVE",
"244 221 OFFCURVE",
"226 246 OFFCURVE",
"226 276 CURVE SMOOTH",
"226 310 OFFCURVE",
"248 335 OFFCURVE",
"278 335 CURVE SMOOTH",
"305 335 OFFCURVE",
"325 313 OFFCURVE",
"325 282 CURVE SMOOTH",
"325 256 OFFCURVE",
"311 232 OFFCURVE",
"290 221 CURVE"
);
},
{
closed = 1;
nodes = (
"589 -245 LINE",
"460 -177 OFFCURVE",
"373 -54 OFFCURVE",
"348 89 CURVE SMOOTH",
"346 102 OFFCURVE",
"340 109 OFFCURVE",
"331 109 CURVE SMOOTH",
"330 109 OFFCURVE",
"330 108 OFFCURVE",
"330 104 CURVE SMOOTH",
"330 101 OFFCURVE",
"331 95 OFFCURVE",
"333 86 CURVE SMOOTH",
"346 31 LINE SMOOTH",
"371 -74 OFFCURVE",
"439 -161 OFFCURVE",
"526 -222 CURVE",
"525 -223 LINE",
"366 -177 OFFCURVE",
"254 -61 OFFCURVE",
"234 105 CURVE",
"233 108 OFFCURVE",
"233 110 OFFCURVE",
"233 112 CURVE SMOOTH",
"233 114 OFFCURVE",
"233 114 OFFCURVE",
"232 114 CURVE SMOOTH",
"226 114 OFFCURVE",
"220 102 OFFCURVE",
"220 96 CURVE SMOOTH",
"220 93 OFFCURVE",
"220 86 OFFCURVE",
"221 81 CURVE SMOOTH",
"231 9 OFFCURVE",
"263 -58 OFFCURVE",
"311 -113 CURVE SMOOTH",
"381 -194 OFFCURVE",
"473 -238 OFFCURVE",
"588 -246 CURVE"
);
},
{
closed = 1;
nodes = (
"519 743 LINE",
"515 740 OFFCURVE",
"512 737 OFFCURVE",
"509 736 CURVE",
"489 720 OFFCURVE",
"477 711 OFFCURVE",
"473 707 CURVE SMOOTH",
"466 702 OFFCURVE",
"459 694 OFFCURVE",
"450 686 CURVE",
"419 650 OFFCURVE",
"390 616 OFFCURVE",
"370 572 CURVE SMOOTH",
"356 540 OFFCURVE",
"342 492 OFFCURVE",
"342 471 CURVE SMOOTH",
"342 466 OFFCURVE",
"343 461 OFFCURVE",
"345 459 CURVE",
"348 454 LINE SMOOTH",
"350 451 OFFCURVE",
"350 449 OFFCURVE",
"351 449 CURVE SMOOTH",
"352 449 OFFCURVE",
"352 449 OFFCURVE",
"352 450 CURVE SMOOTH",
"352 452 LINE",
"365 505 LINE SMOOTH",
"391 619 OFFCURVE",
"482 710 OFFCURVE",
"581 766 CURVE",
"581 767 LINE",
"408 752 OFFCURVE",
"250 640 OFFCURVE",
"222 463 CURVE",
"222 460 OFFCURVE",
"221 458 OFFCURVE",
"221 456 CURVE SMOOTH",
"221 454 OFFCURVE",
"222 452 OFFCURVE",
"223 452 CURVE SMOOTH",
"230 452 OFFCURVE",
"237 465 OFFCURVE",
"242 486 CURVE SMOOTH",
"253 536 OFFCURVE",
"293 602 OFFCURVE",
"336 644 CURVE SMOOTH",
"390 694 OFFCURVE",
"451 722 OFFCURVE",
"519 744 CURVE"
);
}
);
width = 612;
}
);
note = CLOSE_FAN_BR;
},
{
glyphname = CLOSE_QUOTE;
lastChange = "2020-08-20 05:57:53 +0000";
layers = (
{
anchors = (
{
name = bottom;
position = "{0, 0}";
},
{
name = top;
position = "{0, 0}";
}
);
layerId = "6E34CE51-C086-4FF0-804E-D019E96D60E0";
paths = (
{
closed = 1;
nodes = (
"133 590 OFFCURVE",
"123 606 OFFCURVE",
"123 626 CURVE SMOOTH",
"123 658 OFFCURVE",
"153 704 OFFCURVE",
"195 735 CURVE SMOOTH",
"211 747 LINE SMOOTH",
"216 750 OFFCURVE",
"216 751 OFFCURVE",
"216 754 CURVE SMOOTH",
"216 758 OFFCURVE",
"215 759 OFFCURVE",
"212 759 CURVE SMOOTH",
"202 759 OFFCURVE",
"174 743 OFFCURVE",
"145 721 CURVE SMOOTH",
"92 680 OFFCURVE",
"67 638 OFFCURVE",
"67 589 CURVE SMOOTH",
"67 531 OFFCURVE",
"105 489 OFFCURVE",
"158 489 CURVE SMOOTH",
"195 489 OFFCURVE",
"225 514 OFFCURVE",
"225 547 CURVE SMOOTH",
"225 572 OFFCURVE",
"205 589 OFFCURVE",
"177 589 CURVE SMOOTH",
"170 589 OFFCURVE",
"163 588 OFFCURVE",
"150 584 CURVE"
);
}
);
width = 299;
}
);
note = CLOSE_QUOTE;
},
{
glyphname = COLON;
lastChange = "2020-08-20 05:58:18 +0000";
layers = (
{
anchors = (
{
name = bottom;
position = "{0, 0}";
},
{
name = top;
position = "{0, 0}";
}
);
layerId = "6E34CE51-C086-4FF0-804E-D019E96D60E0";
paths = (
{
closed = 1;
nodes = (
"120 388 OFFCURVE",
"95 362 OFFCURVE",
"95 332 CURVE SMOOTH",
"95 301 OFFCURVE",
"120 276 OFFCURVE",
"150 276 CURVE SMOOTH",
"181 276 OFFCURVE",
"206 301 OFFCURVE",
"206 332 CURVE SMOOTH",
"206 363 OFFCURVE",
"181 388 OFFCURVE",
"150 388 CURVE SMOOTH"
);
},
{
closed = 1;
nodes = (
"120 111 OFFCURVE",
"95 86 OFFCURVE",
"95 56 CURVE SMOOTH",
"95 25 OFFCURVE",
"120 0 OFFCURVE",
"150 0 CURVE SMOOTH",
"181 0 OFFCURVE",
"206 25 OFFCURVE",
"206 56 CURVE SMOOTH",
"206 87 OFFCURVE",
"181 111 OFFCURVE",
"150 111 CURVE SMOOTH"
);
}
);
width = 299;
}
);
note = COLON;
},
{
glyphname = COMMA;
lastChange = "2020-08-20 05:58:18 +0000";
layers = (
{
anchors = (
{
name = bottom;
position = "{0, 0}";
},
{
name = top;
position = "{0, 0}";
}
);
layerId = "6E34CE51-C086-4FF0-804E-D019E96D60E0";
paths = (
{
closed = 1;
nodes = (
"129 116 OFFCURVE",
"124 127 OFFCURVE",
"124 145 CURVE SMOOTH",
"124 188 OFFCURVE",
"170 248 OFFCURVE",
"218 275 CURVE SMOOTH",
"222 278 OFFCURVE",
"223 280 OFFCURVE",
"223 282 CURVE SMOOTH",
"223 286 OFFCURVE",
"220 288 OFFCURVE",
"216 288 CURVE SMOOTH",
"200 288 OFFCURVE",
"145 249 OFFCURVE",
"132 238 CURVE SMOOTH",
"86 199 OFFCURVE",
"59 148 OFFCURVE",
"59 101 CURVE SMOOTH",
"59 43 OFFCURVE",
"98 1 OFFCURVE",
"153 1 CURVE SMOOTH",
"195 1 OFFCURVE",
"226 28 OFFCURVE",
"226 64 CURVE SMOOTH",
"226 94 OFFCURVE",
"205 114 OFFCURVE",
"173 114 CURVE SMOOTH",
"164 114 OFFCURVE",
"153 112 OFFCURVE",
"140 108 CURVE"
);
}
);
width = 299;
}
);
note = COMMA;
},
{
glyphname = DECIMAL_PT;
lastChange = "2020-08-20 05:58:18 +0000";
layers = (
{
anchors = (
{
name = bottom;
position = "{0, 0}";
},
{
name = top;
position = "{0, 0}";
}
);
layerId = "6E34CE51-C086-4FF0-804E-D019E96D60E0";
paths = (
{
closed = 1;
nodes = (
"160 36 OFFCURVE",
"169 21 OFFCURVE",
"169 0 CURVE SMOOTH",
"169 -38 OFFCURVE",
"140 -77 OFFCURVE",
"87 -115 CURVE SMOOTH",
"80 -120 OFFCURVE",
"76 -124 OFFCURVE",
"76 -127 CURVE SMOOTH",
"76 -130 OFFCURVE",
"79 -134 OFFCURVE",
"82 -134 CURVE SMOOTH",
"102 -134 OFFCURVE",
"165 -84 OFFCURVE",
"179 -69 CURVE SMOOTH",
"212 -35 OFFCURVE",
"227 -1 OFFCURVE",
"227 37 CURVE SMOOTH",
"227 95 OFFCURVE",
"188 138 OFFCURVE",
"136 138 CURVE SMOOTH",
"98 138 OFFCURVE",
"68 113 OFFCURVE",
"68 81 CURVE SMOOTH",
"68 54 OFFCURVE",
"86 39 OFFCURVE",
"117 39 CURVE SMOOTH",
"126 39 OFFCURVE",
"133 40 OFFCURVE",
"143 42 CURVE"
);
}
);
width = 300;
}
);
note = DECIMAL_PT;
},
{
glyphname = DEGREE;
lastChange = "2020-08-20 05:58:27 +0000";
layers = (
{
anchors = (
{
name = bottom;
position = "{0, 0}";
},
{
name = top;
position = "{0, 0}";
}
);
layerId = "6E34CE51-C086-4FF0-804E-D019E96D60E0";
paths = (
{
closed = 1;
nodes = (
"97 670 OFFCURVE",
"52 623 OFFCURVE",
"52 565 CURVE SMOOTH",
"52 510 OFFCURVE",
"99 463 OFFCURVE",
"153 463 CURVE SMOOTH",
"211 463 OFFCURVE",
"257 510 OFFCURVE",
"257 568 CURVE SMOOTH",
"257 624 OFFCURVE",
"211 670 OFFCURVE",
"154 670 CURVE SMOOTH"
);
},
{
closed = 1;
nodes = (
"191 633 OFFCURVE",
"221 603 OFFCURVE",
"221 567 CURVE SMOOTH",
"221 530 OFFCURVE",
"191 500 OFFCURVE",
"155 500 CURVE SMOOTH",
"118 500 OFFCURVE",
"88 530 OFFCURVE",
"88 567 CURVE SMOOTH",
"88 603 OFFCURVE",
"118 633 OFFCURVE",
"155 633 CURVE SMOOTH"
);
}
);
width = 311;
}
);
note = DEGREE;
},
{
glyphname = DIVIDE;
lastChange = "2020-08-20 05:58:27 +0000";
layers = (
{
anchors = (
{
name = bottom;
position = "{0, 0}";
},
{
name = top;
position = "{0, 0}";
}
);
layerId = "6E34CE51-C086-4FF0-804E-D019E96D60E0";
paths = (
{
closed = 1;
nodes = (
"36 296 LINE",
"36 256 LINE",
"462 256 LINE",
"462 296 LINE"
);
},
{
closed = 1;
nodes = (
"223 466 OFFCURVE",
"201 445 OFFCURVE",
"201 419 CURVE SMOOTH",
"201 392 OFFCURVE",
"223 371 OFFCURVE",
"250 371 CURVE SMOOTH",
"276 371 OFFCURVE",
"297 392 OFFCURVE",
"297 419 CURVE SMOOTH",
"297 445 OFFCURVE",
"275 466 OFFCURVE",
"249 466 CURVE SMOOTH"
);
},
{
closed = 1;
nodes = (
"223 181 OFFCURVE",
"202 160 OFFCURVE",
"202 134 CURVE SMOOTH",
"202 108 OFFCURVE",
"223 86 OFFCURVE",
"250 86 CURVE SMOOTH",
"276 86 OFFCURVE",
"297 107 OFFCURVE",
"297 134 CURVE SMOOTH",
"297 160 OFFCURVE",
"276 181 OFFCURVE",
"249 181 CURVE SMOOTH"
);
}
);
width = 499;
}
);
note = DIVIDE;
},
{
glyphname = DOLLAR;
lastChange = "2020-08-20 06:03:32 +0000";
layers = (
{
anchors = (
{
name = bottom;
position = "{0, 0}";
},
{
name = top;
position = "{0, 0}";
}
);
background = {
paths = (
{
closed = 1;
nodes = (
"133 288 OFFCURVE",
"139 284 OFFCURVE",
"145 282 CURVE",
"148 280 OFFCURVE",
"156 277 OFFCURVE",
"170 272 CURVE SMOOTH",
"203 259 LINE",
"203 82 LINE",
"199 82 LINE SMOOTH",
"179 82 OFFCURVE",
"141 88 OFFCURVE",
"120 94 CURVE SMOOTH",
"93 103 OFFCURVE",
"81 114 OFFCURVE",
"76 138 CURVE SMOOTH",
"76 139 OFFCURVE",
"76 139 OFFCURVE",
"75 141 CURVE",
"70 141 LINE",
"69 132 OFFCURVE",
"69 129 OFFCURVE",
"67 121 CURVE SMOOTH",
"64 100 LINE SMOOTH",
"63 94 OFFCURVE",
"62 87 OFFCURVE",
"62 81 CURVE SMOOTH",
"61 74 OFFCURVE",
"61 69 OFFCURVE",
"61 63 CURVE SMOOTH",
"61 36 OFFCURVE",
"66 26 OFFCURVE",
"84 19 CURVE SMOOTH",
"102 12 OFFCURVE",
"123 9 OFFCURVE",
"148 9 CURVE SMOOTH",
"170 9 OFFCURVE",
"187 10 OFFCURVE",
"203 13 CURVE",
"203 -69 LINE",
"233 -69 LINE",
"233 20 LINE",
"317 44 OFFCURVE",
"385 134 OFFCURVE",
"385 219 CURVE SMOOTH",
"385 291 OFFCURVE",
"349 331 OFFCURVE",
"257 362 CURVE SMOOTH",
"245 366 OFFCURVE",
"239 368 OFFCURVE",
"238 369 CURVE",
"237 369 OFFCURVE",
"236 370 OFFCURVE",
"233 371 CURVE",
"233 523 LINE",
"294 520 OFFCURVE",
"331 505 OFFCURVE",
"344 478 CURVE",
"348 478 LINE",
"350 504 OFFCURVE",
"351 525 OFFCURVE",
"351 542 CURVE SMOOTH",
"351 570 OFFCURVE",
"350 575 OFFCURVE",
"337 580 CURVE SMOOTH",
"323 586 OFFCURVE",
"298 590 OFFCURVE",
"275 590 CURVE SMOOTH",
"262 590 OFFCURVE",
"242 589 OFFCURVE",
"233 588 CURVE",
"233 657 LINE",
"203 657 LINE",
"203 583 LINE",
"122 561 OFFCURVE",
"61 486 OFFCURVE",
"61 407 CURVE SMOOTH",
"61 353 OFFCURVE",
"81 319 OFFCURVE",
"126 292 CURVE SMOOTH"
);
},
{
closed = 1;
nodes = (
"233 250 LINE",
"275 236 OFFCURVE",
"324 216 OFFCURVE",
"324 164 CURVE SMOOTH",
"324 120 OFFCURVE",
"289 89 OFFCURVE",
"233 84 CURVE"
);
},
{
closed = 1;
nodes = (
"203 523 LINE",
"203 377 LINE",
"142 397 OFFCURVE",
"115 422 OFFCURVE",
"115 459 CURVE SMOOTH",
"115 493 OFFCURVE",
"149 520 OFFCURVE",
"198 523 CURVE SMOOTH"
);
}
);
};
layerId = "6E34CE51-C086-4FF0-804E-D019E96D60E0";
paths = (
{
closed = 1;
nodes = (
"137 285 OFFCURVE",
"170 272 CURVE SMOOTH",
"203 259 LINE",
"203 82 LINE",
"199 82 LINE SMOOTH",
"177 82 OFFCURVE",
"141 88 OFFCURVE",
"121 94 CURVE SMOOTH",
"84 105 OFFCURVE",
"81 116 OFFCURVE",
"75 141 CURVE",
"70 141 LINE",
"68 127 OFFCURVE",
"61 86 OFFCURVE",
"61 61 CURVE SMOOTH",
"61 39 OFFCURVE",
"66 26 OFFCURVE",
"83 19 CURVE SMOOTH",
"97 13 OFFCURVE",
"122 9 OFFCURVE",
"153 9 CURVE SMOOTH",
"168 9 OFFCURVE",
"187 10 OFFCURVE",
"203 13 CURVE",
"203 -69 LINE",
"233 -69 LINE",
"233 20 LINE",
"320 46 OFFCURVE",
"385 134 OFFCURVE",
"385 224 CURVE SMOOTH",
"385 304 OFFCURVE",
"333 338 OFFCURVE",
"233 371 CURVE",
"233 523 LINE",
"292 520 OFFCURVE",
"331 504 OFFCURVE",
"348 478 CURVE",
"350 504 OFFCURVE",
"351 525 OFFCURVE",
"351 544 CURVE SMOOTH",
"351 570 OFFCURVE",
"349 576 OFFCURVE",
"336 581 CURVE SMOOTH",
"323 586 OFFCURVE",
"294 590 OFFCURVE",
"273 590 CURVE SMOOTH",
"262 590 OFFCURVE",
"242 589 OFFCURVE",
"233 588 CURVE",
"233 657 LINE",
"203 657 LINE",
"203 583 LINE",
"122 561 OFFCURVE",
"61 486 OFFCURVE",
"61 405 CURVE SMOOTH",
"61 314 OFFCURVE"
);
},
{
closed = 1;
nodes = (
"233 250 LINE",
"275 236 OFFCURVE",
"324 216 OFFCURVE",
"324 164 CURVE SMOOTH",
"324 120 OFFCURVE",
"289 89 OFFCURVE",
"233 84 CURVE"
);
},
{
closed = 1;
nodes = (
"203 523 CURVE",
"203 377 LINE",
"142 397 OFFCURVE",
"115 422 OFFCURVE",
"115 459 CURVE SMOOTH",
"115 492 OFFCURVE",
"146 520 OFFCURVE"
);
}
);
width = 430;
}
);
note = DOLLAR;
},
